<svg width="523" height="507" viewBox="0 0 523 507" fill="none" xmlns="http://www.w3.org/2000/svg">
<path fill-rule="evenodd" clip-rule="evenodd" d="M516.564 297.527C509.464 325.425 495.183 355.844 466.413 364.736C459.418 366.898 452.613 368.53 445.348 367.706C444.656 367.628 444.078 367.729 443.42 367.742C442.242 367.765 443.26 368.203 441.938 367.781C440.907 367.451 439.943 366.628 438.869 366.264C436.014 365.297 432.971 365.11 430.069 364.329C422.94 362.41 415.593 360.04 408.685 357.393C405.432 356.147 402.443 354.412 399.384 352.742C396.273 351.045 392.977 349.991 389.832 348.435C387.346 347.205 383.088 345.602 381.341 343.295C379.477 340.834 382.055 335.596 382.792 332.98C385.298 324.079 388.282 315.308 390.166 306.23C396.669 314.03 405.695 318.86 415.039 321.975C420.109 323.666 425.324 324.888 430.597 325.653C435.385 326.347 440.55 327.187 445.35 326.202C448.973 325.457 453.52 323.734 456.108 320.872C457.031 319.85 458.139 317.978 457.622 316.493C456.965 314.61 455.051 315.496 454.016 314.091C453.114 312.866 453.255 310.002 452.967 308.511C452.459 305.871 451.76 303.305 450.907 300.764C449.252 295.831 447.189 290.888 446.695 285.639C446.265 281.085 447.267 276.779 449.462 272.827C450.499 270.959 453.105 265.877 455.647 266.089C458.439 266.32 454.674 278.498 454.551 280.982C454.063 290.828 455.339 301.321 460.222 309.951C462.091 313.256 464.795 317.104 468.786 317.514C473.014 317.947 476.424 314.504 478.436 311.021C483.347 302.523 480.871 290.862 478.384 281.956C475.334 271.028 467.372 263.497 462.338 253.683C469.854 254.465 473.879 259.406 477.736 265.676C481.984 272.578 485.289 280.864 486.92 288.895C487.743 292.953 487.175 297.027 487.18 301.125C487.182 302.486 487.181 307.508 489.326 307.31C491.618 307.099 492.404 301.435 492.741 299.707C493.513 295.744 494.35 291.78 495.02 287.798C496.208 280.751 496.735 273.534 498.158 266.536C498.398 265.354 498.876 262.072 500.587 262.958C501.907 263.64 501.695 268.716 501.743 269.896C501.861 272.803 502.028 275.711 502.051 278.621C502.085 282.935 501.254 287.4 501.661 291.687C501.928 294.488 503.38 297.584 505.181 293.806C506.967 290.059 507.331 285.387 508.327 281.357C509.373 277.127 510.453 272.834 512.673 269.077C513.289 268.035 513.951 266.38 515.32 266.87C516.315 267.227 517.049 269.666 517.356 270.527C518.743 274.418 518.508 278.744 518.42 282.817C518.314 287.808 517.796 292.688 516.564 297.527ZM378.107 304.767C377.727 304.64 376.116 304.482 375.716 304.446C375.247 304.404 375.779 303.51 374.645 303.764C374.864 304.326 375.253 304.7 375.812 304.888C374.107 305.485 372.85 304.011 371.683 303.821C370.568 303.64 370.521 303.821 369.42 305.04C368.227 303.535 368.451 304.474 367.47 304.474C367.113 304.475 367.098 305.033 366.517 304.966C366.01 304.907 365.957 304.112 365.657 304.018C364.03 303.508 362.356 306.073 360.51 303.848C360.063 306.163 354.94 303.264 352.968 303.67C350.902 304.096 351.793 304.862 350.123 303.552C348.532 302.304 348.976 303.133 347.125 304.155C347.168 304.131 346.08 304.891 346.181 304.903C344.9 304.748 344.973 303.378 343.351 303.45C341.633 303.528 340.9 304.921 339.328 303.206C338.986 304.49 338.916 303.937 338.11 304.261C337.667 304.37 337.28 304.249 336.947 303.9C336.847 304.253 336.625 304.469 336.283 304.549C335.406 304.63 333.759 304.756 332.962 304.319C331.767 303.663 332.728 303.411 331.899 302.673C331.527 304.708 330.713 304.275 328.995 304.466C327.685 304.611 327.396 304.195 326.144 303.992C324.912 303.793 323.319 304.288 322.116 304.499C321.619 304.587 320.955 304.945 320.449 304.819C319.994 304.706 319.799 304.34 319.527 304.244C319.197 304.129 319.267 303.83 318.696 303.685C318.303 303.586 317.598 303.968 317.205 304.034C314.401 304.505 311.709 304.51 309.035 303.368C310.352 305.764 305.957 304.47 305.173 303.478C304.193 305.067 303.008 303.945 301.034 304.069C299.133 304.189 296.273 304.792 295.503 302.341C295.352 302.839 294.273 304.285 293.843 304.505C292.597 305.145 292.448 304.199 291.29 303.814C289.713 303.289 290.042 304.285 289.063 304.487C287.413 304.829 286.521 303.626 285.062 302.986C285 303.981 284.968 304.592 284.138 305.211C283.402 302.439 280.776 305.438 281.227 301.733C280.228 302.406 278.823 302.924 278.538 304.285C280.209 303.809 278.716 304.939 278.646 304.977C278.426 305.096 277.68 304.013 277.507 303.86C277.459 304.371 277.412 304.882 277.365 305.393C276.7 305.049 276.075 304.432 275.535 304.123C275.048 303.845 275.745 303.266 274.923 303.226C274.49 303.205 274.038 304.176 273.583 304.259C272.887 304.385 273.222 303.353 272.93 303.387C272.487 303.44 271.764 304.111 271.429 304.098C270.33 304.056 271.074 303.526 270.235 303.284C268.736 302.849 268.832 303.864 267.754 304.23C265.288 305.068 265.536 301.212 263.027 303.784C262.427 304.399 262.04 305.349 261.218 305.296C259.515 305.185 260.113 303.097 260.459 302.074C260.817 302.256 254.238 305.754 254.29 305.617C254.332 304.778 255.367 304.131 254.442 303.387C253.686 305.065 252.89 305.095 251.146 305.407C250.299 305.559 250.132 305.762 249.225 305.398C248.647 305.166 248.259 304.212 247.685 304.16C247.762 304.167 246.707 304.998 246.547 305.072C245.595 305.516 244.993 305.013 244.068 305.195C243.279 305.351 242.969 306.045 242.185 305.855C241.138 305.602 241.753 304.308 240.312 304.669C239.82 304.792 239.524 305.774 238.748 305.977C237.539 306.294 236.057 305.703 234.779 306.011C233.764 306.256 233.011 306.36 232.124 306.411C231.408 306.452 231.702 305.875 230.383 306.557L229.824 305.097C229.163 305.712 228.503 306.326 227.842 306.941C227.717 306.39 227.638 305.832 227.604 305.267C226.619 306.288 225.379 306.462 224.055 306.554C222.621 306.654 221.553 306.977 220.158 307.248C219.717 307.334 218.581 307.471 218.218 307.311C218.272 307.334 217.54 307.02 217.76 307.079C217.665 306.879 217.577 306.675 217.496 306.468C217.373 305.892 216.972 305.867 216.296 306.392C215.946 306.337 215.267 305.861 214.918 305.978C214.019 306.28 214.141 307.003 213.245 306.897C212.663 306.828 212.366 305.938 211.76 305.878C210.833 305.786 210.03 306.859 209.195 307.093C211.734 306.38 205.901 306.933 207.715 306.983C206.525 306.95 205.291 306.89 204.192 307.441C203.585 307.011 204.322 306.148 203.709 305.792C203.152 305.47 203.109 306.321 203.044 306.34C203.396 306.237 203.22 306.962 202.869 307.09C201.775 307.492 200.899 306.471 200.842 305.459C199.913 306.907 199.652 306.325 198.284 306.414C196.936 306.503 195.772 307.234 194.423 307.221C191.755 307.194 189.944 306.235 189.053 303.769C191.897 304.128 194.758 302.235 197.539 302.681C198.453 302.828 199.023 303.538 199.824 303.412C200.81 303.257 201.499 302.143 202.764 302.023C205.553 301.759 208.303 302.016 211.112 301.574C214.467 301.045 217.968 300.731 221.355 300.989C223.973 301.188 226.092 300.153 228.747 299.953C232.178 299.694 235.639 299.649 239.077 299.462C242.609 299.27 246.41 298.687 249.932 298.874C251.032 298.932 251.979 299.044 253.07 298.976C253.532 298.947 253.969 298.622 254.453 298.671C255.084 298.734 255.355 299.402 256.009 299.379C257.121 299.34 258.309 298.392 259.631 298.366C261.804 298.323 263.967 298.329 266.146 298.2C268.064 298.087 270.119 297.624 272.029 297.649C273.376 297.667 273.708 298.854 274.493 298.977C275.905 299.197 283.045 294.992 283.661 298.766C287.378 296.133 292.363 298.362 296.501 297.868C301.816 297.232 307.228 297.799 312.58 297.572C318.025 297.342 323.626 297.555 329.05 298.087C331.296 298.307 333.467 298.513 335.72 298.38C336.724 298.32 337.885 298.055 338.889 298.295C339.132 298.353 340.995 299.699 340.764 299.737C341.781 298.792 341.093 298.653 342.882 298.605C344.262 298.567 345.567 298.876 346.939 298.96C349.401 299.11 351.882 298.758 354.339 298.835C356.391 298.9 358.396 299.213 360.459 299.229C362.682 299.246 365.307 299.311 366.915 301.165C366.745 300.583 366.576 300 366.406 299.418C368.887 299.619 371.339 300.535 373.848 300.107C373.213 300.736 372.569 301.25 372.326 302.173C373.679 301.995 374.595 301.018 376.019 301.01C377.216 301.002 377.464 301.623 378.727 300.821C378.883 301.804 379.038 302.787 379.194 303.77C380.943 303.344 379.795 301.994 379.923 300.778C381.344 301.219 382.548 300.712 381.988 302.828C381.556 304.46 379.587 305.264 378.107 304.767ZM375.649 322.941C375.039 324.715 369.764 323.702 368.516 323.514C366.905 323.273 365.061 322.889 363.577 322.699C363.399 322.453 363.185 322.245 362.937 322.073C362.749 322.343 362.514 322.534 362.228 322.646C361.546 322.8 361.544 323.528 360.649 323.367C360.607 324.445 361.33 323.833 361.884 324.224C360.488 325.192 361.127 324.077 360.343 324.095C360.149 323.81 359.879 323.698 359.532 323.759C359.091 323.878 358.684 324.073 358.312 324.346C357.963 324.727 357.664 324.747 357.415 324.406C357.177 324.157 356.886 324.004 356.542 323.946C355.167 324.177 354.782 324.809 353.234 324.706C351.021 324.558 348.627 325.162 346.449 324.844C345.099 324.647 342.843 322.452 342.23 324.592C341.297 323.006 339.811 321.927 338.917 320.306C343.08 320.057 347.241 319.76 351.406 319.604C355.054 319.469 359.044 319.894 362.452 319.716C365.645 319.549 369.026 319.184 372.286 318.882C375.742 318.563 376.885 319.348 375.649 322.941ZM267.062 323.203C268.574 323.636 270.013 322.655 271.479 322.965C271.963 323.067 272.967 323.98 273.187 323.998C273.591 324.032 274.777 323.135 275.286 323.015C278.505 322.257 282.406 322.337 285.624 322.803C287.33 323.05 287.592 322.242 289.08 321.85C290.628 321.441 292.827 321.756 294.456 321.643C298.29 321.378 302.122 321.567 305.929 321.276C309.838 320.979 313.727 320.818 317.637 320.609C320.301 320.468 326.702 318.895 328.91 320.942C330.731 322.629 328.385 325.558 326.564 326.227C325.202 326.726 324.55 325.674 323.539 325.775C322.388 325.889 322.789 327.296 321.762 325.991C321.125 327.289 317.123 326.736 315.976 326.822C313.476 327.009 311.362 327.528 309.661 325.115C309.776 325.81 309.891 326.506 310.007 327.202C307.751 325.955 305.33 326.354 303.371 326.789C302.401 327.004 299.425 328.493 298.374 327.851C297.651 327.409 298.925 326.654 297.706 326.278C297.067 326.08 295.963 327.178 295.183 327.123C293.021 326.969 293.634 325.465 291.511 327.38C290.792 326.736 290.553 325.641 290.648 324.703C289.106 326.065 289.235 328.333 286.478 327.918C285.45 327.763 285.261 326.679 284.726 326.479C283.585 326.052 283.455 326.819 282.467 327.426C282.093 327.655 281.638 328.023 281.199 328.069C280.296 328.162 280.153 327.733 280.029 327.747C279.429 327.816 278.672 328.132 277.96 327.906C277.32 327.703 277.133 326.535 276.007 326.808C274.928 327.07 274.919 327.828 275.115 328.963C274.051 328.848 273.408 328.236 272.613 327.572C271.81 329.51 270.119 327.904 269.183 329.54C267.965 328.035 267.184 328.449 265.672 326.979C265.747 327.593 265.821 328.206 265.895 328.82C264.716 328.585 264.191 327.724 263.184 328.862C262.208 326.98 259.247 329.662 257.726 327.844C257.048 330.147 252.562 329.596 250.668 329.636C248.989 329.672 247.746 329.53 246.106 329.933C244.656 330.289 242.647 330.659 241.284 330.496C240.393 330.389 239.419 330.22 238.309 330.345C236.71 330.524 235.328 331.382 233.67 330.976C231.175 330.366 229.645 326.973 232.424 325.483C234.327 324.464 237.754 324.841 239.847 324.653C243.316 324.341 247.204 323.687 250.678 323.985C253.388 324.216 255.858 323.548 258.623 323.265C260.704 323.053 264.116 322.669 265.473 324.804C265.994 324.181 265.94 322.882 267.062 323.203ZM229.084 352.426C228.711 350.506 244.572 349.448 246.146 349.323C249.452 349.059 252.766 348.871 256.079 348.784C258.802 348.713 261.344 349.251 264.068 348.818C266.612 348.414 269.683 347.586 271.897 349.45C272.223 346.901 281.77 348.143 283.587 348.15C291.494 348.179 299.06 348.198 306.708 347.692C311.079 347.402 315.721 347.012 320.092 347.239C322.064 347.341 323.652 347.885 325.613 347.412C326.892 347.105 328.27 346.464 329.494 347.37C330.925 348.43 331.537 352.029 330.55 353.531C329.832 354.626 329.196 354.505 328.049 354.315C326.285 354.025 324.974 353.602 323.175 354.344C323.467 354.224 321.97 354.57 322.094 354.56C320.057 354.717 317.262 356.19 315.506 354.492C316.21 354.62 317.232 353.32 316.346 353.213C315.679 353.133 315.257 353.872 314.737 354.12C312.96 354.966 312.05 354.701 310.988 352.926C308.847 354.843 308.617 354.313 307.677 351.951C306.953 352.528 306.797 353.893 306.228 354.34C306.143 354.406 306.494 355.235 306.083 355.201C305.701 355.169 305.576 354.522 305.283 354.471C305.095 354.438 304.998 353.87 304.818 353.836C304.624 353.798 304.424 354.161 304.204 354.15C303.616 354.121 301.933 355.417 302.537 353.599C301.645 354.772 301.261 354.024 300.94 352.956C299.911 353.766 298.882 354.575 297.852 355.385C297.374 354.008 296.55 354.383 295.514 354.864C295.826 353.908 295.63 353.003 294.847 353.668C294.393 354.053 294.089 355.275 293.625 355.794C291.746 353.825 291.062 354.365 288.466 354.621C287.476 354.718 286.244 354.908 285.359 354.288C284.58 353.744 284.14 351.746 282.809 353.36C283.106 353.001 282.641 355.759 282.559 356.196C281.972 355.787 281.474 355.284 281.063 354.687C280.297 356.256 278.287 354.848 276.639 355.168C274.045 355.673 271.37 356.524 269.079 354.526C268.917 355.171 267.04 355.992 267.037 356.017C267.149 354.875 267.845 355.277 266.423 355.06C266.162 355.02 265.865 355.507 265.618 355.56C264.77 355.742 263.78 355.57 262.925 355.545C259.371 355.439 256.118 356.254 252.609 356.549C251.426 356.648 250.022 356.844 248.912 356.383C247.768 355.906 247.799 355.366 246.641 355.673C247.008 355.576 245.918 356.761 245.977 356.716C245.821 356.833 245.172 356.255 244.941 356.298C244.874 356.551 244.807 356.803 244.739 357.056C244.46 357.02 244.181 356.985 243.903 356.95C243.139 357.056 242.451 356.256 241.734 356.229C241.866 356.234 239.799 357.03 239.893 357.079C238.45 356.334 238.865 356.55 237.034 357.003C235.304 357.432 233.581 357.332 231.806 357.599C226.643 358.375 229.719 355.697 229.084 352.426ZM224.524 379.141C223.553 377.716 226.136 377.224 226.961 377.098C228.318 376.891 230.118 377.303 231.023 377.08C232.4 376.741 233.729 375.932 235.279 375.712C237.236 375.435 239.207 375.39 241.172 375.217C241.826 375.158 242.636 374.926 243.273 374.965C244.222 375.024 244.615 375.543 245.381 375.546C246.685 375.553 248.294 374.701 249.63 374.545C251.341 374.344 253.07 374.25 254.789 374.162C258.412 373.976 261.998 374.053 265.619 374.049C267.271 374.047 271.669 372.273 272.493 374.261C273.638 372.754 276.575 372.96 278.212 372.916C281.096 372.839 283.95 372.551 286.832 372.413C289.299 372.294 292.055 372.84 294.479 372.458C295.814 372.247 296.256 371.804 297.77 372.004C298.895 372.152 300.611 371.537 301.576 371.809C301.526 371.795 302.781 372.599 302.39 372.625C302.821 372.596 302.796 372.908 303.271 372.769C303.895 372.587 303.609 371.774 304.903 371.486C306.922 371.035 309.614 371.556 311.712 371.441C313.746 371.329 315.778 371.28 317.815 371.29C318.752 371.294 319.912 371.063 320.824 371.252C321.271 371.345 322.221 371.949 322.6 371.888C323.673 371.714 324.22 370.943 325.671 370.991C327.316 371.044 328.796 371.021 330.432 370.891C332.016 370.766 332.27 370.532 333.055 371.895C333.833 373.248 334.047 375.01 332.616 375.929C333.546 375.866 334.69 377.155 333.594 377.869C332.916 378.31 331.558 377.314 330.747 377.386C329.748 377.475 328.964 378.021 327.877 378.055C326.733 378.092 325.573 378.389 324.446 378.412C323.271 378.436 322.383 377.893 321.269 378.124C320.289 378.328 320.186 379.159 319.006 378.429C318.419 378.066 318.32 376.721 317.52 376.709C316.448 376.692 316.875 378.125 316.259 378.789C316.093 376.739 314.564 380.131 313.956 377.643C313.396 378.469 311.321 379.625 310.316 378.961C309.4 378.356 309.704 376.987 309.322 376.001C308.687 377.773 306.982 379.613 307.137 376.385C306.308 377.44 304.071 377.273 304.632 379.119C303.957 379.106 303.798 378.109 303.23 378.034C302.74 377.969 302.351 378.358 302.275 378.353C302.544 378.376 301.473 378.745 301.456 378.749C302.181 378.596 299.364 378.336 299.844 378.34C299.19 378.335 298.39 378.889 297.625 378.887C296.929 378.885 296.237 378.601 295.549 378.52C293.767 378.31 294.138 378.715 293.019 379.294C292.605 379.508 292.5 379.872 291.912 379.827C291.478 379.793 291.315 379.206 291.266 379.202C290.655 379.138 291.107 378.925 290.158 379.024C290.049 379.217 289.941 379.411 289.832 379.604C289.49 380.058 289.045 380.171 288.5 379.945C287.097 380.256 282.443 381.606 282.899 379.106C282.186 379.467 281.472 379.828 280.759 380.189C280.453 378.173 276.579 380.846 275.714 380.981C274.603 381.153 274.501 380.712 273.451 380.477C273.262 380.435 272.882 381.081 272.439 380.988C271.287 380.749 271.082 380.63 270.884 379.336C270.063 380.925 269.381 380.214 267.891 380.475C267.562 380.533 267.351 381.204 266.878 381.088C266.537 381.005 266.528 380.36 266.293 380.277C266.081 380.202 266.113 379.693 265.801 379.621C265.444 379.537 264.225 380.571 263.876 380.731C263.088 381.09 261.793 381.685 261.023 381.507C260.071 381.287 260.495 380.557 259.15 380.64C257.029 380.768 256.144 382.636 254.824 379.692C254.229 380.871 254.305 381.191 253.348 381.581C252.641 381.868 250.851 381.568 249.92 381.532C245.945 381.38 242.037 382.782 238.095 382.415C236.362 382.254 234.901 381.895 233.153 382.188C231.316 382.497 229.518 382.951 227.655 383.133C226.707 383.226 224.727 383.508 224.261 382.254C223.852 381.15 225.379 380.397 224.524 379.141ZM232.319 424.4C227.163 427.97 222.893 432.844 218.159 436.972C213.413 441.11 209.646 445.71 205.378 450.292C201.432 454.528 197.806 458.536 193.035 461.737C190.016 463.763 187.322 466.256 184.221 468.167C181.898 469.597 178.379 471.479 179.513 467.103C180.674 462.619 182.818 458.086 184.68 453.898C187.328 447.945 189.995 442.047 192.86 436.207C193.936 434.012 194.538 431.828 196.246 430.08C198.103 428.178 199.404 425.694 201.438 423.897C209.995 416.337 222.89 422.177 232.319 424.4ZM248.493 426.964C246.154 428.232 243.536 428.547 241.058 429.386C238.946 430.1 236.982 431.371 234.71 431.466C236.778 429.859 238.554 427.676 240.886 426.456C243.508 425.084 245.888 426.083 248.493 426.964ZM351.145 437.537C342.543 434.533 334.533 430.107 326.154 426.545C324.708 425.929 313.396 422.074 313.626 420.239C321.553 418.736 329.716 416.157 337.663 418.969C344.891 421.527 350.77 427.663 356.366 432.798C357.826 434.138 366.856 440.24 366.048 442.184C365.488 443.531 361.138 443.163 360.11 442.887C358.783 442.53 358.019 441.696 356.978 440.78C355.237 439.249 353.312 438.293 351.145 437.537ZM335.264 387.35C336.571 386.106 337.353 384.218 338.601 383.069C340.205 381.593 342.793 382.313 344.546 383.079C349.806 385.38 354.302 389.247 359.53 391.647C365.324 394.307 370.339 397.862 375.564 401.525C380.341 404.874 385.506 407.646 390.381 410.841C395.349 414.098 400.911 416.215 405.947 419.356C411.073 422.554 416.178 425.764 421.104 429.287C429.887 435.57 439.032 442.022 445.529 450.954C448.869 455.545 451.996 460.753 454.446 465.909C456.674 470.596 459.09 477.102 456.203 481.977C453.431 486.659 448.705 490.347 444.706 493.841C443.191 495.163 441.75 496.77 439.786 497.344C437.398 498.041 434.612 497.849 432.156 498.055C419.024 499.157 406.79 498.116 393.849 495.686C381.37 493.343 368.84 492.03 356.266 490.402C349.172 489.483 342.08 488.412 335.083 486.882C332.091 486.228 329.048 485.474 326.121 484.582C323.565 483.804 321.416 482.09 318.787 481.412C307.633 478.529 294.872 477.427 283.829 472.578C293.601 468.375 303.985 465.837 314.001 462.345C324.542 458.669 334.837 455.585 345.947 454.54C351.664 454.003 356.781 452.492 362.281 450.911C367.522 449.403 372.993 448.942 378.377 448.266C380.77 447.966 387.602 448.416 388.396 445.177C389.577 440.356 382.864 439.799 380.003 440.231C375.943 440.844 372.596 441.892 369.489 438.445C366.317 434.926 363.234 431.322 360.004 427.847C354.016 421.404 347.843 413.951 339.378 411.061C329.05 407.534 317.075 410.881 306.77 412.887C295.886 415.005 285.02 417.033 274.34 420.113C269.917 421.387 264.213 424.196 259.623 423.746C255.099 423.3 249.975 422.534 245.604 421.183C243.625 420.573 242 419.441 240.23 418.386C237.928 417.013 235.406 416.133 232.964 415.066C228.025 412.909 223.21 410.921 217.881 410.073C213.394 409.359 208.629 408.936 204.28 410.564C200.013 412.161 196.233 415.413 193.257 418.887C190.023 422.661 187.351 426.89 184.701 431.107C183.428 433.131 181.876 434.898 180.558 436.876C179.451 438.538 178.806 440.384 177.635 441.999C175.015 445.612 173.236 450.234 171.649 454.437C169.885 459.105 167.925 464.658 168.347 469.736C168.505 471.656 168.672 474.198 169.389 475.978C170.302 478.242 171.603 478.184 173.479 479.038C176.702 480.505 177.605 484.56 181.77 483.769C185.676 483.028 189.064 479.697 191.914 477.041C195.629 473.581 199.184 469.933 202.738 466.298C206.386 462.567 209.98 458.429 212.881 454.04C214.024 452.313 214.914 450.361 216.264 448.788C217.983 446.784 219.913 446.543 222.248 445.745C242.661 438.765 263.172 432.032 284.223 427.424C289.266 426.319 294.35 424.895 299.304 423.425C304.559 421.866 307.28 423.514 311.617 426.481C320.676 432.68 331.385 437.046 341.473 441.091C344.65 442.365 349.707 442.445 352.19 444.957C337.471 447.279 323.444 451.747 309.247 456.196C302.248 458.389 295.168 460.291 288.142 462.388C281.113 464.487 274.352 467.206 267.42 469.571C260.521 471.925 253.23 472.886 246.264 475.057C239.153 477.274 232.072 478.799 224.773 480.146C217.403 481.508 210.085 483.078 202.689 484.296C199.303 484.854 195.918 485.433 192.569 486.2C189.293 486.951 186.128 488.75 182.835 489.166C168.129 491.028 153.713 495.177 139.064 497.522C128.127 499.273 109.1 501.715 102.007 490.359C94.8755 478.94 103.625 465.618 111.432 457.452C116.284 452.378 121.736 447.911 127.456 443.938C133.577 439.685 139.468 435.094 145.591 430.848C159.447 421.238 174.472 413.401 189.359 405.68C196.505 401.974 203.409 397.999 210.359 393.932C213.809 391.913 215.719 395.17 218.446 397.384C220.591 399.126 224.529 403.419 227.53 401.434C227.646 402.149 227.762 402.863 227.877 403.579C228.756 403.164 229.636 402.75 230.514 402.335C231.105 403.937 231.036 404.933 232.685 405.774C233.698 406.292 235.86 406.914 236.826 406.003C237.022 406.636 237.219 407.268 237.417 407.901C238.261 407.834 238.424 405.335 238.583 404.75C240.03 406.937 242.031 408.764 244.574 409.382C244.586 409.239 244.16 407.443 244.179 407.432C244.983 406.922 245.998 409.105 246.425 409.572C247.839 411.121 248.683 410.881 250.245 409.631C250.359 409.758 250.887 411.186 250.964 411.161C251.302 411.049 251.944 409.784 252.015 409.669C251.917 411.333 255.022 411.669 256.119 411.312C255.873 410.824 255.627 410.336 255.381 409.849C259.2 409.321 260.7 413.52 264.366 413.307C267.077 413.149 264.903 412.536 266.437 411.334C267.777 410.285 268.015 412.581 268.147 412.508C268.403 412.231 268.6 411.913 268.741 411.553C269.237 413.519 273.185 415.283 272.777 412.05C274.33 412.693 275.433 413.76 277.152 413.985C279.242 414.259 281.473 413.8 283.557 413.621C288.048 413.235 292.282 412.287 296.33 410.157C298.731 408.895 301.286 407.749 303.542 406.226C305.43 404.952 309.012 401.082 311.527 402.748C310.883 400.782 313.914 402.604 314.01 400.072C314.497 400.452 314.984 400.831 315.471 401.211C315.763 400.549 315.681 399.505 316.072 398.927C316.609 398.134 316.872 398.601 317.329 398.155C317.841 397.656 318.289 396.32 318.903 395.939C319.535 395.548 320.28 396.015 320.961 395.672C321.998 395.151 326.458 390.061 325.703 394.422C327.621 393.748 326.143 393.131 326.382 391.809C326.863 389.158 328.034 391.066 329.201 391.297C331.111 391.676 331.072 390.042 332.137 388.854C333.11 387.769 334.939 387.284 334.309 385.4C335.028 385.801 335.181 386.587 335.264 387.35ZM220.123 330.743C218.618 332.478 217.491 331.736 215.819 331.482C215.639 330.861 215.333 330.776 214.901 331.224C214.405 331.519 213.873 331.713 213.302 331.806C211.93 332.155 210.505 332.007 209.163 332.537C209.201 332.072 209.674 331.245 209.371 330.773C207.96 331.783 207.085 332.425 205.352 332.445C203.947 332.46 201.483 331.35 200.317 332.677C200.28 332.16 200.244 331.644 200.209 331.127C199.638 331.422 199.141 331.815 198.718 332.309C198.638 331.544 198.594 330.965 198.105 330.347C197.177 332.321 196.161 332.368 194.359 331.614C194.611 331.719 192.555 330.471 192.633 330.817C191.983 327.982 202.247 328.216 203.325 328.104C206.016 327.823 208.707 327.659 211.402 327.402C213.958 327.16 215.866 326.747 217.634 328.954C216.846 325.766 224.304 325.924 220.123 330.743ZM102.439 281.308C102.722 286.127 103.758 291.249 101.947 295.888C100.492 299.616 97.5881 303.827 94.4598 306.26C88.0547 311.242 82.6261 305.146 81.7343 298.446C80.8052 291.458 82.647 282.92 88.4612 278.612C91.9355 276.037 95.2996 276.216 99.2992 277.062C100.238 277.261 101.764 277.184 102.301 278.151C102.427 278.376 102.314 281.303 102.439 281.308ZM187.508 345.517C186.401 346.095 185.244 346.433 184.268 347.219C183.929 347.493 183.814 348.115 183.454 348.345C182.8 348.764 181.865 348.486 181.183 348.832C180.054 349.402 179.245 350.219 177.904 350.745C175.912 351.526 174.165 352.598 172.282 353.614C169.144 355.307 165.777 356.76 162.497 358.138C160.842 358.834 156.263 360.19 156.421 362.698C156.051 362.802 155.672 361.964 154.899 362.03C153.837 362.122 152.435 363.392 151.333 363.705C149.271 364.289 147.675 364.34 147.675 367.06C147.02 366.599 146.853 365.47 145.98 365.32C144.997 365.152 144.583 366.249 143.797 366.59C142.872 366.992 141.72 366.607 140.804 367.035C140.403 367.473 139.957 367.857 139.467 368.183C138.968 368.242 138.472 368.227 137.978 368.135C136.032 368.563 134.241 369.32 132.29 369.714C130.389 370.098 129.086 370.237 129.886 372.564C127.852 372.976 127.356 370.742 125.061 371.56C122.248 372.56 119.619 373.282 116.683 373.893C115.186 374.204 113.621 374.899 112.113 375.062C111.037 375.178 110.033 374.78 108.973 374.904C107.696 375.052 106.67 375.664 105.348 375.687C104.094 375.71 102.779 375.477 101.548 375.248C101.722 375.761 101.939 376.253 102.201 376.724C101.35 376.54 100.957 375.481 100.235 375.324C99.4779 375.16 98.7993 375.968 98.1688 375.789C97.9002 375.713 98.0789 374.856 97.5988 374.692C97.1606 374.544 96.9762 374.719 96.5419 374.649C96.3972 374.625 94.5814 374.524 94.2919 374.682C93.7864 374.959 94.2981 375.479 94.1975 375.556C92.4897 376.864 92.4688 376.159 91.7077 374.792C90.5897 372.787 89.2416 374.052 87.2098 373.701C84.9451 373.31 83.161 374.344 80.9324 374.197C78.5286 374.038 75.7035 372.177 73.5778 371.089C68.9884 368.742 64.5126 366.521 60.6583 362.965C53.1233 356.014 46.9935 347.467 43.3793 337.682C39.496 327.169 38.7601 316.205 39.0718 305.052C39.2593 298.344 39.7781 291.641 40.7997 285.012C41.503 280.452 41.6503 272.349 46.618 270.272C47.4719 280.949 44.7771 291.829 46.4766 302.436C46.9884 305.631 48.2364 309.888 50.5984 312.255C54.0953 315.757 54.9136 310.694 55.2297 307.897C55.8184 302.702 56.912 297.537 57.6867 292.366C58.4603 287.199 59.0071 281.973 60.0826 276.86C60.4751 274.995 63.6384 261.342 65.9602 261.988C65.4903 271.921 64.2429 281.683 64.1937 291.652C64.1745 295.651 63.8284 299.874 64.3859 303.847C64.6732 305.891 66.472 311.889 69.5657 311.389C72.4288 310.926 69.2813 306.701 69.0138 305.071C68.3058 300.758 69.2084 295.393 69.8683 291.112C71.118 283.01 73.9052 274.713 78.4607 267.943C82.5412 261.88 88.8237 256.109 96.3927 257.178C99.6261 257.635 102.149 258.466 103.774 261.522C105.049 263.921 110.071 266.646 107.161 269.649C104.511 272.382 100.226 270.194 97.281 269.542C93.675 268.744 89.8105 269.704 86.7948 271.891C81.6206 275.642 78.6722 282.348 77.7098 288.638C76.4126 297.118 79.8801 319.317 92.6514 314.342C101.136 311.036 107.526 299.147 106.814 290.045C106.528 286.401 105.152 279.484 110.023 278.5C116.264 277.241 117.145 284.36 116.513 288.986C115.595 295.716 112.158 301.973 108.226 307.294C104.799 311.931 100.814 314.831 96.6901 318.661C95.4692 319.795 92.3551 322.344 92.8782 324.453C93.4516 326.764 98.3453 327.421 100.305 327.801C109.999 329.679 120.931 327.951 130.608 326.64C150.498 323.944 170.127 317.306 186.436 305.1C187.095 312.652 187.926 320.179 188.232 327.759C188.38 331.438 188.418 335.17 188.824 338.83C189.075 341.081 189.979 344.225 187.508 345.517ZM132.356 371.833C131.575 372.255 132.419 369.698 132.202 370.544C133.369 370.977 133.42 371.407 132.356 371.833ZM214.866 280.436C216.105 279.022 219.492 275.659 220.567 278.85C220.967 277.49 221.019 275.474 222.563 277.312C223.177 275.055 229.958 275.266 231.637 275.167C237.015 274.848 242.414 274.678 247.773 274.125C258.784 272.989 269.988 273.575 281.039 273.538C283.432 273.53 285.819 273.396 288.195 273.755C290.487 274.101 292.897 275.074 295.233 274.719C297.311 274.403 298.673 273.81 300.811 274.063C303.37 274.367 305.854 274.583 308.436 274.573C319.854 274.53 331.266 275.009 342.687 275.027C344.913 275.031 347.579 274.581 349.668 275.559C350.441 275.922 351.287 277.129 351.878 277.261C352.554 277.413 352.152 276.319 353.059 276.813C354.273 277.474 353.333 279.506 352.531 279.828C353.011 279.636 351.664 279.446 351.798 279.438C351.159 279.474 350.614 279.981 349.927 279.949C348.881 279.902 348.006 279.242 347.163 278.661C347.148 278.898 347.612 280.48 347.083 280.56C346.628 280.629 346.202 279.069 346.156 278.706C343.601 281.039 340.894 279.739 337.724 280.034C335.475 280.244 330.786 281.796 329.218 279.367C329.153 279.883 328.952 280.336 328.617 280.724C328.169 281.43 327.781 281.37 327.454 280.542C327.343 280.547 326.251 280.793 326.229 280.791C325.461 280.728 324.464 280.442 323.682 280.373C322.471 280.266 322.694 281.178 321.73 281.192C321.204 281.2 319.861 280.414 318.943 280.364C317.353 280.278 315.729 280.976 314.16 280.765C313.08 280.62 312.104 279.71 311.044 279.675C309.724 279.629 309.296 280.672 308.25 279.208C308.035 279.148 307.902 280.009 307.818 280.024C307.838 280.02 306.822 280.175 306.702 280.224C306.493 280.306 305.681 280.691 305.434 280.696C304.9 280.706 304.61 280.311 304.044 280.301C303.107 280.285 300.117 281.138 300.201 279.345C296.859 280.627 294.007 280.127 290.577 280.43C289.004 280.57 288.015 280.351 286.518 280.052C284.643 279.678 283.397 280.148 281.527 280.244C279.73 280.335 279.164 279.548 277.646 278.838C277.048 278.557 276.653 278.188 275.919 278.344C275.5 278.433 275.798 279.162 275.675 279.211C275.03 279.469 274.58 279.196 273.696 279.259C272.064 279.374 271.414 280.785 269.737 279.46C270.294 279.391 270.852 279.319 271.41 279.25C269.806 278.546 267.688 278.187 268.077 280.749C266.709 280.55 267.893 279.587 267.221 279.241C266.548 278.897 265.795 279.474 264.948 279.759C262.711 280.509 260.846 280.137 258.514 280.002C255.864 279.849 249.664 282.087 247.766 279.182C247.709 279.794 247.074 281.499 246.229 281.419C245.954 281.393 246.721 279.582 246.809 279.391C246.373 280.35 244.387 280.532 243.408 281.029C243.518 280.514 243.627 279.999 243.737 279.484C242.828 280.485 242.387 279.874 241.317 280.209C240.85 280.355 240.173 281.353 239.773 281.413C239.307 280.854 238.722 280.614 238.017 280.691C237.548 280.57 237.079 280.546 236.61 280.621C234.733 280.762 233.022 281.841 231.155 281.106C229.539 280.469 228.914 278.83 227.95 281.437C227.696 280.974 227.443 280.51 227.19 280.047C226.877 280.55 226.564 281.053 226.251 281.555C225.029 280.727 224.953 280.247 223.546 280.551C223.216 280.687 222.877 280.668 222.531 280.494C222.448 280.749 222.365 281.004 222.282 281.259C222.249 281.901 222.065 282.113 221.73 281.895C221.448 281.79 221.195 281.631 220.968 281.418C220.037 281.491 218.848 281.745 217.849 281.605C217.463 281.552 215.046 280.231 214.866 280.436ZM243.353 263.182C243.463 263.356 243.573 263.53 243.683 263.705C242.171 264.53 241.815 264.056 241.659 262.398C242.398 262.412 242.524 263.757 243.353 263.182ZM244.29 262.209C245.018 262.541 245.852 263.194 246.538 262.319C246.999 263.708 243.572 265.602 244.29 262.209ZM248.99 262.822C250.518 263.891 246.853 263.032 246.859 263.033C247.518 262.404 248.228 262.333 248.99 262.822ZM262.132 256.862C262.656 259.599 264.102 259.521 266.434 258.249C269.836 256.394 270.411 253.356 270.648 249.728C270.875 246.25 271.286 244.903 274.752 245.629C277.171 246.136 279.218 245.71 281.657 245.64C284.259 245.566 285.176 245.977 285.386 248.749C285.595 251.524 286.073 253.631 288.018 255.743C289.997 257.891 292.636 259.173 295.206 260.374C296.528 260.991 297.77 261.655 299.233 261.789C299.799 261.841 302.749 261.455 302.811 262.421C302.857 263.147 298.772 265.196 298.338 265.44C296.444 266.506 294.554 267.463 292.485 268.109C287.723 269.595 282.675 269.683 277.743 269.593C269.791 269.448 258.802 265.968 254.047 258.667C256.742 258.066 259.437 257.464 262.132 256.862ZM261.419 233.167C260.161 232.075 259.346 230.424 258.301 229.13C257.774 228.477 257.388 228.27 256.886 227.943C256.358 227.599 256.06 228.086 255.619 227.277C254.481 225.188 257.994 222.248 254.268 221.444C253.007 221.171 249.973 222.205 249.605 220.335C249.084 217.692 253.96 217.519 255.106 216.177C257.388 213.51 255.839 208.988 257.229 205.911C258.543 202.996 261.938 202.478 264.617 201.602C268.351 200.382 272.128 199.675 275.919 198.699C278.569 198.016 282.973 195.275 285.431 197.698C281.638 198.569 283.842 199.937 286.371 200.709C289.234 201.585 292.269 201.926 295.236 202.17C298.291 202.42 301.403 202.468 304.421 201.838C307.213 201.255 310.329 198.744 313.256 199.388C311.632 202.31 306.795 203.905 303.856 204.671C302.358 205.061 301.399 204.939 301.601 206.871C301.795 208.744 303.368 210.622 303.724 212.573C304.194 215.155 303.783 217.528 302.895 219.956C302.021 222.345 301.818 222.657 302.581 224.94C303.771 228.495 301.214 232.424 298.851 235.005C289.293 245.443 271.003 241.489 261.419 233.167ZM285.705 170.785C285.743 170.891 285.71 170.851 285.705 170.785V170.785ZM288.681 197.126C288.285 197.432 286.003 198.075 286.098 197.152C286.225 195.915 288.283 196.362 288.681 197.126ZM293.883 172.141C293.348 171.728 291.847 171.898 292.944 170.332C293.301 171.021 293.592 171.581 293.883 172.141ZM257.886 162.242C258.569 160.407 259.325 158.699 259.633 156.745C259.823 155.541 259.445 154.167 261.071 153.978C258.999 153.042 258.978 149.351 258.855 147.437C258.687 144.802 257.882 141.274 259.002 138.821C260.151 136.301 261.7 136.343 262.168 139.344C262.351 140.519 261.651 140.899 261.519 141.717C261.258 143.335 261.777 142.981 262.786 141.747C263.202 143.001 263.362 144.884 265.057 144.805C264.944 144.466 264.295 143.718 264.512 143.297C264.845 142.65 266.473 143.638 266.68 143.788C268.167 144.864 268.489 145.846 267.429 147.204C268.897 147.368 267.665 148.698 268.612 149.044C270.058 149.573 269.088 147.067 268.932 146.627C269.812 146.982 270.107 147.388 270.664 148.107C270.991 148.604 271.289 149.119 271.558 149.652C271.858 150.626 272.474 150.87 273.408 150.384C275.281 150.993 277.866 150.897 279.545 151.96C280.312 152.446 280.588 153.508 281.229 153.911C281.949 154.365 282.915 154.159 283.689 154.444C283.406 155.11 283.635 155.471 284.376 155.527C284.951 155.581 285.509 155.715 286.048 155.929C286.45 155.614 286.889 155.366 287.363 155.186C287.681 155.765 288.13 155.909 288.712 155.617C290.439 155.952 291.269 156.627 292.366 157.638C293.352 158.545 292.55 158.619 293.629 158.538C294.063 158.506 294.823 157.745 295.815 157.893C296.386 158.008 296.936 158.191 297.466 158.439C298.039 158.947 298.648 159.01 299.292 158.631C300.337 159.16 300.44 160.097 301.716 160.225C303.125 160.368 302.672 158.548 303.64 161.114C304.944 158.394 305.422 162.727 306.768 163.077C308.163 163.44 308.313 162.27 309.507 163.548C309.865 163.932 309.845 164.565 310.246 164.971C310.905 165.636 311.795 165.503 312.367 166.41C312.048 165.904 312.442 168.204 312.435 168.128C312.524 169.143 311.653 170.28 313.439 170.193C313.419 170.3 312.561 171.594 312.393 171.447C312.353 171.3 312.318 171.15 312.291 170.999C312.099 171.084 312.014 172.316 312.049 172.534C312.201 172.559 312.263 172.442 312.235 172.185C311.942 173.135 312.384 173.739 311.82 174.641C311.459 175.218 310.472 175.652 309.947 176.007C308.681 176.866 307.442 177.728 306.207 178.643C303.327 180.776 300.102 183.348 296.475 183.792C298.296 181.941 308.777 174.936 303.52 172.926C302.545 172.553 300.77 172.2 299.75 172.122C298.482 172.024 297.171 172.776 295.772 172.306C294.084 171.742 294.72 170.1 293.689 169.51C291.5 168.261 292.016 171.2 291.328 171.969C290.603 171.183 290.758 170.801 289.615 170.73C288.455 170.657 288.179 171.767 286.825 171.076C284.959 170.123 285.947 168.225 283.3 168.18C283.344 167.763 283.728 166.599 283.223 166.274C282.542 167.188 283.069 168.209 282.437 169.089C282.121 169.53 281.435 169.882 280.934 170.025C279.76 170.358 279.593 170.997 279.785 169.169C278.915 170.79 276.249 170.123 274.662 169.96C272.084 169.695 269.344 169.19 266.871 168.334C264.585 167.542 263.364 166.182 261.478 164.945C260.766 164.476 260.425 164.655 259.404 164.365C258.394 164.078 257.411 163.522 257.886 162.242ZM263.327 133.538C263.716 133.295 263.996 136.917 263.524 137.594C262.66 136.18 261.129 134.106 263.327 133.538ZM264.57 132.094C265.822 130.921 264.953 133.949 264.723 134.458C264.259 134.15 263.796 133.842 263.332 133.535C263.923 133.159 264.071 132.561 264.57 132.094ZM311.799 127.213C323.364 129.725 334.824 134.42 344.1 142.146C352.549 149.183 358.512 159.168 361.856 169.789C365.326 180.813 364.16 193.044 355.904 201.482C351.554 205.926 345.811 208.607 340.337 211.224C337.714 212.477 335.013 213.521 332.38 214.746C330.489 215.625 328.18 217.032 326.022 216.789C327.123 215.59 328.72 215.565 330.053 214.833C331.663 213.946 332.978 212.245 334.365 211.03C335.743 209.824 338.799 206.026 340.916 206.946C340.622 204.922 342.85 203.983 343.853 202.648C344.915 201.237 344.991 199.586 346.948 199.124C344.846 197.423 345.49 194.214 345.947 191.898C346.532 188.935 346.802 186.216 347.033 183.201C347.448 177.767 347.783 170.844 344.881 166.067C343.94 164.516 342.741 163.09 341.901 161.478C340.889 159.537 341.112 157.828 341.112 155.699C339.261 156.986 338.871 154.362 338.089 153.082C337.502 152.123 336.731 151.586 336.542 150.379C336.404 149.5 337.326 149.352 336.821 148.43C336.201 148.914 335.954 149.665 335.64 150.361C335.069 150.125 335.743 149.301 335.415 149.033C335.406 149.026 334.302 148.53 334.357 148.601C333.648 147.67 333.419 146.125 333.071 145.017C331.771 145.699 332.015 145.618 330.564 144.48C330.308 144.279 329.032 143.359 328.912 143.058C328.351 141.651 329.334 142.484 329.059 141.611C328.269 139.102 323.837 139.577 323.486 135.818C321.325 137.238 320.5 135.225 319.223 133.794C317.913 132.328 315.717 131.764 315.834 129.439C315.154 129.68 314.474 129.92 313.794 130.16C314.148 128.014 311.067 128.151 309.952 127.062C310.571 127.07 311.187 127.12 311.799 127.213ZM313.561 260.114C314.632 259.122 314.307 260.442 314.997 260.291C315.587 260.162 315.703 259.701 316.269 259.559C318.599 258.976 322.083 259.708 324.533 259.582C327.371 259.437 332.237 260.047 333.589 263.484C334.404 265.553 333.161 264.849 331.791 264.695C330.729 264.577 329.784 264.799 328.733 264.788C328.213 264.871 327.696 264.863 327.18 264.763C326.928 264.591 326.779 264.349 326.734 264.038C325.271 263.809 323.718 264.705 322.098 264.749C319.936 264.809 318.015 264.38 316.373 262.869C315.72 263.877 315.276 264.376 314.101 264.489C314.071 264.492 312.923 264.014 312.746 263.966C312.511 263.903 311.917 264.413 311.464 264.268C312.267 262.943 312.384 261.202 313.561 260.114ZM461.188 272.074C461.569 270.7 461.888 269.309 462.236 267.926C467.571 274.212 472.24 282.627 474.342 290.688C475.706 295.926 477.83 305.418 471.324 308.12C466.024 310.321 463.068 302.432 461.727 298.546C458.767 289.968 458.767 280.802 461.188 272.074ZM222.478 173.579C222.546 173.565 219.024 175.685 220.184 173.968C220.65 173.278 222.418 172.793 223.203 172.793L222.478 173.579ZM219.089 174.478C218.682 174.832 218.27 175.183 217.855 175.529C217.456 174.877 217.056 174.224 216.658 173.572C217.444 173.229 220.782 172.972 219.089 174.478ZM216.606 240.394C215.869 239.877 215.285 240.152 215.064 241.019C215.064 240.156 215.498 238.151 216.165 237.918C216.597 237.766 214.732 235.483 215.256 234.886C216.589 235.676 215.791 236.433 216.181 237.453C216.357 237.913 216.887 238.348 217.003 238.701C217.199 239.302 217.995 241.365 216.606 240.394ZM212.996 235.256C212.241 235.456 213.562 236.746 213.561 237.316C213.56 237.747 213.06 238.078 212.854 238.668C212.406 239.945 213.176 240.808 211.909 241.783C211.909 238.984 210.094 231.565 213.583 230.201C211.881 228.814 213.278 227.213 214.612 228.873C215.895 230.469 215.078 234.705 212.996 235.256ZM211.178 224.208C210.492 221.692 208.428 220.812 206.069 220.961C206.159 219.672 207.102 217.815 207.784 220.137C208.064 219.45 208.258 218.555 208.897 218.1C209.973 221.591 215.337 223.52 211.998 227.303C211.725 226.272 211.459 225.238 211.178 224.208ZM204.944 221.148C192.523 222.08 175.083 224.748 165.143 214.894C158.661 208.469 159.007 198.464 164.245 191.325C167.234 187.252 171.315 184.383 175.413 181.651C176.994 180.596 178.333 179.9 180.07 179.294C180.351 179.262 180.615 179.327 180.862 179.489C180.96 179.055 181.196 178.734 181.572 178.524C182.243 178.153 183.198 178.02 183.584 177.249C183.172 178.697 182.96 180.187 182.809 181.685C182.474 181.282 182.14 180.879 181.806 180.475C181.526 183.204 178.78 181.552 177.14 181.893C178.22 183.44 178.992 184.002 179.086 186.047C178.281 184.509 176.599 183.499 175.034 183.004C175.884 185.604 176.484 187.147 175.629 189.998C174.596 189.388 174.527 187.922 173.274 187.57C172.943 189.271 172.885 191.157 172.461 192.807C169.252 191.292 169.565 195.371 170.854 197.39C171.539 198.464 171.875 199.707 172.486 200.737C173.986 203.266 172.847 199.485 174.514 199.664C174.139 202.331 174.009 202.596 175.895 204.549C177.735 206.453 178.69 209.096 180.658 210.885C181.228 210.131 180.332 209.342 180.253 208.62C182.085 208.938 182.943 210.839 184.704 209.155C185.472 210.704 186.303 212.41 188.142 212.728C186.926 210.336 190.477 211.959 191.387 212.298C192.077 212.555 193.315 212.76 193.581 212.859C195.081 213.42 194.053 212.414 194.963 214.252C196.3 213.834 196.804 212.687 198.404 213.656C199.704 214.445 199.706 215.796 200.004 217.18C200.314 216.274 200.626 215.37 200.969 214.477C201.318 214.629 202.782 216.296 202.622 216.304C206.048 216.13 205.927 218.331 204.944 221.148ZM187.503 176.017C188.192 175.518 189.031 176.183 189.804 176.004C190.874 175.757 191.481 174.809 192.676 174.707C192.343 175.807 191.72 175.704 191.191 176.567C191.012 176.861 191.105 177.567 190.945 177.737C189.606 179.156 189.144 177.998 187.777 176.923C187.896 178.219 188.137 178.628 186.957 178.976C185.889 179.291 184.127 178.13 183.589 177.24C184.043 176.301 186.68 176.615 187.503 176.017ZM196.027 173.992C197.187 174.107 195.789 177.648 194.127 174.213C194.753 174.072 195.387 173.998 196.027 173.992ZM201.991 173.308C203.82 172.922 209.922 171.122 210.601 174.069C210.722 173.995 211.177 172.332 211.387 172.535C212.232 173.348 212.327 174.426 212.262 175.556C211.241 173.354 211.604 175.288 210.912 175.137C210.732 175.097 210.455 175.447 209.998 175.303C209.398 175.113 208.968 173.792 208.589 173.345C207.958 174.276 207.177 175.476 205.914 175.395C205.02 175.338 203.58 172.957 204.737 175.564C204.058 175.331 203.271 174.805 202.514 174.911C201.666 175.029 201.226 175.895 200.431 176.035C198.67 176.344 198.404 174.59 197.261 173.637C198.838 173.542 200.434 173.636 201.991 173.308ZM213.058 173.279C213.187 172.675 214.788 172.431 215.195 172.623C216.19 173.091 215.822 173.708 215.639 174.735C214.901 174.373 214.163 174.012 213.425 173.651C214.526 175.487 212.53 175.753 213.058 173.279ZM522.906 280.838C522.776 276.438 522.652 271.961 521.574 267.677C520.82 264.679 518.966 259.303 515.461 258.782C510.175 257.997 507.247 268.81 505.766 272.521C505.469 268.152 505.729 263.5 504.134 259.353C502.857 256.029 499.631 252.881 496.852 256.614C494.38 259.936 493.905 264.839 493.254 268.836C492.411 274.015 491.904 279.234 491.288 284.444C488.874 279.615 488.452 274.087 486.543 269.069C484.742 264.333 481.908 259.809 479.178 255.597C476.95 252.156 474.237 248.921 470.745 246.818C467.705 244.987 462.39 243.007 459.492 246.047C457.075 248.584 457.454 251.979 457.579 255.18C457.636 256.606 457.852 257.583 456.64 258.302C456.045 258.655 455.114 258.472 454.46 258.661C453.406 258.966 452.597 259.482 451.706 260.168C445.454 264.976 442.573 273.642 441.681 281.368C440.552 291.157 444.239 299.549 447.413 308.507C447.918 309.934 449.524 312.962 449.302 314.556C449.059 316.302 446.941 316.347 445.513 316.383C441.197 316.493 436.685 316.161 432.392 315.744C422.168 314.755 411.952 309.661 402.798 305.113C401.128 304.284 398.765 303.808 397.401 302.502C396.12 301.273 395.782 299.305 394.676 297.895C391.961 294.438 390.231 291.488 386.233 289.399C382.162 287.272 378.008 285.306 374.036 282.977C369.124 280.095 364.586 276.445 359.879 273.218C351.131 267.222 342.442 260.65 333.168 255.551C328.858 253.182 324.042 252.799 319.568 250.859C315.21 248.97 309.862 248.967 305.315 250.16C303.1 250.742 301.593 252.119 299.555 253.019C297.169 254.073 295.221 252.909 293.12 251.651C289.911 249.729 286.729 246.597 291.3 244.524C292.85 243.82 294.793 243.553 296.147 242.447C297.591 241.269 298.75 239.094 299.924 237.618C302.534 234.335 304.093 230.557 307.913 228.516C312.137 226.259 317.144 225.644 321.648 224.169C326.528 222.571 331.307 220.671 336.096 218.806C344.724 215.445 353.694 211.816 359.895 204.416C365.243 198.033 367.574 189.794 367.358 181.425C366.916 164.318 358.061 146.955 345.356 136.259C329.776 123.143 309.956 118.769 290.277 118.998C281.041 119.106 270.019 120.357 262.312 126.164C255.656 131.18 254.549 139.953 255.539 147.873C255.941 151.087 257.314 155.328 255.124 158.16C253.898 159.745 251.698 160.137 250.047 161.125C247.972 162.366 246.142 163.556 243.792 164.212C233.809 167.002 223.294 166.031 213.087 165.876C196.084 165.619 178.656 170.383 165.973 182.782C155.73 192.793 152.658 211.673 165.15 221.433C175.244 229.318 191.075 228.451 202.976 227.076C206.666 226.648 209.204 226.028 209.213 230.701C209.222 235.805 208.405 241.14 209.663 246.151C211.645 254.043 218.973 254.231 225.451 252.531C228.869 251.635 232.174 250.286 235.42 248.874C240.181 246.803 244.546 243.758 249.247 241.69C252.435 240.289 254.822 244.82 257.649 241.679C258.172 241.098 258.269 240.234 259.056 239.936C260.291 239.471 262.363 241.103 263.446 241.619C265.068 242.391 266.703 242.959 267.351 244.82C267.957 246.561 267.691 249.329 267.11 251.046C265.849 254.779 262.451 254.041 259.35 253.791C253.94 253.356 248.567 252.432 243.159 252.044C238.307 251.696 233.764 253.196 229.579 255.673C220.789 260.873 213.598 269.145 205.977 275.947C202.054 279.448 198.263 283.23 193.997 286.278C192.143 287.604 190.134 288.822 188.522 290.47C186.923 292.104 186.747 293.59 186.2 295.764C185.226 299.636 180.387 301.528 177.363 303.571C173.086 306.46 168.552 308.498 163.758 310.27C153.605 314.024 143.371 316.644 132.756 318.582C127.559 319.531 122.405 320.154 117.157 320.666C112.633 321.107 107.823 322.549 103.305 321.398C104.606 319.213 106.912 317.901 108.708 316.213C111.023 314.037 112.992 311.457 114.745 308.785C118.155 303.581 120.548 297.998 121.097 291.686C121.592 286.006 121.024 279.211 117.712 274.412C116.568 272.754 114.305 272.304 113.281 270.81C112.263 269.326 112.651 266.77 112.094 265.04C110.675 260.638 106.464 255.183 102.758 252.627C98.7371 249.852 92.8556 248.833 88.2113 250.279C79.607 252.957 74.3214 262.473 70.384 270.164C68.2335 265.481 71.835 258.532 67.6335 254.696C64.0896 251.461 61.2769 257.728 60.0917 260.41C54.5279 272.997 53.2641 286.348 50.9332 299.816C49.9832 298.846 50.4701 296.359 50.5594 295.204C50.7256 293.051 50.7098 290.94 50.7143 288.78C50.7256 283.32 51.7062 277.836 51.2566 272.382C50.9971 269.229 50.0256 262.581 45.5993 263.629C41.8455 264.517 39.4941 269.98 38.3147 273.32C36.6134 278.137 36.2206 282.906 36.3266 287.995C36.4437 293.618 35.4085 299.148 35.1577 304.764C34.6703 315.67 35.1518 326.482 38.1757 337.008C43.1273 354.245 54.5127 368.566 69.7077 377.214C78.0796 381.98 87.367 384.995 96.9157 385.643C102.09 385.994 107.086 385.357 112.216 384.803C117.279 384.257 122.369 384.004 127.423 383.363C138.678 381.934 149.646 378.247 159.876 373.285C165.261 370.672 170.326 367.465 175.623 364.68C177.748 363.564 179.184 362.166 180.998 360.612C182.796 359.072 183.294 358.952 185.339 358.952C184.739 357.291 186.49 356.779 187.269 355.728C187.226 356.238 187.182 356.747 187.138 357.256C187.732 355.923 188.285 355.936 188.797 357.295C189.302 355.773 189.676 354.209 190.287 352.725C192.622 353.948 192.425 356.855 195.548 354.732C198.119 352.986 200.483 350.925 203.104 349.213C209.075 345.313 214.223 340.238 220.211 336.382C220.211 340.138 220.467 343.925 219.982 347.661C219.521 351.214 218.239 354.534 217.22 357.936C215.34 364.21 215.21 370.916 213.127 377.128C212.265 379.7 210.021 381.852 209.377 384.356C208.721 386.911 210.236 388.958 207.696 390.635C205.905 391.818 203.666 392.317 201.682 393.032C198.657 394.124 195.784 395.664 192.839 396.97C179.025 403.096 165.55 409.335 152.751 417.572C140.604 425.388 128.272 433.461 117.114 442.743C107.43 450.8 97.6412 461.217 95.2838 474.359C92.9964 487.107 99.0911 500.79 111.329 504.989C117.691 507.171 124.885 506.901 131.511 506.996C138.641 507.098 146.197 505.319 153.208 504.032C160.611 502.673 167.887 500.547 175.312 499.333C182.436 498.168 188.97 495.566 195.977 493.963C203.44 492.254 211.095 491.327 218.6 489.791C221.978 489.099 225.288 488.078 228.676 487.438C232.385 486.737 236.135 486.474 239.807 485.545C246.931 483.744 253.752 480.839 260.907 479.163C264.124 478.409 267.291 477.399 270.51 476.695C273.472 476.046 275.78 474.323 278.75 475.739C281.148 476.882 283.062 478.842 285.332 480.208C288.277 481.98 291.381 483.567 294.451 485.091C300.62 488.154 307.017 490.272 313.467 492.571C320.241 494.987 326.894 497.742 333.913 499.338C341.108 500.973 348.449 501.428 355.693 502.722C370.531 505.371 385.243 506.56 400.304 506.656C407.917 506.706 415.529 505.772 423.124 505.882C429.848 505.98 435.694 507.548 441.842 503.849C451.666 497.939 463.061 489.035 462.82 476.103C462.6 464.389 455.811 453.198 449.443 443.96C441.71 432.741 430.683 424.84 419.877 417.102C408.359 408.854 395.422 403.156 383.318 395.956C377.127 392.275 371.417 388.313 364.695 385.697C361.486 384.449 358.356 383.001 355.184 381.656C352.632 380.575 348.948 379.977 346.764 378.182C345.401 377.062 345.27 375.366 344.911 373.701C344.114 370.016 342.862 366.521 341.647 362.967C339.304 356.105 337.746 349.117 336.739 341.92C335.779 335.059 333.648 327.924 334.751 320.952C342.012 328.22 349.472 335.206 356.901 342.281C359.685 344.933 362.416 347.64 365.215 350.275C367.316 352.254 369.943 355.193 372.872 355.78C376.612 356.53 375.245 352.249 377.813 351.585C379.382 351.18 384.116 355.307 385.357 356.122C393.222 361.29 401.931 364.564 410.582 368.082C419.653 371.77 428.981 375.046 438.743 375.974C447.759 376.833 456.978 375.731 465.679 373.189C483.006 368.126 495.756 356.115 505.114 340.544C515.776 322.802 523.534 302.018 522.906 280.838Z" fill="#A187D4"/>
<path fill-rule="evenodd" clip-rule="evenodd" d="M258.087 242.16C258.084 242.165 258.058 242.224 258.058 242.224C258.09 242.2 258.1 242.179 258.087 242.16Z" fill="#A187D4"/>
<path fill-rule="evenodd" clip-rule="evenodd" d="M258.923 242.389C258.858 241.824 258.718 241.271 258.503 240.729C257.93 241.67 257.416 242.073 258.17 243.07C258.421 242.843 258.672 242.617 258.923 242.389Z" fill="#A187D4"/>
<path fill-rule="evenodd" clip-rule="evenodd" d="M298.879 376.895C299.52 376.188 298.398 375.922 297.972 375.913C298.014 376.671 297.651 378.488 298.653 378.839C298.413 378.153 298.488 377.505 298.879 376.895Z" fill="#A187D4"/>
<path fill-rule="evenodd" clip-rule="evenodd" d="M281.953 229.05C280.85 231.254 283.287 231.938 284.697 230.873C285.758 230.073 286.385 228.032 286.56 226.723C287.123 222.487 284.259 218.455 282.831 214.696C282.462 213.725 281.957 210.393 280.768 210.301C279.403 210.196 279.302 213.265 279.284 214.057C279.231 216.444 279.842 218.876 280.558 221.13C281.329 223.56 283.241 226.476 281.953 229.05Z" fill="#A187D4"/>
<path fill-rule="evenodd" clip-rule="evenodd" d="M287.198 220.212C291.436 224.117 294.827 217.612 294.531 213.765C294.458 212.811 293.835 209.296 292.088 210.575C291.21 211.218 291.958 213.306 291.54 214.223C289.512 218.669 287.56 211.773 286.195 211.232C284.535 210.572 284.368 212.831 284.37 214.038C284.374 216.434 285.476 218.625 287.198 220.212Z" fill="#A187D4"/>
<path fill-rule="evenodd" clip-rule="evenodd" d="M271.812 220.819C272.81 219.192 274.038 217.009 274.174 215.06C274.384 212.031 272.679 212.283 271.274 214.397C270.283 215.891 269.539 218.423 267.349 217.794C264.646 217.018 265.472 213.256 263.959 211.469C260.138 216.78 267.369 228.058 271.812 220.819Z" fill="#A187D4"/>
<path fill-rule="evenodd" clip-rule="evenodd" d="M277.539 237.073C279.12 237.426 283.24 237.296 281.812 234.792C280.012 231.637 274.025 236.286 277.539 237.073Z" fill="#A187D4"/>
<path fill-rule="evenodd" clip-rule="evenodd" d="M332.906 142.999C333.195 142.108 332.798 141.946 332.108 141.243C331.455 141.867 332.291 142.524 332.906 142.999Z" fill="#A187D4"/>
<path fill-rule="evenodd" clip-rule="evenodd" d="M362.384 304.487C363.427 304.659 363.763 304.088 363.39 302.775C361.745 302.665 361.41 303.236 362.384 304.487Z" fill="#A187D4"/>
<path fill-rule="evenodd" clip-rule="evenodd" d="M305.449 166.729C306.599 167.274 306.158 168.39 306.139 169.334C306.731 168.668 307.928 167.449 307.44 166.492C306.69 165.017 304.728 166.389 305.449 166.729Z" fill="#A187D4"/>
<path fill-rule="evenodd" clip-rule="evenodd" d="M266.275 148.158C266.099 147.804 265.924 147.45 265.749 147.096C265.035 147.689 263.932 149.257 265.067 150.022C265.532 149.437 265.935 148.816 266.275 148.158Z" fill="#A187D4"/>
<path fill-rule="evenodd" clip-rule="evenodd" d="M280.073 158.568C281.505 159.729 280.818 156.165 280.775 155.874C280.563 156.292 279.351 157.981 280.073 158.568Z" fill="#A187D4"/>
<path fill-rule="evenodd" clip-rule="evenodd" d="M279.281 156.758C279.172 156.464 279.061 156.169 278.952 155.874C278.372 156.43 277.662 157.564 278.62 158.215C278.883 157.759 279.103 157.274 279.281 156.758Z" fill="#A187D4"/>
<path fill-rule="evenodd" clip-rule="evenodd" d="M288.368 168.998C288.486 169.109 288.602 169.221 288.719 169.334C289.191 168.348 288.654 167.608 287.763 167.578C287.826 168.131 288.028 168.604 288.368 168.998Z" fill="#A187D4"/>
<path fill-rule="evenodd" clip-rule="evenodd" d="M250.026 279.841C250.593 279.441 251.108 278.985 251.572 278.473C249.892 277.41 250.899 279.714 248.877 278.299C248.441 278.922 249.152 280.318 250.026 279.841Z" fill="#A187D4"/>
<path fill-rule="evenodd" clip-rule="evenodd" d="M320.618 376.498C321.257 375.483 321.373 375.513 320.5 374.742C319.772 375.997 319.848 375.674 320.618 376.498Z" fill="#A187D4"/>
<path fill-rule="evenodd" clip-rule="evenodd" d="M187.107 215.025C187.455 215.4 187.803 215.776 188.151 216.15C188.313 215.659 189.199 214.271 188.597 213.81C188.101 214.215 187.604 214.619 187.107 215.025Z" fill="#A187D4"/>
<path fill-rule="evenodd" clip-rule="evenodd" d="M199.477 218.738C198.921 218.642 197.593 218.223 197.286 218.758C198.099 219.446 199.931 218.817 199.477 218.738Z" fill="#A187D4"/>
<path d="M427.818 81.7408H523V204.869H415.921V81.7408H427.818ZM511.102 192.557V94.0537H427.818V192.557H511.102ZM439.716 106.367H499.205V118.679H439.716V106.367ZM499.205 130.992H439.716V143.305H499.205V130.992ZM439.716 155.618H481.358V167.931H439.716V155.618Z" fill="#F8D966"/>
<path d="M13.8862 47.5959H124.976V191.303H0V47.5959H13.8862ZM111.09 176.933V61.9667H13.8862V176.933H111.09ZM27.7725 76.3374H97.2036V90.7082H27.7725V76.3374ZM97.2036 105.079H27.7725V119.45H97.2036V105.079ZM27.7725 133.82H76.3743V148.191H27.7725V133.82Z" fill="#A7F6DD"/>
<path d="M237.855 0H301.042V81.7408H229.956V0H237.855ZM293.144 73.5667V8.17408H237.855V73.5667H293.144ZM245.753 16.3482H285.245V24.5222H245.753V16.3482ZM285.245 32.6963H245.753V40.8704H285.245V32.6963ZM245.753 49.0445H273.398V57.2186H245.753V49.0445Z" fill="#EB6D63"/>
</svg>
