<svg width="634" height="525" viewBox="0 0 634 525" fill="none" xmlns="http://www.w3.org/2000/svg">
<path d="M440.266 277.146H511.773V374.034H431.328V277.146H440.266ZM502.835 364.346V286.835H440.266V364.346H502.835ZM449.205 296.524H493.896V306.213H449.205V296.524ZM493.896 315.901H449.205V325.59H493.896V315.901ZM449.205 335.279H480.489V344.968H449.205V335.279Z" fill="#A7F6DD"/>
<path d="M513.332 419.099H579.019V508.101H505.121V419.099H513.332ZM570.808 499.201V427.999H513.332V499.201H570.808ZM521.543 436.899H562.597V445.799H521.543V436.899ZM562.597 454.699H521.543V463.6H562.597V454.699ZM521.543 472.5H550.281V481.4H521.543V472.5Z" fill="#EB6D63"/>
<path fill-rule="evenodd" clip-rule="evenodd" d="M158.329 183.563C160.581 186.517 162.833 189.47 165.086 192.424C171.058 184.276 177.031 176.129 183.003 167.981C180.009 166.502 177.015 165.023 174.021 163.544C171.364 162.232 171.703 162.856 170.022 165.457C166.125 171.493 162.226 177.528 158.329 183.563Z" fill="#A187D4"/>
<path fill-rule="evenodd" clip-rule="evenodd" d="M273.505 375.757C273.495 380.05 273.486 384.343 273.477 388.637C285.358 387.99 297.238 387.343 309.118 386.696C308.578 384.896 308.038 383.094 307.499 381.294C307.077 379.887 306.544 375.634 305.519 374.69C304.399 373.659 299.476 374.723 297.972 374.783C289.817 375.108 281.66 375.432 273.505 375.757Z" fill="#A187D4"/>
<path fill-rule="evenodd" clip-rule="evenodd" d="M245.202 50.7576C231.324 60.4485 217.445 70.1401 203.565 79.8318C206.63 83.7932 209.694 87.7538 212.757 91.7151C213.491 92.6644 213.622 93.2651 214.461 93.1727C215.438 93.0651 217.082 91.3704 217.895 90.8098C227.734 84.0409 237.572 77.2727 247.411 70.5045C250.387 68.456 253.364 66.4076 256.342 64.3598C252.629 59.8257 248.915 55.2917 245.202 50.7576Z" fill="#A187D4"/>
<path fill-rule="evenodd" clip-rule="evenodd" d="M567.67 202.23C567.168 197.725 565.113 193.145 563.609 188.974C561.838 184.057 559.971 179.182 558.06 174.33C556.85 171.258 556.411 172.014 553.247 172.151C549.55 172.31 545.852 172.47 542.156 172.63C545.002 184.054 547.849 195.477 550.696 206.901C551.189 208.878 551.985 216.292 553.538 217.292C554.075 217.639 555.933 217.193 556.542 217.168C558.287 217.095 560.03 217.023 561.775 216.952C564.145 216.853 566.516 216.755 568.886 216.657C568.556 211.843 568.203 207.023 567.67 202.23Z" fill="#A187D4"/>
<path fill-rule="evenodd" clip-rule="evenodd" d="M332.858 491.479C326.496 489.702 319.576 491.386 313.166 491.436C309.39 491.464 305.622 491.186 301.848 491.401C300.583 491.473 294.8 491.288 294.603 492.129C294.452 492.773 295.602 494.399 296.047 494.667C297.296 495.42 298.174 494.453 299.434 494.095C302.849 493.12 306.842 493.721 310.352 493.536C314.023 493.343 317.693 493.101 321.364 492.915C325.021 492.729 329.688 493.567 332.858 491.479ZM21.196 127.028C20.7079 125.792 20.5073 123.83 19.386 123.056C18.3474 122.339 16.1709 122.863 14.9706 122.844C12.4182 122.806 6.87661 122.915 5.20915 125.483C3.18193 128.605 9.14571 130.831 11.1347 130.772C14.5905 130.668 17.7347 127.734 21.196 127.028ZM84.7291 87.8409C84.9923 87.05 84.0691 86.5273 83.4022 86.2758C81.7051 85.6349 80.5886 86.7008 79.0951 87.503C75.324 89.528 71.2239 90.8667 67.2568 92.3296C63.803 93.603 60.5994 95.3879 57.2122 96.822C54.8112 97.8386 49.7433 97.6409 48.3608 100.206C45.6302 105.273 52.7824 101.473 54.0422 100.981C57.6584 99.572 61.5076 98.703 65.0518 97.0924C68.4638 95.5424 71.9422 93.9659 75.3185 92.2871C76.8586 91.5212 78.3905 90.8712 79.9608 90.2023C81.4303 89.5765 83.1664 88.0061 84.7291 87.8409ZM187.931 175.669C187.03 175.058 183.337 171.65 182.096 172.099C181.127 172.451 180.043 176.367 179.439 177.395C176.414 182.542 173.153 187.477 169.91 192.456C171.349 193.312 172.788 194.167 174.227 195.022C177.162 187.336 182.82 181.583 187.931 175.669ZM243.93 203.142C248.562 203.154 253.15 202.512 257.777 202.583C262.961 202.663 268.055 202.818 273.234 202.351C278.331 201.889 283.408 201.867 288.504 201.524C290.107 201.417 299.033 200.664 293.804 197.842C292.045 196.893 289.929 198.076 288.018 198.502C285.804 198.996 283.57 199.181 281.332 199.479C279.199 199.763 276.935 200.547 274.783 200.489C272.526 200.428 270.832 199.983 268.563 200.343C263.861 201.092 259.178 200.673 254.477 200.191C251.236 199.858 244.121 197.844 243.93 203.142ZM369.981 494.662C372.963 492.004 377.678 493.155 381.22 492.308C385.131 491.372 382.051 486.79 380.551 484.351C378.988 481.807 376.634 476.723 374.005 480.488C371.259 484.421 370.936 489.967 369.981 494.662ZM276.139 379.198C276.039 381.587 274.97 384.045 277.217 384.865C279.374 385.651 283.077 384.456 285.312 384.243C288.225 383.964 291.092 383.433 293.996 383.101C295.293 382.954 296.595 382.844 297.899 382.976C298.797 383.066 300.961 384.144 301.763 383.698C302.749 383.15 303.227 380.195 302.421 379.055C301.549 377.82 296.277 379.045 294.391 379.203C288.247 379.717 282.257 378.895 276.139 379.198ZM275.763 371.536C278.592 370.248 281.952 370.851 284.931 370.833C288.436 370.813 291.9 371.024 295.397 371.276C296.944 371.387 301.457 372.654 302.755 371.56C303.438 370.985 303.683 366.054 303.105 365.299C302.16 364.064 299.197 365.55 297.983 365.751C294.731 366.284 291.413 366.27 288.133 366.237C285.062 366.207 281.983 366.056 278.914 366.048C275.278 366.039 275.77 368.092 275.763 371.536ZM178.446 169.404C177.29 168.663 173.497 165.26 172.08 165.777C170.874 166.216 169.594 170.278 168.874 171.554C167.502 173.986 166.053 176.37 164.632 178.767C163.723 180.299 161.3 183.068 161.714 185.139C161.934 186.242 163.952 188.148 164.971 187.813C166.022 187.468 167.754 183.145 168.338 182.292C171.496 177.681 175.464 174.211 178.446 169.404ZM546.289 174.397C550.337 183.167 550.858 193.084 553.052 202.497C553.563 204.688 554.349 206.85 554.782 209.054C555.024 210.282 554.579 212.386 555.201 213.43C556.758 216.047 563.96 215.216 565.514 212.913C566.426 211.56 565.717 210.157 565.329 208.752C564.804 206.855 565.056 205.203 564.751 203.31C564.143 199.515 561.05 195.686 559.581 192.183C557.978 188.357 557.241 183.754 554.945 180.336C553.408 178.05 549.096 173.331 546.289 174.397ZM282.318 516.518C287.736 515.73 296.256 513.951 295.972 505.904C295.69 497.906 286.203 496.486 280.922 495.784C279.375 495.579 279.206 495.48 277.635 496.517C276.555 497.23 275.48 497.992 274.473 498.822C272.512 500.441 270.29 502.645 269.872 505.468C268.81 512.639 277.565 515.882 282.318 516.518ZM251.356 62.172C253.814 62.4599 250.544 59.8197 249.925 59.5C248.044 58.5303 245.955 58.7061 243.958 59.075C239.128 59.9674 234.852 64.45 230.724 67.222C226.353 70.1561 222.038 73.4743 217.48 76.0349C215.397 77.2068 213.674 78.2008 211.942 79.9485C211.06 80.8394 210.754 81.4576 209.567 81.4568C208.909 81.4568 207.443 79.7576 206.742 80.7409C204.787 83.4849 214.637 84.3727 215.666 84.1871C220.801 83.2583 225.257 81.1046 229.664 78.1833C234.163 75.2023 238.941 72.7818 243.464 69.8796C245.418 68.6243 247.091 66.9606 248.874 65.4697C249.129 65.2561 249.591 64.5364 249.849 64.2629C250.263 64.3977 250.61 64.2788 250.889 63.9068C251.035 63.325 251.189 62.7462 251.356 62.172ZM350.709 491.554C345.714 493.514 337.548 495.039 335.204 501.516C332.549 508.853 344.482 514.084 349.165 514.482C354.085 514.9 362.828 512.699 363.513 505.938C363.907 502.046 361.115 499.562 358.507 497.621C355.841 495.636 352.035 495.211 350.709 491.554ZM31.071 82.922C27.5399 83.3705 25.14 83.7553 22.3272 86.2879C19.9933 88.3902 18.0704 90.5136 17.1194 93.7568C14.9206 101.252 20.3549 107.686 27.3356 106.814C28.1052 106.717 28.8568 106.403 29.6381 106.489C30.3558 106.57 30.8575 107.139 31.4641 107.253C32.894 107.521 33.171 107.244 34.3442 106.014C36.737 103.505 39.1394 100.748 40.465 97.3614C43.6569 89.2061 38.8563 83.0682 31.071 82.922ZM111.352 67.3023C111.694 58.8621 100.07 57.475 94.71 58.1167C88.6236 58.8462 78.6393 65.6758 80.9567 74.0553C82.9971 81.4303 94.5064 80.8682 99.4804 79.3689C100.545 79.0485 102.199 78.3523 103.246 78.5879C104.819 78.9402 104.895 80.3712 106.378 79.0758C107.309 78.2614 108.151 75.8894 108.808 74.7212C110.119 72.394 110.796 69.9667 111.352 67.3023ZM274.738 413.923C274.578 415.729 273.953 418.054 275.713 418.914C276.801 419.445 279.819 418.863 280.911 418.905C285.472 419.085 290.153 418.684 294.685 419.085C296.025 419.203 300.031 420.706 301.223 419.698C302.389 418.713 301.479 415.631 301.402 414.251C301.084 408.622 301.767 403.15 301.986 397.551C302.044 396.048 302.606 392.395 301.563 391.281C300.293 389.925 297.476 390.709 295.962 390.879C291.241 391.407 286.384 392.181 281.637 392.192C280.335 392.195 277.45 391.173 276.32 391.712C274.584 392.539 274.993 395.426 274.898 397.27C274.607 402.827 274.414 408.361 274.738 413.923ZM168.591 161.908C162.4 156.839 155.983 152.033 149.793 147.104C147.589 145.349 145.95 142.844 143.885 141.132C142.59 140.056 142.195 139.589 140.424 140.627C138.378 141.827 136.476 143.711 134.588 145.199C133.003 146.449 131.41 147.689 129.823 148.933C128.352 150.086 127.859 150.348 128.901 152.264C130.736 155.634 134.544 158.675 137.034 161.447C143.18 168.286 149.182 175.363 156.087 181.271C158.46 173.618 163.37 167.395 168.591 161.908ZM237.984 43.7706C227.238 39.0775 226.423 23.1866 222.664 13.0575C221.5 19.9917 224.588 31.2612 219.375 36.7068C216.169 40.0553 214.312 35.3295 212.591 32.7572C209.969 28.8405 207.156 25.0959 204.653 21.0794C205.421 25.9248 207.623 31.3629 207.212 36.2902C206.888 40.1584 204.651 45.4572 201.395 41.0707C199.16 38.0581 196.297 35.24 193.69 32.5681C190.556 29.356 186.979 27.2809 183.572 24.5414C184.892 31.7876 187.406 38.2199 191.114 44.3524C193.016 47.4993 195.098 50.5212 196.894 53.7455C198.361 56.3811 199.053 59.6591 200.998 61.8985C202.814 63.9902 205.485 65.6599 207.66 67.2667C210.757 69.5546 211.5 68.9038 214.347 66.7296C219.86 62.522 225.846 59.153 231.394 54.9985C230.367 53.4977 228.727 52.0152 228.781 49.972C228.824 48.3182 229.969 46.8127 231.502 47.0106C232.703 47.1659 233.259 48.5568 234.595 48.0871C235.725 47.6902 237.27 44.7082 237.984 43.7706ZM608.027 170.32C603.047 170.969 598.398 172.93 593.294 172.573C591.229 172.428 589.686 172.849 588.779 170.558C588.055 168.727 588.796 165.945 586.52 165.447C584.833 165.078 582.745 166.81 581.499 167.789C579.258 169.551 577.272 171.114 574.736 172.358C570.238 174.563 565.673 176.48 560.757 176.721C561.947 180.713 563.199 184.711 564.846 188.505C566.424 192.142 567.978 195.236 568.447 199.286C568.648 201.02 568.648 202.91 570.187 203.672C571.698 204.42 574.39 203.804 576.026 203.836C579.77 203.91 583.516 204.007 587.261 204.017C590.115 204.023 592.953 204.774 595.732 204.731C599.186 204.676 603.095 203.016 606.464 202.228C612.848 200.736 621.781 199.81 626.868 194.997C622.159 194.178 617.362 194.736 612.737 195.857C610.619 196.371 605.761 199.045 604.342 196.367C602.651 193.177 605.96 188.773 608.295 187.291C610.93 185.617 614.861 185.798 616.718 182.782C613.211 183.109 609.516 183.252 606.125 184.392C603.527 185.266 600.174 187.755 599.146 183.445C597.48 176.463 603.683 173.152 608.027 170.32ZM236.375 230.095C237.255 220.852 238.87 211.512 239.013 202.207C239.074 198.187 234.964 198.906 232.089 197.764C227.908 196.104 223.81 194.139 219.704 192.266C215.612 190.398 211.498 188.598 207.391 186.77C203.663 185.111 200.086 182.601 196.327 181.126C194.281 180.323 194.122 181.107 192.935 183.182C191.78 185.201 190.567 187.177 189.311 189.12C186.674 193.202 183.85 197.133 180.963 201.001C189.648 206.781 198.713 212.121 207.674 217.358C216.818 222.704 226.766 225.939 236.375 230.095ZM421.885 195.033C426.479 195.045 430.952 194.315 435.526 194.16C440.047 194.007 444.419 194.226 448.903 194.356C453.209 194.48 457.431 195.445 461.726 195.67C462.771 195.725 463.856 195.72 464.895 195.848C465.94 195.977 466.559 196.406 467.528 196.588C469.911 197.035 472.23 196.402 474.634 196.545C483.495 197.067 492.227 199.08 501.092 199.589C510.204 200.114 519.098 200.896 528.169 202.104C532.963 202.742 537.765 203.117 542.581 203.491C543.568 203.567 545.683 204.255 546.224 203.009C546.882 201.497 544.653 196.33 544.241 194.729C543.709 192.648 543.27 190.52 542.554 188.502C542.134 187.323 541.25 183.473 540.4 182.725C539.213 181.682 537.441 182.684 536.057 182.905C533.252 183.353 530.4 183.62 527.579 183.927C523.403 184.384 519.224 185.474 515.051 185.613C510.341 185.768 505.654 185.545 500.949 185.352C491.525 184.961 481.875 185.163 472.5 184.099C461.667 182.869 450.784 182.37 439.925 181.467C437.352 181.252 434.77 181.198 432.194 181.027C430.352 180.905 426.589 179.476 424.867 180.139C423.117 180.813 423.449 183.101 423.251 184.88C422.873 188.274 422.384 191.658 421.885 195.033ZM309.084 289.223C302.548 290.334 296.134 290.769 289.526 290.979C286.611 291.071 283.715 291.226 280.812 291.548C278.385 291.818 277.024 291.936 276.935 294.873C276.539 307.757 275.906 320.501 275.547 333.39C275.344 340.667 275.578 347.953 275.555 355.233C275.546 357.995 275.034 359.987 277.781 360.31C281.119 360.701 284.621 360.187 287.979 360.222C291.07 360.255 294.162 360.339 297.252 360.414C299.237 360.461 302.916 361.552 303.583 358.896C303.795 358.046 303.412 356.554 303.432 355.615C303.469 353.867 303.665 352.101 303.76 350.354C303.979 346.345 304.138 342.332 304.358 338.323C305.26 321.897 307.683 305.606 309.084 289.223ZM234.236 84.7341C238.548 88.3902 243.452 90.9061 248.061 94.1038C250.271 95.6371 252.404 97.2818 254.569 98.8887C256.796 100.542 259.383 101.545 261.488 103.381C265.56 106.937 270.599 109.202 275.073 112.287C279.619 115.423 284.151 118.563 288.8 121.508C290.857 122.812 293.107 123.595 295.217 124.771C297.746 126.181 300.04 128.028 302.604 129.375C308.092 132.261 313.573 135.148 319.038 138.089C329.766 143.861 340.762 149.195 351.713 154.425C354.048 155.539 356.501 156.029 358.96 156.687C360.122 156.998 361.595 157.159 362.642 157.777C362.967 157.969 363.312 157.996 363.571 158.319C364.065 158.939 363.646 159.806 363.95 160.267C365.655 162.847 370.391 155.596 371.493 153.839C373.194 151.124 372.503 150.685 369.877 149.558C367.228 148.422 364.554 147.351 361.933 146.137C357.106 143.901 352.169 141.37 347.557 138.631C342.76 135.781 337.765 133.428 333.019 130.455C327.695 127.122 322.413 123.72 317.03 120.505C307.946 115.08 299.602 108.239 290.778 102.351C285.905 99.1 281.325 95.2311 276.61 91.6515C272.009 88.1583 267.649 84.2576 262.95 80.994C260.366 79.1985 257.678 77.7045 255.263 75.6311C253.457 74.0818 251.656 72.4917 249.394 73.7924C246.948 75.1977 244.64 77.5606 242.265 79.1924C239.586 81.0349 236.912 82.8864 234.236 84.7341ZM434.399 145.198C433.001 144.389 427.862 142.228 430.274 139.58C431.991 137.696 436.05 140.2 437.714 140.823C437.679 138.218 437.683 136.421 436.925 133.938C436.163 131.442 436.374 129.555 438.231 127.664C439.08 126.798 442.161 126.052 442.518 124.917C443.074 123.154 440.31 123.714 439.367 123.467C434.382 122.164 434.683 116.388 434.559 111.966C434.413 106.767 433.313 101.767 429.678 98.3886C428.036 96.8621 427.443 96.8599 425.42 97.8621C424.674 98.2311 424.003 98.8258 423.181 98.9894C422.018 99.2205 421.238 98.3826 420.203 98.4394C418.599 98.5273 416.962 101.46 415.4 102.397C413.378 103.611 411.388 103.248 409.39 104.117C407.613 104.889 405.895 106.984 404.238 108.098C401.98 109.616 402.494 111.105 402.639 114.086C402.759 116.573 402.687 118.205 400.473 119.128C399.76 119.426 398.505 119.292 397.898 119.77C397 120.477 397.486 121.008 397.198 122.191C396.465 125.181 394.913 123.356 392.933 122.957C390.52 122.47 387.863 124.352 389.123 127.214C389.573 128.238 390.542 129.17 391.51 129.489C392.656 129.866 394.087 128.829 395.144 129.297C397.839 130.491 395.685 133.32 395.813 135.247C397.449 134.266 398.005 131.453 399.697 134.571C400.918 136.824 400.432 140.248 400.129 142.708C399.425 148.4 397.846 155.373 394.496 159.939C394.013 160.596 393.293 161.832 392.386 161.676C391.632 161.547 391.541 160.465 390.889 160.189C389.491 159.593 387.348 160.475 386.812 161.907C385.907 164.327 386.001 167.877 385.93 170.438C385.847 173.386 385.534 176.721 386.181 179.613C387.286 184.551 391.443 186.271 395.486 187.362C397.739 187.969 400.21 188.678 402.491 187.824C404.979 186.893 406.689 184.395 408.443 182.378C409.762 180.862 412.32 179.137 412.492 176.944C412.573 175.918 411.912 174.503 411.762 173.452C411.523 171.784 411.456 170.098 411.495 168.41C411.569 165.31 412.354 162.158 412.115 159.057C411.868 155.885 409.735 155.657 408.574 153.214C407.881 151.756 407.719 149.486 409.402 148.99C410.381 148.702 412.213 149.523 413.273 149.606C414.89 149.733 416.527 149.761 418.148 149.779C421.136 149.813 423.387 149.643 426.091 148.205C428.874 146.727 431.36 145.804 434.399 145.198ZM365.131 492.698C365.243 489.995 365.584 487.291 366.341 484.71C366.985 482.516 368.367 480.595 368.6 478.329C369.085 473.598 367.666 469.154 363.541 467.448C359.54 465.792 355.207 465.819 351.03 466.129C348.605 466.31 346.55 465.392 344.17 465.514C341.665 465.642 339.455 465.262 336.967 464.97C332.346 464.427 328.409 462.179 323.921 461.227C321.725 460.762 320.966 461.798 319.622 463.506C318.142 465.387 316.475 466.97 314.599 468.351C311.716 470.476 306.558 474.378 306.283 467.793C306.052 462.266 311.06 458.171 314.153 454.592C311.02 453.12 311.288 447.655 307.648 449.854C306.068 450.809 304.821 452.22 303.362 453.365C302.134 454.329 299.315 457.011 297.7 456.802C295.42 456.508 295.176 452.926 295.518 450.939C296.138 447.33 299.551 445.253 301.974 443.133C303.437 441.852 305.627 440.844 306.871 439.34C308.193 437.741 307.899 435.949 307.855 433.94C307.835 433.026 308.455 429.582 308.118 428.792C307.599 427.575 305.802 427.897 304.521 427.771C302.144 427.536 299.785 427.076 297.417 426.828C295.561 426.634 293.777 427.097 291.92 427.172C287.228 427.361 282.482 427.092 277.784 427.077C276.931 427.074 273.36 426.4 272.766 427.215C272.253 427.917 272.741 431.174 272.739 432.016C272.723 437.242 272.739 442.461 272.88 447.684C273.157 457.992 272.845 468.575 270.93 478.706C270.584 480.542 269.492 482.576 271.175 483.479C272.47 484.174 275.926 483.094 277.338 482.992C281.916 482.661 286.545 482.987 291.099 482.62C299.027 481.979 307.226 482.567 315.313 482.775C326.071 483.052 336.768 484.338 347.522 484.642C352.197 484.775 356.952 483.832 361.566 483.988C363.379 484.049 363.893 484.557 363.995 486.704C364.116 489.258 363.112 490.627 365.131 492.698ZM139.394 128.203C135.262 120.488 131.367 112.62 127.239 104.902C125.374 101.417 123.28 98.1045 121.199 94.7765C120.132 93.0712 118.953 91.3485 118.139 89.4705C117.391 87.7515 117.169 85.7743 116.289 84.1243C114.626 88.1894 111.055 90.4197 107.317 91.875C104.413 93.0053 101.58 94.625 98.5503 95.3227C90.6257 97.15 82.7867 101.086 75.0108 103.94C58.4987 109.999 40.8488 113.327 24.9518 121.199C30.3761 127.134 28.6908 139.789 37.7418 141.702C41.343 142.464 45.1038 141.239 48.55 140.19C52.9016 138.864 57.2567 137.549 61.6131 136.239C66.3397 134.815 71.1135 133.71 75.8785 132.467C78.2719 131.843 80.6804 131.41 83.0787 130.848C85.0759 130.379 85.0999 129.92 86.1465 127.84C87.9169 124.324 91.2 120.728 93.9773 125.367C95.1082 127.256 94.8683 129.627 95.8594 131.5C96.7059 133.099 98.5161 133.929 99.7889 135.009C100.672 132.254 101.726 128.521 103.678 126.405C105.807 124.095 107.922 125.953 108.688 128.667C109.609 131.929 108.252 135.898 107.658 139.108C107.368 140.677 106.818 142.479 107.151 144.088C107.594 146.226 109.279 148.43 110.283 150.285C119.668 142.553 129.256 134.658 139.394 128.203ZM322.869 258.098C320.121 253.981 317.216 250.333 315.154 245.72C312.949 240.79 311.165 235.48 308.814 230.676C306.478 225.905 304.329 221.043 302.197 216.145C300.709 212.726 299.016 204.517 294.754 204.723C292.626 204.826 290.455 205.673 288.314 205.905C285.804 206.179 283.283 206.163 280.776 206.501C275.277 207.245 269.924 208.574 264.375 208.934C259.606 209.244 254.775 209.402 250 209.173C248.699 209.111 245.311 207.99 244.105 208.632C242.699 209.38 243.169 212.299 243.05 213.793C242.601 219.412 241.915 225.036 241.142 230.61C241.01 231.561 239.681 236.311 240.276 237.114C241.193 238.352 245.135 237.524 246.42 237.634C251.492 238.065 256.475 239.345 261.527 239.965C264.089 240.279 266.654 240.351 269.231 240.361C271.734 240.371 275.386 239.608 277.76 240.555C279.287 241.165 280.153 242.599 279.66 244.426C279.117 246.439 277.35 246.889 275.711 247.267C274.51 247.542 271.024 247.389 270.268 248.61C269.449 249.932 270.883 252.423 271.288 253.676C272.063 256.08 271.623 257.111 271.566 259.462C271.504 261.936 272.8 264.113 272.628 266.614C272.459 269.06 272.367 271.012 272.582 273.505C272.772 275.695 272.64 278.095 272.918 280.222C273.562 285.146 283.194 282.167 286.183 282.094C292.362 281.941 298.566 283.045 304.722 282.719C306.532 282.622 310.731 282.986 312.008 281.286C313.303 279.564 313.509 275.636 314.343 273.506C316.523 267.939 319.772 263.06 322.869 258.098ZM377.887 148.503C377.436 154.216 377.185 158.617 374.09 163.424C370.786 168.558 366.985 168.098 361.767 168.662C357.084 169.169 353.409 170.88 349.647 173.94C345.223 177.539 340.451 180.528 335.736 183.626C326.767 189.52 316.07 191.149 305.885 192.901C303.324 193.342 298.597 194.608 301.61 197.963C304.849 201.57 306.663 206.892 308.84 211.404C313.83 221.75 317.655 232.863 323.347 242.771C325.646 246.774 328.397 251.605 331.926 254.431C335.276 257.113 342.002 252.132 345.412 250.484C349.845 248.342 354.496 246.717 358.672 244.075C362.567 241.61 366.531 239.483 370.625 237.455C374.645 235.461 378.538 233.477 382.749 232.023C387.703 230.311 392.938 229.704 397.97 228.213C403.134 226.684 407.208 225.063 411.38 221.28C413.319 219.523 415.682 217.766 416.463 214.989C417.262 212.148 416.673 208.524 416.552 205.611C416.425 202.566 415.997 199.447 416.053 196.401C416.11 193.33 417.472 190.92 418.295 188.067C419.594 183.564 421.071 175.401 416.959 172.369C416.669 177.179 415.134 181.495 413.697 186.008C412.312 190.354 410.039 193.012 406.64 195.546C405.347 196.51 403.948 197.852 402.417 198.29C400.794 198.755 398.521 198.517 396.834 198.537C393.037 198.581 388.924 197.482 386 194.654C380.082 188.927 378.79 178.664 379.362 170.523C379.691 165.842 380.389 161.124 382.331 156.9C382.998 155.447 384.326 153.897 383.585 152.196C382.809 150.415 379.337 149.337 377.887 148.503ZM261.111 248.265C254.131 247.258 246.86 246.438 240.08 244.261C237.613 243.468 234.637 242.465 234.611 239.195C234.603 238.191 235.283 236.378 234.891 235.434C234.49 234.467 231.991 234.401 230.834 234.147C217.385 231.199 204.894 225.437 192.888 218.221C180.746 210.923 169.53 202.311 158.073 193.805C146.895 185.508 137.607 175.373 128.315 164.717C127.025 163.236 125.701 161.794 124.367 160.36C123.395 159.313 122.044 157.181 120.766 156.613C118.468 155.592 115.254 159.461 113.223 160.612C110.579 162.111 107.426 162.337 105.682 159.18C104.53 157.094 105.601 156.713 105.766 154.75C105.902 153.136 104.903 152.222 104.024 151.098C103.346 152.867 102.445 156.102 100.138 155.7C98.0644 155.339 97.8368 152.18 97.6895 150.38C97.5167 148.28 98.1089 145.612 96.8231 143.913C95.8121 142.576 93.8361 141.598 92.5414 142.81C89.9368 145.246 91.6264 152.503 87.9505 154.312C82.7682 156.861 83.2733 145.227 83.1637 142.901C71.5611 144.319 60.6563 149.92 49.0414 151.754C44.3142 152.5 38.8543 152.255 34.7286 149.273C30.9352 146.531 26.9956 140.498 25.3738 135.868C21.4829 139.056 17.415 141.5 12.4189 140.078C7.34008 138.632 2.87219 135.517 1.00604 129.875C-0.867517 124.212 -0.325705 119.899 4.35136 116.703C6.26502 115.395 7.77819 114.754 9.88437 114.122C12.2165 113.423 15.1706 112.917 17.3724 111.809C15.1021 108.142 12.5195 104.551 11.4877 100.17C10.3238 95.2288 10.9045 89.6697 12.7095 84.9977C15.9722 76.5538 25.1437 70.9046 33.4049 72.8341C40.6144 74.5182 45.7165 81.4167 47.7638 88.9621C48.6946 92.3924 47.8776 94.5136 51.6741 92.6583C55.9853 90.55 59.7578 87.4485 64.2108 85.5886C68.0745 83.9743 72.287 82.6182 75.8662 80.3008C77.7188 79.1015 77.6318 78.9985 76.8764 76.7977C75.9388 74.0644 75.359 71.5197 75.568 68.5493C76.1664 60.0447 82.5351 54.0159 89.3501 51.2174C97.0767 48.0455 106.657 49.2985 112.447 56.1538C115.26 59.4849 117.18 63.8621 117.425 68.4455C117.535 70.4773 116.439 73.5652 117.05 75.4386C117.582 77.0682 120.099 78.3182 121.07 79.8758C122.611 82.3493 123.324 85.3091 124.853 87.825C126.179 90.003 127.522 92.1636 128.795 94.3811C131.89 99.7636 134.79 105.279 137.319 111.014C138.476 113.637 139.562 116.298 140.622 118.972C141.35 120.805 141.951 124.155 143.26 125.615C144.583 127.092 146.555 126.619 147.69 128.488C149.12 130.841 147.762 132.921 146.628 134.971C155.248 137.762 160.54 145.829 167.438 151.741C174.401 157.708 182.044 162.875 189.53 167.992C197.321 173.317 204.971 178.394 213.454 182.264C221.359 185.871 228.999 190.122 236.882 193.774C237.986 194.286 238.847 194.965 239.941 194.17C240.952 193.434 241.154 191.061 242.211 190.1C244.887 187.664 251.183 189.015 254.368 188.96C258.963 188.881 263.623 188.594 268.214 188.856C269.768 188.945 271.27 189.63 272.792 189.402C275.126 189.055 277.305 188.529 279.733 188.42C281.754 188.329 283.772 188.164 285.797 188.244C286.757 188.282 288.38 188.737 289.241 188.015C290.315 187.116 289.668 184.957 290.401 183.648C290.877 182.799 291.818 182.567 292.278 181.898C292.219 181.983 293.011 180.473 292.791 180.665C294.207 179.431 298.165 179.058 299.837 179.498C300.32 179.624 300.399 180.523 301.007 180.525C301.612 180.527 301.659 179.851 302.086 179.689C302.53 179.52 302.65 178.841 303.243 178.738C303.9 178.623 304.74 179.439 305.451 179.485C306.251 179.536 307.016 178.949 307.76 178.72C308.75 178.417 309.514 178.639 310.339 178.532C311.842 178.335 313.459 178.148 315.021 177.945C317.293 177.652 319.507 176.867 321.723 176.272C322.694 176.01 323.666 175.705 324.668 175.622C325.825 175.524 327.33 176.127 328.422 175.842C329.356 175.598 328.596 175.23 329.405 174.92C330.28 174.584 331.226 174.492 332.114 174.153C334.152 173.373 336.033 172.077 337.864 170.842C342.13 167.964 345.947 164.377 350.164 161.422C349.201 159.873 345.617 159.611 344.101 159.064C342.014 158.31 339.966 157.427 337.925 156.536C333.284 154.511 328.677 152.388 324.072 150.267C315.337 146.245 306.551 142.364 298.202 137.428C290.359 132.792 281.983 129.18 274.206 124.378C270.25 121.935 266.289 119.364 262.443 116.714C258.86 114.246 255.004 112.564 251.292 110.307C244.041 105.898 237.381 100.412 230.102 96.097C228.383 95.078 226.474 92.9205 224.62 92.3659C223.025 91.8894 221.407 92.8727 219.966 93.5621C218.44 94.2924 217.008 95.4917 215.294 95.5326C213.408 95.578 211.249 94.4546 209.469 93.7735C206.161 92.5091 203.288 89.0038 202.085 85.353C201.498 83.5682 201.225 81.5856 201.008 79.7076C200.751 77.4818 201.431 74.8652 200.94 72.7485C200.007 68.7227 195.698 64.9424 193.288 62.0546C190.295 58.469 187.702 54.4561 185.339 50.3432C180.059 41.1472 176.395 30.2396 179.338 19.416C179.787 17.7663 180.587 15.0404 181.908 13.9425C183.741 12.417 184.526 14.1971 186.112 15.0814C188.082 16.1801 189.951 16.8199 191.798 18.3126C194.036 20.1214 195.878 22.3276 197.941 24.3509C197.952 19.6789 197.294 15.5833 198.206 10.9045C198.674 8.50298 199.722 3.50738 202.487 3.07927C205.354 2.63473 207.41 8.37874 208.657 10.4743C210.977 14.3685 213.57 18.0224 216.151 21.7049C216.487 15.9916 215.801 2.40942 222.299 0.162152C228.121 -1.85217 231.132 15.4925 232.542 19.3737C233.858 22.9948 235.705 26.5721 237.703 29.789C239.797 33.1594 242.08 31.4421 245.325 31.6005C248.324 31.7473 249.673 34.0409 249.64 37.2926C249.598 41.4067 246.64 44.4118 244.594 47.5159C249.023 49.8826 254.758 52.9606 257.403 57.8341C257.99 58.9137 258.394 60.153 258.43 61.4273C258.465 62.6871 257.422 64.994 257.964 66.1583C258.359 67.0099 259.695 67.3182 260.405 67.7818C261.876 68.7409 263.182 69.9818 264.635 70.9758C274.16 77.4932 283.115 85.2803 292.303 92.1606C300.6 98.3735 309.388 103.908 317.779 110.117C328.45 118.011 339.67 124.729 351.092 131.219C353.726 132.717 356.17 134.38 358.698 136.055C361.293 137.775 364.39 138.936 367.159 140.329C369.1 141.304 371.216 143.16 373.253 143.767C375.677 144.491 376.697 141.648 379.521 142.386C381.959 143.021 384.615 143.302 386.079 145.727C387.361 147.852 387.242 151.104 389.307 152.478C391.703 154.07 392.375 152.363 392.929 150.152C393.558 147.635 395.338 144.758 393.154 142.946C391.092 141.235 388.17 141.046 385.756 140.414C384.534 140.093 382.912 138.923 381.747 138.817C380.293 138.685 379.952 140.183 378.716 140.186C378.059 140.186 377.481 139.483 376.854 139.26C376.713 139.21 376.342 139.783 376.172 139.73C375.56 139.54 375.51 139.314 374.913 139.043C372.784 138.077 369.97 136.553 370.612 133.617C370.956 132.041 373.292 129.507 371.662 128.062C370.131 126.704 368.074 129.536 367.23 126.702C366.631 124.688 368.093 124.148 366.233 122.49C364.867 121.271 363.608 120.94 364.364 118.705C364.85 117.266 367.381 115.077 366.656 113.342C365.628 110.886 361.72 113.369 362.097 108.931C362.366 105.753 365.982 103.458 366.006 100.331C366.023 98.0924 364.102 98.1083 363.603 96.6538C363.11 95.2167 363.56 95.222 364.281 94.2129C364.815 93.4629 365.163 93.2136 365.562 92.3303C366.048 91.2561 366.886 89.8652 366.571 88.6159C366.287 87.4924 365.098 86.825 364.799 85.5803C363.671 80.8932 372.629 70.2432 374.911 76.697C376.606 74.5303 378.827 69.9939 381.821 70.3576C383.632 70.5773 382.858 71.1485 383.487 72.3046C383.943 73.1432 385.208 73.5697 385.567 74.4773C386.277 72.0409 385.523 67.5258 387.497 65.7379C389.419 63.9955 390.628 67.0614 391.445 68.7674C391.972 67.1576 392.31 64.1371 394.125 63.5599C396.067 62.9432 397.279 65.6288 398.225 66.9962C399.244 65.3962 401.154 60.6788 403.355 61.2538C405.005 61.6849 405.822 64.7311 406.594 66.1371C408.4 64.8258 411.247 61.6682 413.585 62.0023C415.862 62.3265 415.661 64.6864 418.325 63.7212C420.256 63.0205 422.263 61.1599 424.313 61.0205C426.474 60.8735 427.617 62.5477 430.017 62.1417C432.565 61.7106 432.954 61.0553 434.615 63.3546C435.435 64.4894 435.217 64.9871 436.64 65.2243C437.843 65.4258 438.897 64.547 440.158 65.1008C441.091 65.5099 441.743 66.4652 442.134 67.447C442.595 68.6068 442.06 70.6159 442.521 71.5288C443.407 73.2833 446.757 71.7349 448.261 72.9538C450.289 74.5985 448.379 77.0955 449.459 78.9182C450.326 80.3811 452.769 80.0083 453.742 81.9833C454.623 83.772 454.416 86.1356 453.394 87.7932C452.965 88.4894 451.758 89.0667 451.474 89.697C450.891 90.997 451.381 90.8455 451.72 92.1742C452.369 94.7152 451.849 95.6743 450.078 97.4129C449.052 98.4182 448.838 98.1296 448.77 99.6576C448.717 100.837 449.625 101.93 449.457 103.25C449.182 105.394 447.274 106.742 446.7 108.849C445.96 111.562 443.938 113.047 442.415 115.28C444.216 116.481 446.583 117.477 447.457 119.731C448.411 122.191 448.235 125.692 447.559 128.186C446.91 130.578 445.521 132.104 444.186 134.002C442.561 136.312 442.699 138.145 442.598 140.964C442.386 146.927 440.071 152.34 434.781 154.234C432.683 154.985 430.788 156.09 428.658 156.79C426.055 157.648 424.149 157.717 421.448 157.548C419.759 157.442 417.782 157.039 417.195 159.017C416.901 160.006 417.008 163.855 417.409 164.733C418.095 166.236 420.04 166.036 421.212 167.337C423.325 169.682 422.727 171.68 426.293 171.735C437.847 171.913 449.363 170.927 460.917 171.852C466.614 172.308 472.189 173.396 477.909 173.717C484.205 174.068 490.516 174.186 496.806 174.608C502.745 175.007 508.555 175.867 514.524 175.527C520.099 175.209 525.454 174.786 531.006 174.106C532.905 173.873 535.848 174.208 537.19 172.602C537.934 171.712 538.105 170.186 538.847 169.206C539.533 168.302 540.463 167.647 541.305 166.941C543.345 165.229 545.269 163.689 547.962 163.745C550.32 163.795 552.201 165.679 554.124 167.064C556.355 168.672 557.279 169.411 559.924 168.787C562.562 168.167 564.98 167.015 567.553 166.168C572.98 164.383 578.066 161.814 583.01 158.768C585.445 157.267 587.161 156.258 589.965 157.162C592.84 158.088 593.658 158.999 593.693 162.299C593.703 163.347 593.342 165.209 594.432 165.814C595.222 166.253 596.963 165.028 597.634 164.706C600.6 163.283 603.512 161.802 606.613 160.763C609.443 159.814 612.308 158.973 615.149 158.068C617.526 157.31 620.696 156.213 623.064 157.623C629.047 161.186 620.243 170.24 617.957 173.252C620.808 172.497 626.927 172.928 628.426 176.31C630.201 180.313 626.644 184.282 624.636 187.192C627.448 188.607 633.125 187.389 633.918 191.846C634.583 195.588 631.062 199.356 628.768 201.545C622.827 207.21 613.615 211.176 605.77 211.251C603.779 211.27 601.839 210.841 599.86 210.736C598.411 210.661 597.104 211.214 595.696 211.217C593.713 211.219 591.953 210.788 589.906 211.098C587.548 211.454 585.209 211.892 582.839 212.186C580.641 212.46 578.442 212.709 576.236 212.898C574.783 213.025 572.59 212.67 571.24 213.21C569.492 213.908 570.002 214.605 569.86 216.463C569.685 218.745 568.64 220.807 567.119 222.328C561.594 227.855 552.186 226.528 549.409 218.415C548.733 216.442 549.631 215.411 549.376 213.633C549.12 211.842 547.614 211.903 546.139 211.783C541.649 211.415 537.101 211.381 532.593 211.037C523.866 210.373 514.877 209.02 506.153 209.25C497.049 209.489 487.888 208.884 478.793 208.338C474.55 208.083 470.154 206.438 465.978 206.793C461.541 207.169 456.83 206.113 452.37 205.601C442.4 204.455 431.271 204.123 422.059 199.545C422.787 210.583 423.997 221.79 415.893 230.023C412.498 233.473 408.231 237.424 403.778 238.895C398.039 240.791 392.538 242.362 386.697 243.769C375.837 246.385 365.047 252.645 355.249 258.269C350.641 260.914 345.233 261.945 340.237 263.428C337.858 264.135 335.176 265.066 332.681 264.967C330.221 264.87 328.515 263.023 326.344 261.92C324.267 267.329 321.463 272.28 319.373 277.617C318.337 280.266 317.52 283.081 316.312 285.642C315.391 287.595 313.901 288.644 313.76 290.908C313.417 296.403 314.327 302.136 314.083 307.693C313.817 313.754 312.965 319.906 312.463 325.975C311.376 339.089 311.883 352.294 311.002 365.426C310.197 377.423 310.7 389.327 309.495 401.335C309.162 404.667 308.791 407.997 308.55 411.341C308.391 413.535 307.293 418.586 308.328 420.553C308.78 421.413 309.867 421.505 310.594 421.936C311.729 422.608 312.76 423.637 313.608 424.708C315.398 426.967 315.825 429.659 316.233 432.539C318.55 431.161 328.261 424.093 326.807 431.834C326.356 434.235 324.386 435.529 322.831 437.061C321.692 438.183 320.605 439.374 319.392 440.403C318.574 441.097 316.842 441.958 316.447 443.091C315.742 445.117 319.383 448.009 321.101 447.986C323.515 447.956 326.527 443.953 328.572 442.677C334 439.289 333.51 446.606 331.463 449.786C329.919 452.186 331.225 452.001 333.349 452.489C336.668 453.251 339.734 453.901 343.108 454.366C349.557 455.255 355.903 454.107 362.303 455.752C368.674 457.392 372.462 461.786 373.39 469.032C373.881 472.861 374.342 470.939 377.249 471.836C379.935 472.667 381.452 476.061 382.998 478.362C386.084 482.954 391.853 494.523 387.127 499.938C385.12 502.237 380.246 501.653 377.605 502.046C375.905 502.298 373.859 503.174 372.144 502.72C370.514 502.289 369.43 500.677 368.254 499.495C368.238 506.764 368.198 513.077 362.988 518.325C358.784 522.561 353.161 524.504 347.523 524.076C341.998 523.656 336.324 521.171 332.823 516.262C330.975 513.672 329.66 510.495 329.184 507.231C328.964 505.727 328.901 504.146 329.113 502.636C329.24 501.738 330.012 500.11 329.522 499.243C328.662 497.725 324.45 498.987 323.06 499.142C319.389 499.551 315.729 500.063 312.073 500.604C309.05 501.052 305.966 501.527 302.933 500.894C300.327 500.35 299.33 500.039 299.8 503.448C300.742 510.307 299.172 516.392 294.069 520.609C288.962 524.829 284.249 525.664 278.005 524.554C272.299 523.538 267.079 517.583 265.417 511.658C263.205 503.773 265.486 496.589 270.814 491.206C267.582 489.396 265.439 488.328 264.299 484.148C263.107 479.779 264.221 475.185 264.784 470.804C265.995 461.395 265.523 452.239 265.939 442.8C266.122 438.636 266.9 434.396 266.913 430.242C266.919 427.874 266.801 427.959 264.595 427.94C263.227 427.929 261.777 428.034 261.201 426.272C259.81 422.021 266.335 422.38 267.976 420.688C269.933 418.67 268.581 410.711 268.524 407.91C268.338 398.811 269.152 389.924 269.312 380.85C269.384 376.751 269.61 372.441 269.303 368.356C269.181 366.726 268.337 365.408 268.393 363.786C268.464 361.708 268.827 359.767 268.73 357.604C267.879 338.589 267.692 319.223 269.9 300.333C270.031 299.201 270.754 296.655 270.368 295.519C269.782 293.798 267.921 294.408 266.621 293.778C262.983 292.016 262.084 289.218 261.886 285.122C261.768 282.695 261.651 280.267 261.538 277.839C261.479 276.592 261.421 275.344 261.36 274.096C261.289 272.651 261.827 271.025 261.796 269.811C261.786 269.421 261.634 268.839 261.631 268.608C261.209 268.379 261.046 268.044 261.137 267.6C261.118 267.183 261.179 266.776 261.318 266.38C261.34 266.617 261.065 265.042 261.041 265.18C261.08 264.965 261.793 263.687 261.721 263.533C261.388 262.809 260.682 263.688 260.447 262.34C260.25 261.208 260.916 259.878 260.693 258.553C260.095 255.017 260.659 251.844 261.111 248.265Z" fill="#A187D4"/>
<path fill-rule="evenodd" clip-rule="evenodd" d="M84.0697 303.788C124.481 303.891 164.986 304.992 205.295 306.311C209.737 306.457 214.193 306.872 218.637 307.082C219.411 307.118 221.953 306.761 222.526 307.676C223.459 309.169 221.324 310.688 220.319 311.369C216.859 313.71 212.279 313.3 208.358 313.448C202.948 313.651 197.535 313.674 192.122 313.591C173.317 313.302 154.503 311.722 135.737 310.494C124.178 309.737 112.582 309.273 101.006 308.897C95.2925 308.711 89.5742 308.608 83.8607 308.4C82.3178 308.344 79.5076 308.875 79.507 306.635C79.5063 304.299 82.5899 303.914 84.0697 303.788Z" fill="#A187D4"/>
<path fill-rule="evenodd" clip-rule="evenodd" d="M132.398 328.912C160.993 330.274 189.608 331.207 218.206 332.468C220.06 332.551 224.007 331.946 224.703 334.461C225.427 337.074 222.412 339.697 220.417 340.375C217.826 341.256 214.527 340.762 211.823 340.846C208.184 340.96 204.726 340.924 201.1 340.653C187.282 339.619 173.486 338.277 159.664 337.24C151.839 336.653 144.02 335.959 136.207 335.213C134.124 335.015 127.936 335.631 126.476 333.755C125.577 332.599 126.53 330.812 127.418 329.92C128.882 328.452 130.564 328.785 132.398 328.912Z" fill="#A187D4"/>
<path fill-rule="evenodd" clip-rule="evenodd" d="M216.772 363.464C207.479 364.017 198.083 363.203 188.948 361.508C187.704 361.276 184.827 361.25 184.032 359.972C182.817 358.021 185.1 356.32 186.635 356.147C190.89 355.67 195.949 357.311 200.242 357.6C204.733 357.902 209.286 357.374 213.787 357.334C216.361 357.311 218.934 357.292 221.509 357.283C223.018 357.277 225.188 356.855 226.679 357.234C230.851 358.293 225.546 362.175 223.688 362.623C223.043 362.778 216.793 363.802 216.772 363.464Z" fill="#A187D4"/>
<path fill-rule="evenodd" clip-rule="evenodd" d="M419.559 117.061C419.62 115.856 419.337 112.81 420.686 112.239C423.318 111.125 423.144 118.265 424.169 119.27C427.934 122.956 426.919 108.756 430.506 113.336C433.42 117.057 431.08 126.023 426.979 127.696C423.96 128.928 421.904 126.558 420.731 123.812C420.703 123.748 419.072 117.033 419.559 117.061Z" fill="#A187D4"/>
<path fill-rule="evenodd" clip-rule="evenodd" d="M422.967 100.803C424.783 100.421 427.149 102.507 426.036 104.527C425.222 106.004 419.709 108.294 418.215 108.333C416.382 108.38 416.537 106.768 417.123 105.127C418.039 102.558 420.483 100.774 422.967 100.803Z" fill="#A187D4"/>
<path fill-rule="evenodd" clip-rule="evenodd" d="M91.8443 68.4486C92.4029 65.8789 93.2261 62.8349 95.978 65.3114C97.8258 66.9758 99.1768 71.0796 99.3625 73.6463C99.5846 76.7198 98.0582 78.2827 95.5907 76.5584C93.0869 74.8092 92.1322 71.5842 91.8443 68.4486Z" fill="#A187D4"/>
<path fill-rule="evenodd" clip-rule="evenodd" d="M346.13 502.34C346.54 500.634 346.629 497.123 348.415 496.374C351.056 495.267 352.202 500.119 352.289 502.072C352.385 504.188 351.716 508.685 348.975 508.311C346.727 508.005 346.579 504.193 346.13 502.34Z" fill="#A187D4"/>
<path fill-rule="evenodd" clip-rule="evenodd" d="M279.645 505.062C280.151 502.974 280.249 499.201 282.519 498.569C285.018 497.873 285.783 501.639 285.813 503.768C285.842 505.758 284.835 510.911 282.287 510.591C280.326 510.346 280.065 506.75 279.645 505.062Z" fill="#A187D4"/>
<path d="M35.2338 376.288H134.179V510.354H22.8656V376.288H35.2338ZM121.811 496.947V389.694H35.2338V496.947H121.811ZM47.602 403.101H109.443V416.508H47.602V403.101ZM109.443 429.914H47.602V443.321H109.443V429.914ZM47.602 456.728H90.8907V470.134H47.602V456.728Z" fill="#F8D966"/>
</svg>
