<svg width="567" height="532" viewBox="0 0 567 532" fill="none" xmlns="http://www.w3.org/2000/svg">
<path fill-rule="evenodd" clip-rule="evenodd" d="M330.552 222.594C330.775 223.803 331.332 224.373 330.748 225.484C330.252 226.427 328.831 227.045 327.877 226.806L330.552 222.594ZM356.397 179.569L361.102 181.27C359.816 182.6 358.591 183.999 357.173 185.18L356.397 179.569ZM278.779 183.925C281.023 182.732 283.537 182.598 285.997 182.445C285.624 184.574 285.249 186.704 284.874 188.833C282.843 187.197 280.81 185.561 278.779 183.925ZM332.669 348.769C333.117 347.933 336.171 341.472 336.806 341.804C337.143 341.98 337.169 345.577 337.219 346.088C337.394 347.908 337.569 349.727 337.744 351.547C335.937 350.874 334.007 350.316 332.669 348.769ZM354.012 296.542C353.55 297.969 353.087 299.397 352.625 300.825C352.406 301.504 352.277 302.505 351.888 303.104C351.383 303.881 351.764 304.338 351.089 303.488C350.365 302.574 350.149 300.137 349.834 299.018C349.357 297.317 348.879 295.618 348.402 293.918C350.652 293.898 352.016 295.851 354.012 296.542ZM401.294 212.462C404.061 214.455 406.862 216.433 409.269 218.911C407.152 218.772 404.203 220.308 402.208 219.586C401.288 219.794 400.983 219.425 401.294 218.48V216.516V212.462ZM360.271 226.565V238.205C357.688 235.884 354.969 233.729 352.484 231.289C355.08 229.714 357.675 228.14 360.271 226.565ZM267.925 256.726C268.741 261.908 268.786 267.24 269.009 272.484C269.049 273.415 269.389 274.817 268.801 275.632C268.21 276.449 266.529 276.902 265.674 277.338C263.27 278.567 260.882 279.831 258.484 281.075C261.631 272.959 264.778 264.842 267.925 256.726ZM206.878 224.857C200.946 221.783 195.014 218.709 189.082 215.634C194.898 213.038 200.715 210.443 206.53 207.847C206.646 213.517 206.763 219.188 206.878 224.857ZM267.938 239.331C266.854 239.413 266.682 235.059 266.503 233.908C266.162 231.723 265.812 229.539 265.453 227.356C264.734 222.993 263.979 218.637 263.185 214.289C261.595 205.594 259.843 196.931 257.9 188.316C259.988 187.92 261.905 187.634 263.944 186.994C265.591 186.476 267.552 186.758 269.022 185.682C269.213 189.718 268.257 194.01 267.903 198.047C267.493 202.717 267.273 207.363 267.309 212.055C267.38 221.147 267.708 230.242 267.938 239.331ZM404.476 362.52C403.448 362.231 404.847 347.374 404.91 345.231C405.089 339.028 405.123 332.82 405.018 326.615C410.557 330.277 416.224 333.649 422.075 336.69C420.571 338.747 419.162 340.964 417.498 342.878C415.784 344.849 413.817 346.464 412.228 348.587C409.029 352.862 406.838 357.715 404.476 362.52ZM271.194 274.628C270.937 270.159 270.698 265.7 270.27 261.244C270.088 259.348 268.35 249.273 271.133 249.509C272.716 249.644 275.492 252.087 276.944 252.943C278.861 254.073 280.781 255.2 282.708 256.313C286.51 258.51 290.338 260.657 294.153 262.828C286.5 266.762 278.847 270.695 271.194 274.628ZM287.717 181.705C290.887 181.456 293.951 181.207 297.078 180.585C298.764 180.249 300.45 180.296 302.145 180.069C303.359 179.907 305.732 178.856 306.864 179.2C308.285 179.632 308.801 187.141 308.996 189.025C309.311 192.061 309.523 195.743 308.237 198.595C305.759 204.091 299.08 199.801 295.831 197.495C293.046 195.518 289.891 193.516 287.421 191.116C285.232 188.99 287.197 184.452 287.717 181.705ZM271.279 241.479C268.89 240.461 268.928 239.182 268.824 236.548C268.698 233.347 268.625 230.143 268.538 226.941C268.383 221.234 268.237 215.525 268.286 209.816C268.332 204.239 268.591 198.671 269.197 193.128C269.411 191.168 269.198 187.821 270.178 186.149C271.072 184.624 273.847 184.608 275.361 184.702C277.068 184.808 278.451 186.517 279.711 187.598C281.106 188.795 283.973 190.481 284.202 192.266C284.458 194.26 283.419 197.105 283.017 199.038C281.544 206.096 279.753 213.085 277.866 220.03C275.909 227.235 273.926 234.514 271.279 241.479ZM331.957 224.586C331.803 223 331.243 221.675 332 220.165C332.65 218.866 333.708 217.561 334.504 216.332C336.779 212.81 339.332 209.436 341.811 206.072C344.081 202.99 346.408 199.942 348.787 196.953C350.113 195.289 351.479 193.661 352.838 192.027C353.832 190.83 354.775 189.149 356.182 188.523C357.219 195.392 358.076 202.292 358.745 209.212C359.067 212.557 359.346 215.907 359.58 219.261C359.646 220.207 360.342 223.404 359.897 224.285C359.429 225.211 356.567 226.45 355.691 227.018C353.242 228.605 351.339 230.996 349.009 228.387C347.406 226.59 346.114 224.058 344.322 222.491C343.388 221.674 342.509 221.712 341.461 221.227C340.243 220.664 340.205 220.122 338.75 220.888C336.298 222.179 334.808 224.086 331.957 224.586ZM454.707 259.929C454.707 264.685 455.015 268.595 451.957 272.445C449.285 275.81 446.508 276.588 442.75 277.916C440.537 278.697 440.382 277.977 438.589 276.657C436.884 275.403 435.029 274.398 433.348 273.104C429.725 270.317 426.105 267.443 422.584 264.511C421.4 263.525 421.575 263.861 421.754 262.678C421.919 261.601 422.653 260.229 423.054 259.204C423.779 257.349 424.634 255.554 425.489 253.763C426.459 251.73 427.305 249.523 428.511 247.628C429.011 246.841 429.605 246.13 430.189 245.413C431.418 243.903 431.375 243.959 432.845 245.193C435.948 247.799 438.836 250.62 442.329 252.657C446.462 255.069 450.584 257.496 454.707 259.929ZM361.127 223.09C360.678 216.262 360.173 209.472 359.396 202.675C358.997 199.185 358.533 195.705 358.082 192.222C357.898 190.804 357.188 188.425 357.584 187.047C357.972 185.691 359.686 184.401 360.627 183.42C360.88 183.156 361.657 182.05 361.992 182C362.35 181.947 363.697 182.987 364.085 183.221C365.459 184.052 366.808 184.925 368.137 185.834C370.641 187.547 373.067 189.385 375.441 191.291C380.419 195.289 385.167 199.591 390.04 203.73C385.575 207.854 380.08 211.058 375.089 214.398C372.138 216.374 369.171 218.328 366.166 220.211C364.643 221.165 362.876 222.624 361.127 223.09ZM422.154 345.183C425.759 347.696 429.202 350.348 433.279 351.961C437.338 353.566 441.349 354.184 445.544 355.138C447.659 355.62 449.647 356.146 451.806 356.483C453.016 356.672 454.889 356.599 455.992 357.138C456.974 356.917 457.325 357.27 457.041 358.197C457.031 358.485 457.02 358.773 457.01 359.062C456.732 363.069 454.288 367.892 452.157 371.15C450.913 373.053 449.328 374.824 447.753 376.423C445.974 378.229 444.949 379.502 442.469 378.746C438.29 377.47 434.602 374.903 430.367 373.771C427.016 372.875 424.233 370.999 420.966 370.027C416.936 368.829 412.948 367.464 408.863 366.463C410.688 362.75 412.32 358.883 414.656 355.481C417.052 351.991 419.694 348.636 422.154 345.183ZM400.045 220.221C392.506 221.803 384.334 223.268 377.587 227.371C374.954 228.973 371.616 231.448 370.845 234.76C369.923 238.718 373.547 241.17 376.575 242.406C380.21 243.889 384.166 244.458 388.018 244.925C390.056 245.173 392.105 245.308 394.153 245.431C395.81 245.53 398.622 245.146 400.137 245.839C401.086 245.639 401.415 246.045 401.124 247.056C401.142 247.419 401.159 247.783 401.177 248.146L401.334 251.409C401.438 253.583 401.543 255.756 401.648 257.93C401.876 262.664 402.104 267.399 402.331 272.133C398.383 269.554 395.2 265.861 391.341 263.109C389.506 261.801 387.684 260.49 385.857 259.186C385.091 258.639 384.622 257.873 383.868 257.364C382.868 256.688 381.981 256.282 381.043 255.397C377.212 251.785 372.951 248.662 368.887 245.345C367.041 243.838 365.02 242.453 363.264 240.837C361.424 239.143 361.678 237.749 361.724 235.315C361.771 232.738 360.874 229.538 361.29 227.053C360.94 226.209 361.209 225.684 362.095 225.478C362.686 225.079 363.278 224.68 363.87 224.281C365.05 223.486 366.229 222.69 367.409 221.895C372.103 218.73 376.797 215.565 381.491 212.401C383.836 210.82 386.18 209.239 388.525 207.658C389.18 207.217 391.316 205.222 392.051 205.281C392.8 205.341 394.101 206.884 394.663 207.374C395.525 208.127 396.361 208.919 397.293 209.578C397.757 209.917 398.241 210.219 398.746 210.486C399.553 210.568 399.833 211.035 399.587 211.887C400.296 214.283 399.906 217.705 400.045 220.221ZM295.499 333.174C297.206 324.76 299.408 314.797 306.067 309.073C312.82 303.268 322.693 305.511 327.976 312.328C330.622 315.742 332.262 319.779 333.48 323.962C334.731 328.255 336.574 333.849 336.237 338.389C336.089 340.38 334.471 342.519 333.547 344.256C332.593 346.049 331.96 348.621 329.711 348C326.225 347.036 322.679 344.824 319.417 343.241C316.118 341.639 312.643 340.322 309.222 338.775C306.95 337.748 304.592 336.966 302.326 335.925C300.178 334.938 297.343 334.7 295.499 333.174ZM194.623 283.059C189.861 284.856 187.386 281.98 184.036 278.741C180.862 275.674 177.423 272.724 174.5 269.39C171.485 265.952 169.102 261.889 166.784 257.919C164.441 253.906 161.274 249.571 159.831 245.102C159.098 242.829 158.784 240.31 158.322 237.96C158.211 237.394 157.464 235.289 157.701 234.813C158.028 234.158 160.107 234.089 160.678 233.994C165.221 233.236 170.036 233.199 174.594 233.876C183.411 235.186 190.786 240.399 193.573 249.515C196.84 260.202 195.27 272.08 194.623 283.059ZM225.498 190.367C225.571 192.217 221.364 192.731 220.274 193.163C217.754 194.159 215.249 195.211 212.802 196.39C207.763 198.818 202.39 200.4 197.565 203.336C187.165 209.665 175.873 214.126 165.366 220.179C163.729 221.122 160.529 223.395 158.659 223.203C157.665 223.101 158.406 223.944 157.761 222.278C157.529 221.679 157.452 220.899 157.322 220.257C156.933 218.333 156.632 216.39 156.194 214.476C155.475 211.326 154.74 208.404 154.437 205.166C154.308 203.794 154.167 202.424 154.152 201.044C154.136 199.646 153.831 196.142 154.429 194.931C154.827 194.128 154.906 194.403 155.898 194.177C156.467 194.047 157.064 193.777 157.612 193.597C158.899 193.175 160.187 192.769 161.537 192.645C162.87 192.522 163.721 192.094 164.972 191.846C166.284 191.586 167.631 191.902 168.968 191.538C170.41 191.145 171.099 190.787 172.606 190.937C174.068 191.082 174.488 190.741 175.92 190.321C177.114 189.97 178.538 190.215 179.783 190.109C181.29 189.979 182.792 189.781 184.3 189.655C191.08 189.089 197.94 189.928 204.736 189.862C208.431 189.826 212.047 190.401 215.737 190.223C218.962 190.068 222.296 190.105 225.498 190.367ZM207.859 228.04C211.157 229.364 214.216 231.515 217.274 233.368C220.8 235.504 224.175 237.773 227.438 240.335C232.925 244.643 239.327 249.808 240.772 257.324C242.253 265.038 235.899 271.359 229.941 274.515C223.147 278.114 215.243 279.975 207.801 281.35C208.596 263.591 208.409 245.804 207.859 228.04ZM306.529 269.848C308.53 270.431 310.224 271.68 312.08 272.604C313.742 273.431 315.351 274.055 316.904 275.12C319.435 276.856 322.369 278.342 325.015 279.684C331.561 283.005 337.917 287.129 344.399 290.81C346.116 291.786 346.679 292.402 347.261 294.41C347.893 296.591 348.488 298.787 349.097 300.975C349.665 303.017 350.571 305.199 350.332 307.354C350.124 309.229 349.204 310.997 348.511 312.707C346.765 317.01 344.872 321.245 342.917 325.445C341.162 329.217 339.56 333.218 337.308 336.684C335.557 327.057 333.986 316.271 327.199 308.935C320.417 301.604 309.598 301.501 303.063 309.068C299.958 312.662 298.069 317.189 296.584 321.738C295.804 324.128 295.28 326.563 294.778 329.031C294.242 331.668 294.373 333.067 291.614 332.268C289.423 331.633 287.1 331.127 284.952 330.403C283.838 330.028 282.751 329.606 282.7 328.678C282.636 327.506 284.133 325.106 284.575 324.004C286.858 318.312 289.141 312.621 291.424 306.929C293.903 300.749 296.383 294.569 298.863 288.39C300.1 285.306 301.338 282.223 302.576 279.14C303.705 276.33 304.645 272.156 306.529 269.848ZM207.674 221.789C207.637 218.979 207.593 216.169 207.558 213.359C207.537 211.684 206.829 208.446 208.213 207.25C209.07 206.508 211.615 205.94 212.7 205.432C214.84 204.432 217.158 203.985 219.311 202.991C227.745 199.096 236.522 195.852 245.205 192.713C247.077 192.036 248.991 191.482 250.875 190.816C251.893 190.456 255.662 188.343 256.603 188.896C257.428 189.379 258.05 195.142 258.314 196.338C258.938 199.171 259.536 202.011 260.11 204.855C262.339 215.9 264.209 227.022 265.947 238.163C261.328 236.314 256.901 233.11 252.537 230.633C248.004 228.06 243.487 225.494 238.923 222.98C237.634 222.271 233.102 219.009 232.042 220.289C230.34 222.343 234.394 224.752 235.458 225.632C239.575 229.036 243.924 232.003 248.326 234.972C252.887 238.05 257.635 240.768 262.22 243.789C263.875 244.88 266.517 246.207 267.168 248.049C268.004 250.419 267.4 253.298 266.638 255.562C264.767 261.125 262.718 266.619 260.551 272.06C259.566 274.534 258.555 276.997 257.525 279.451C256.299 282.373 254.69 282.991 252.019 284.336C240.638 290.065 228.816 295.503 217.884 302.132C219.714 304.356 224.173 300.705 225.978 299.781C229.322 298.069 232.669 296.362 236.01 294.645C242.235 291.446 248.428 288.183 254.688 285.062C250.676 294.681 245.941 303.95 240.692 312.879C242.017 313.353 241.694 313.378 242.526 312.537C243.227 311.829 243.697 310.443 244.172 309.554C245.153 307.718 246.121 305.875 247.11 304.044C249.161 300.243 251.286 296.501 253.159 292.596C254.567 289.661 255.658 284.528 258.553 283.048C262.16 281.203 265.815 279.407 269.422 277.536C269.422 292.162 268.425 306.463 266.962 320.998C266.888 321.731 266.222 323.895 267.565 323.683C268.171 323.587 268.376 319.576 268.482 318.739C268.971 314.9 269.386 311.051 269.725 307.194C270.4 299.498 270.767 291.771 270.815 284.043C271.68 291.557 272.546 299.071 273.412 306.585L274.642 317.267C274.857 319.137 275.073 321.007 275.288 322.877C275.387 323.737 275.325 324.86 275.611 325.679C276.062 326.969 275.91 326.87 277.322 327.458C275.972 317.673 274.725 307.871 273.622 298.052C273.083 293.261 272.578 288.465 272.113 283.666C271.988 282.375 271.866 281.084 271.746 279.793C271.686 279.134 271.147 277.018 271.446 276.471C271.742 275.929 273.704 275.364 274.269 275.087C275.505 274.482 276.742 273.877 277.978 273.269C281.989 271.292 285.997 269.3 289.964 267.227C291.7 266.32 293.52 264.919 295.407 264.435C297.286 263.953 298.653 265.332 300.26 266.209C301.51 266.891 304.456 267.799 305.291 268.957C306.068 270.036 303.654 274.351 303.02 275.942C301.231 280.43 299.442 284.919 297.653 289.407C294.026 298.508 290.398 307.609 286.771 316.71C285.884 318.934 284.998 321.159 284.111 323.384C283.543 324.809 282.594 328.872 281.215 329.031C280.605 329.101 279.603 328.402 279.014 328.2C278.134 327.901 277.321 327.905 276.438 327.747C274.821 327.458 273.141 326.578 271.552 325.961C267.469 324.374 263.236 323.349 259.119 321.867C254.984 320.378 250.916 318.705 246.797 317.216C243.056 315.864 239.281 314.323 235.687 312.562C231.892 310.702 227.999 309.062 224.301 306.999C217.565 303.243 210.903 299.735 204.951 295.128C203.552 294.045 202.061 292.957 200.677 291.797C199.463 290.779 197.147 289.523 196.321 288.184C196.006 287.674 195.736 286.673 196.104 286.068C196.498 285.417 198.247 285.477 199.063 285.361C201.639 284.996 204.215 284.631 206.79 284.266C206.592 286.052 206.393 287.836 206.249 289.629C206.149 290.894 205.439 294.238 206.396 295.229C207.711 293.911 207.288 289.971 207.406 288.216C207.469 287.277 207.242 285.441 207.641 284.609C208.078 283.697 209.284 283.709 210.378 283.46C215.016 282.402 219.612 281.514 224.1 279.838C231.681 277.007 240.744 272.227 242.437 263.006C244.203 253.394 236.445 245.066 229.914 239.705C226.003 236.496 221.842 233.717 217.539 231.137C215.528 229.932 213.518 228.726 211.494 227.546C210.758 227.117 208.34 226.234 207.952 225.483C207.555 224.716 207.758 222.663 207.674 221.789ZM369.88 369.406C370.248 369.596 370.616 369.785 370.983 369.975C366.892 357.682 362.838 345.444 359.417 332.92C357.765 326.876 356.092 320.837 354.385 314.809C353.647 312.209 351.837 308.629 352.34 305.935C352.884 303.02 354.19 299.919 355.2 297.147C361.666 301.433 368.268 305.498 374.842 309.589C380.736 313.258 386.729 316.52 392.664 320.15C395.705 322.01 398.842 323.266 402.016 324.785C404.595 326.021 403.594 329.796 403.557 332.318C403.426 341.221 403.433 350.156 402.92 359.047C402.733 362.285 402.974 366.004 401.019 368.7C398.517 372.146 396.197 375.66 393.916 379.288C393.062 380.647 389.471 388.006 388.133 387.845C387.259 387.74 386.454 384.76 386.017 384.054C385.074 382.531 383.697 381.22 382.443 379.994C377.027 374.697 371.018 370.965 364.772 367.094C358.427 363.161 351.933 359.5 345.468 355.77C344.007 354.927 342.434 354.319 340.983 353.458C340.41 353.118 339.273 352.578 338.912 351.97C338.372 351.06 338.555 348.54 338.442 347.452C338.212 345.23 337.798 342.921 337.776 340.683C337.755 338.472 339.016 336.572 339.93 334.644C343.942 326.179 347.84 317.692 351.331 308.97C354.084 319.098 356.973 329.178 359.673 339.321C361.083 344.618 362.782 349.827 364.437 355.042C365.281 357.706 366.131 360.367 366.975 363.031C367.632 365.106 367.973 368.143 369.88 369.406ZM312.254 178.534C314.381 178.559 316.309 178.23 318.389 177.761C319.152 177.59 319.823 177.517 320.597 177.445C321.474 177.364 322.271 176.863 323.039 176.765C323.621 176.691 324.636 176.948 325.191 177.145C326.477 177.599 326.436 177.37 326.49 178.944C326.574 181.377 326.637 183.811 326.764 186.242C327.263 195.811 328.226 205.287 329.547 214.763C329.815 216.678 330.563 219.191 330.152 221.093C329.781 222.808 328.375 224.64 327.447 226.078C325.538 229.037 321.041 230.499 317.877 231.337C314.541 232.222 311.078 232.548 307.908 233.337C307.03 233.556 306.022 233.17 305.086 233.39C304.22 233.593 303.548 234.094 302.748 234.456C300.788 235.343 298.599 235.507 296.575 236.191C292.561 237.55 288.264 237.468 284.247 238.772C283.22 239.105 282.333 239.945 281.345 240.233C280.441 240.496 279.511 240.187 278.565 240.333C276.562 240.644 274.694 241.366 274.232 243.634C273.007 242.611 272.837 242.88 273.048 241.299C273.184 240.285 273.72 239.05 274.013 238.073C274.76 235.58 275.512 233.09 276.259 230.597C277.736 225.665 279.205 220.729 280.566 215.76C281.785 211.316 282.893 206.838 283.861 202.325C284.354 200.03 284.765 197.726 285.187 195.419C285.31 194.75 285.188 193.686 285.826 193.24C286.405 192.836 287.756 194.286 288.367 194.753C292.636 198.013 302.429 207.657 307.766 201.968C310.641 198.905 310.473 193.52 310.161 189.562C309.969 187.13 309.564 184.729 309.111 182.337C308.998 181.74 308.306 179.823 308.559 179.398C308.833 178.941 311.683 178.668 312.254 178.534ZM162.242 231.759C161.105 231.893 159.969 232.028 158.833 232.162C158.937 231.194 158.843 229.739 159.191 228.837C159.672 227.591 160.848 227.452 162.143 226.936C164.191 226.119 166.279 225.41 168.304 224.531C172.699 222.624 177.073 220.69 181.471 218.784C183.398 217.947 185.663 216.579 187.756 217.262C190.013 217.999 192.24 219.499 194.35 220.598C196.739 221.843 199.126 223.09 201.514 224.337C202.633 224.923 203.753 225.507 204.873 226.092C206.632 227.011 206.866 227.104 207.004 229.202C207.711 239.937 207.659 251.088 207.351 261.836C207.193 267.321 207.37 272.836 206.996 278.312C206.968 278.733 206.997 281.11 206.747 281.434C206.395 281.89 203.916 282.044 203.324 282.159C201.014 282.604 198.688 282.752 196.355 282.972C196.905 270.487 198.924 255.727 192.842 244.307C186.734 232.834 173.676 230.348 162.242 231.759ZM268.44 108.93C267.755 107.285 266.575 105.897 265.567 104.454C265.022 103.674 264.079 102.741 263.73 101.829C263.234 100.53 263.236 100.808 263.978 99.6703C264.68 98.5953 264.666 98.5144 265.751 98.3222C266.664 98.1603 267.637 98.4352 268.57 98.259C269.513 98.0806 272.106 97.2427 271.512 95.6602C271.537 95.7295 270.037 94.9498 269.921 94.8146C269.544 94.3819 269.424 93.4593 269.238 92.9362C268.639 91.2595 268.429 90.174 269.096 88.3887C270.094 85.7228 274.037 84.9338 276.491 85.8309C277.719 86.2786 278.418 87.2283 278.97 88.4219C279.32 89.1799 279.402 90.2754 279.855 90.9353C280.538 91.9288 280.58 91.8186 281.996 91.6429C283.8 91.4196 285.279 90.6893 286.987 90.1801C288.849 89.6249 290.059 90.7541 291.685 91.6645C294.621 93.3091 297.457 93.8799 300.745 94.1408C304.407 94.4318 307.802 93.5009 311.428 93.2609C310.487 97.8295 308.054 101.539 306.109 105.676C305.768 106.403 305.215 107.147 305.202 107.989C305.188 108.781 306.277 109.86 306.155 110.516C305.893 111.916 302.971 113.036 301.864 113.43C298.733 114.544 295.168 116.723 291.722 115.847C289.833 115.368 288.816 112.222 287.038 111.991C284.653 111.68 286.438 114.918 286.881 116.032C283.495 116.574 279.205 116.115 275.964 114.904C274.34 114.298 272.964 113.393 271.482 112.496C269.636 111.379 269.253 111.072 268.44 108.93ZM327.681 176.925C333.716 177.03 339.84 176.114 345.889 176.956C347.29 177.151 348.673 177.464 350.05 177.798C351.04 178.038 354.183 178.241 354.843 179.016C355.444 179.724 355.449 182.982 355.573 183.9C355.849 185.944 355.775 186.65 354.538 188.231C350.469 193.433 346.231 198.48 342.222 203.74C338.37 208.792 335.209 214.437 331.316 219.418C329.237 213.037 329.112 205.38 328.541 198.69C328.237 195.123 327.96 191.552 327.7 187.982C327.452 184.581 326.61 180.167 327.681 176.925ZM405.798 244.169C405.1 244.169 403.987 244.4 403.308 244.169C402.376 244.483 402.064 244.113 402.372 243.063C402.358 242.696 402.343 242.328 402.328 241.96C402.231 239.59 402.123 237.22 402.019 234.85C401.924 232.684 401.831 230.517 401.75 228.35C401.694 226.87 400.985 223.203 401.552 221.867C401.933 220.968 402.835 221.172 403.933 221.041C404.978 220.916 406.025 220.801 407.064 220.63C408.382 220.414 409.843 219.916 411.184 220.228C412.532 220.541 413.512 221.852 414.569 222.687C416.243 224.006 417.952 225.277 419.64 226.575C422.707 228.937 425.744 231.342 428.785 233.739C430.041 234.729 430.283 234.386 429.67 235.809C429.291 236.687 428.43 237.682 427.905 238.476C426.861 240.057 425.821 242.454 424.481 243.738C422.532 245.605 417.123 244.419 414.533 244.406C411.581 244.391 408.734 244.439 405.798 244.169ZM398.155 244.015C395.594 243.751 393.008 243.865 390.463 243.502C387.696 243.107 384.949 242.522 382.188 242.084C379.435 241.648 371.06 239.883 371.886 235.551C372.76 230.972 379.171 228.229 382.719 226.69C388.26 224.285 394.045 222.998 399.873 221.639C400.604 225.744 400.499 230.151 400.632 234.31C400.705 236.569 400.768 238.831 400.767 241.092C400.767 241.637 400.944 242.766 400.734 243.272C400.239 244.463 399.662 244.015 398.155 244.015ZM406.576 245.982H422.92C420.501 251.26 418.215 256.637 415.607 261.816C413.01 266.975 409.666 271.836 406.72 276.787C405.974 275.931 404.783 275.002 404.276 273.983C403.714 272.856 403.73 271.198 403.638 269.893C403.399 266.506 403.291 263.089 403.21 259.695C403.139 256.722 403.015 253.769 402.798 250.804C402.751 250.153 402.07 246.775 402.46 246.22C402.807 245.725 405.861 245.987 406.576 245.982ZM339.267 142.343C336.51 142.342 333.749 142.306 330.993 142.354C328.491 142.399 325.231 141.94 322.94 143.298C318.271 146.064 327.604 153.168 329.496 154.956C326.436 156.126 321.66 153.805 318.664 152.742C314.96 151.427 311.183 150.545 307.404 149.515C306.46 149.258 302.408 148.754 301.896 147.992C301.388 147.235 302.526 142.672 302.64 141.71C302.747 140.805 302.657 139.394 303.014 138.543C302.795 137.521 303.136 137.162 304.036 137.469C304.347 137.468 304.657 137.467 304.968 137.465C307.267 137.485 309.568 137.597 311.866 137.678C319.762 137.955 327.466 138.324 335.296 139.624C338.935 140.228 342.607 140.971 346.228 141.712C349.276 142.336 348.763 142.86 345.916 142.867C343.69 142.874 341.482 142.525 339.267 142.343ZM112.751 81.1249C112.282 80.5569 111.812 79.9884 111.343 79.4199C112.486 79.0758 113.629 78.7311 114.772 78.387C115.988 78.0213 116.642 78.105 116.102 76.6731C115.425 74.8795 112.332 74.6739 110.846 74.6063C105.728 74.373 100.352 76.0897 95.4908 77.6018C93.1188 78.3399 91.2593 79.4819 89.2521 81.0007C88.3759 81.664 87.3642 82.2868 86.5974 83.0836C85.8006 83.9115 85.4689 84.972 84.69 85.8021C83.4123 87.163 81.7772 87.8406 81.1507 89.805C80.4317 92.0596 81.29 94.6406 82.3543 96.6066C83.4339 98.602 85.0374 100.111 86.3398 101.924C87.3736 103.362 89.5322 107.293 86.159 106.837C84.3752 106.596 82.0616 103.389 80.7776 102.111C78.9375 100.279 77.1274 98.4042 75.1785 96.6975C73.4504 95.1842 71.4594 93.6327 69.1484 93.3668C66.7129 93.0864 65.4961 94.7299 64.3089 96.7285C63.1894 98.6136 63.0096 100.454 62.2223 102.383C61.8423 103.314 61.3588 103.832 61.1354 104.846C60.7922 106.406 60.7564 108.108 60.5814 109.698C60.306 112.195 60.0469 114.159 60.5057 116.606C60.9357 118.896 61.0528 121.329 61.415 123.659C61.8249 126.297 62.166 128.948 62.5702 131.588C62.9124 133.824 64.2143 137.009 62.9371 139.089C59.8687 144.086 56.1875 136.73 55.2183 133.981C53.5144 129.152 52.6471 123.872 51.1435 118.943C50.3382 116.307 49.6356 113.647 49.1741 110.918C48.792 108.661 48.9802 105.911 47.8071 103.901C46.8952 102.339 45.2732 101.154 43.493 101.63C41.2656 102.227 40.41 105.621 39.7546 107.685C38.0249 113.127 38.6613 118.029 39.3656 123.579C39.6915 126.149 40.0026 128.723 40.5624 131.251C40.9403 132.956 42.5049 136.407 40.1787 137.334C36.8806 138.649 33.385 128.674 32.4452 126.422C29.9844 120.522 29.0421 114.671 28.0277 108.35C27.7949 106.896 27.6167 105.412 27.2682 103.983C26.965 102.74 26.0588 101.483 25.9774 100.24C25.8959 98.9954 26.6775 98.1271 25.8765 96.9053C25.21 95.8885 24.0059 95.827 22.9179 95.8181C20.3625 95.7971 17.918 96.9801 15.5408 97.8384C13.3302 98.6369 10.0558 100.389 7.66967 99.8249C15.1545 91.8142 22.6194 83.8943 31.5454 77.6556C35.6902 74.7582 39.8381 71.9738 44.3182 69.611C48.8561 67.2178 54.0562 65.6015 58.9163 64.1536C61.5595 63.3657 64.188 62.473 66.798 61.5693C69.1216 60.7647 71.4605 60.6123 73.7358 59.6997C78.6789 57.7177 84.2023 56.9497 89.3204 55.5445C91.5804 54.9244 93.8652 54.3925 96.1305 53.8179C98.5113 53.2139 101.856 52.165 104.282 52.2669C106.354 52.3539 107.053 54.8568 108.049 56.5978C109.496 59.1251 110.73 61.751 111.868 64.4468C114.198 69.9701 116.658 75.6763 118.325 81.4468C119.24 84.6152 120.144 87.7869 121.044 90.9603C121.822 93.7075 123.768 97.6705 123.251 100.49C119.418 94.2622 115.848 87.7947 112.751 81.1249ZM291.204 137.358C293.238 137.455 295.272 137.552 297.305 137.65C295.277 144.676 295.56 152.158 295.56 159.44C286.084 158.263 276.532 158.062 267 158.144C268.752 154.582 268.073 149.961 267.574 146.147C267.282 143.915 267.119 141.764 267.161 139.512C267.201 137.399 266.624 135.622 268.747 134.969C270.432 134.451 271.496 135.314 273.101 135.708C275.023 136.18 277.116 136.237 279.073 136.494C283.146 137.027 287.073 137.34 291.204 137.358ZM345.807 151.041C339.7 149.255 333.211 149.913 327.073 148.556C328.469 147.213 331.099 148.008 332.953 148.12C335.061 148.247 337.167 148.339 339.274 148.447C341.33 148.553 347.031 148.389 347.773 151.146C347.118 151.111 346.462 151.076 345.807 151.041ZM122.359 51.479C130.35 52.2181 138.719 52.1034 146.652 53.5735C155.738 55.2569 165.209 56.313 174.019 59.2797C182.66 62.1904 191.473 64.2279 199.991 67.6456C208.273 70.9681 216.249 74.5027 224.047 78.9467C227.864 81.1215 231.579 83.4272 235.217 85.9251C238.77 88.3637 242.662 90.3629 246.104 92.9479C249.168 95.2491 251.812 97.3597 254.484 100.179C257.34 103.193 260.118 106.289 262.977 109.298C265.363 111.809 263.853 117.948 263.701 121.289C263.492 125.921 263.13 130.488 262.591 135.09C262.078 139.475 261.551 144.188 262.228 148.564C262.513 150.404 263.494 153.582 263.025 155.418C262.651 156.889 260.163 157.967 258.893 158.446C257.341 159.032 255.755 158.785 254.162 159.531C252.383 160.365 250.883 161.405 248.993 161.843C246.664 162.383 244.046 162.837 241.653 162.854C239.439 162.869 237.219 163.625 235.012 164.09C231.422 164.848 227.918 165.084 228.141 169.649C228.399 174.915 230.381 179.434 231.562 184.433C229.966 184.433 228.853 184.54 227.392 183.943C225.686 183.248 223.866 183.062 222.073 182.762C218.112 182.098 214.251 181.885 210.263 181.461C202.96 180.684 195.53 180.777 188.22 180.859C184.52 180.9 180.505 181.202 176.856 181.809C173.111 182.432 169.234 182.822 165.605 184.017C162.544 185.026 159.383 185.713 156.261 186.604C154.853 187.005 153.168 187.331 151.838 187.78C149.911 188.431 148.881 189.819 146.657 189.787C147.283 185.443 148.753 181.413 149.64 177.105C150.566 172.605 152.414 168.625 154.454 164.38C155.363 162.487 156.037 160.478 156.914 158.568C157.889 156.444 159.261 154.685 160.438 152.699C162.848 148.637 165.42 144.729 167.788 140.638C169.854 137.066 172.215 133.643 174.478 130.195C176.965 126.404 180.421 123.543 183.244 120.066C184.436 118.597 185.57 117.232 186.905 115.884C188.134 114.643 189.878 111.896 191.76 111.767C192.842 111.693 194.716 112.334 195.748 112.679C197.658 113.316 199.685 113.732 201.657 114.293C203.816 114.908 205.937 115.707 208.099 116.291C208.964 116.525 209.992 116.414 210.812 116.678C211.67 116.955 212.355 117.565 213.293 117.845C217.921 119.229 222.522 120.801 227.184 122.061C231.984 123.358 236.858 124.463 241.51 126.301C242.397 126.652 243.384 127.481 244.066 126.936C244.574 126.53 244.902 125.381 244.768 124.71C244.322 122.478 240.936 121.672 239.305 120.776C234.936 118.375 230.595 116.681 225.9 115.051C223.587 114.248 221.282 113.392 218.937 112.698C216.976 112.119 214.936 111.14 212.931 110.843C211.149 110.58 209.882 109.839 208.113 109.184C205.506 108.218 202.825 107.425 200.175 106.6C195.647 105.189 190.848 104.596 186.215 103.65C175.481 101.459 164.337 100.362 153.385 100.498C147.863 100.566 142.087 100.396 136.629 101.354C135.313 101.584 132.547 101.54 131.64 102.785C131.153 103.453 131.417 104.448 131.292 105.172C131.08 106.394 130.448 106.964 129.9 108.078C128.735 102.051 127.396 96.1528 125.892 90.2144C124.532 84.8401 123.273 79.3683 121.455 74.0694C119.532 68.4629 117.201 62.5185 114.326 57.3874C113.734 56.3313 112.259 54.6535 112.132 53.4721C112.001 52.2531 113.621 51.3089 114.735 51.1731C117.232 50.8689 119.906 51.3898 122.359 51.479ZM68.6775 137.59C67.8644 129.23 65.4878 120.486 66.8154 112.093C67.3773 108.54 67.8161 105.148 69.5016 101.941C70.3541 100.319 70.6958 99.1278 72.323 100.084C73.9701 101.052 75.4865 103.443 76.852 104.829C79.3616 107.376 81.9901 109.999 84.9954 111.891C87.3626 113.381 92.0645 114.792 93.8441 111.57C95.5397 108.499 93.2781 104.214 91.6545 101.681C89.7966 98.7821 86.2773 96.0974 88.2524 92.5212C89.1023 90.9819 90.3254 90.5785 91.611 89.5683C92.7236 88.694 93.656 87.5614 94.7692 86.6715C97.9942 84.0921 101.531 82.9872 105.255 81.5133C106.974 80.8323 107.2 80.1917 108.194 81.7482C109.272 83.4388 109.863 85.8082 110.643 87.6777C112.205 91.4229 113.871 94.9715 115.885 98.4634C117.918 101.988 119.719 105.669 121.64 109.263C122.365 110.619 123.046 111.997 123.903 113.27C124.37 113.962 124.947 114.58 125.326 115.338C125.887 116.459 125.637 117.48 125.986 118.596C127.493 123.412 129.69 116.69 130.11 115.118C130.587 113.331 131.738 111.937 132.485 110.27C133.101 108.893 133.522 106.847 135.01 106.198C136.229 105.667 137.801 106.396 139.045 106.467C141.331 106.598 143.634 106.403 145.931 106.553C148.078 106.694 150.22 106.911 152.367 107.05C154.515 107.189 156.661 106.806 158.781 107.044C162.586 107.472 166.476 107.403 170.272 107.996C174.727 108.691 179.136 109.433 183.604 110.011C182.566 112.081 180.414 112.978 178.713 114.455C177.192 115.775 175.988 117.298 174.456 118.554C172.902 119.828 171.979 121.713 170.693 123.245C169.432 124.745 168.266 126.003 167.161 127.681C161.832 135.785 156.336 143.591 151.94 152.35C149.715 156.783 147.591 161.526 146.071 166.283C144.441 171.385 143.641 176.856 142.672 182.131C142.19 184.76 141.937 186.979 142.466 189.624C142.604 190.253 142.749 190.881 142.899 191.508C143.362 192.258 143.191 192.745 142.384 192.968C141.912 193.694 141.267 193.966 141.226 194.957C141.195 195.711 141.593 196.584 142.208 197.009C143.396 197.829 143.396 196.722 144.622 196.967C145.081 197.229 145.54 197.491 145.999 197.752C146.241 197.363 146.491 196.979 146.747 196.6C147.528 195.817 148.149 195.888 149.17 195.698C148.651 201.996 149.478 207.62 150.793 213.764C151.426 216.718 152.511 219.61 153.057 222.57C153.667 225.876 152.333 227.382 150.27 229.588C150.793 229.876 151.711 230.189 152.143 230.619C152.831 231.306 152.655 231.39 152.655 232.464C152.654 234.432 153.011 236.37 153.305 238.305C153.847 241.887 154.343 245.594 155.513 249.024C157.638 255.254 161.072 261.724 164.572 267.211C166.53 270.282 168.493 273.77 170.948 276.42C173.411 279.079 175.853 281.762 178.31 284.429C183.147 289.678 188.433 293.305 194.228 297.235C196.523 298.792 198.94 300.498 200.913 302.436C202.919 304.405 205.586 305.784 207.983 307.215C209.053 307.853 209.814 308.77 210.969 309.294C212.054 309.785 212.812 309.946 213.721 310.591C215.979 312.191 218.417 313.559 220.902 314.766C223.934 316.238 226.917 317.95 230.031 319.206C231.449 319.779 232.784 320.403 234.158 321.072C235.645 321.796 237.249 322.272 238.774 323.043C240.063 323.696 241.368 324.075 242.679 324.608C243.751 325.043 244.592 325.748 245.684 326.203C247.953 327.148 250.018 327.657 252.223 328.771C255.152 330.251 258.623 330.941 261.708 332.006C265.153 333.196 268.726 334.379 272.261 335.223C273.765 335.582 275.047 336.051 276.499 336.595C277.446 336.949 278.531 337.143 279.58 337.479C282.477 338.41 285.373 339.308 288.286 340.1C293.977 341.648 299.791 343.505 305.31 345.606C308.204 346.708 311.14 348.033 313.916 349.436C317.054 351.02 320.436 351.935 323.586 353.504C329.67 356.535 335.734 359.654 341.749 362.836C344.907 364.507 348.021 366.229 351.105 368.046C352.224 368.706 353.447 368.978 354.559 369.624C356.013 370.471 357.206 371.712 358.695 372.551C364.434 375.782 370.292 378.827 375.563 382.915C378.322 385.055 381.286 387.247 383.67 389.852C384.457 390.712 385.821 392.043 385.963 393.29C386.173 395.135 385.976 393.437 385.37 394.575C384.531 394.683 384.341 395.023 384.799 395.595C385.01 395.863 385.281 396 385.61 396.006C386.671 396.232 388.654 395.048 389.506 394.552C390.982 393.694 391.766 392.61 392.714 391.17C394.773 388.046 396.782 384.893 398.903 381.813C400.81 379.043 402.677 375.993 404.847 373.449C406.319 371.725 406.429 372.478 408.066 373.451C409.284 374.174 410.698 374.482 411.96 375.163C416.769 377.76 422.055 379.678 426.987 381.488C428.11 381.9 428.708 382.554 429.696 383.123C430.953 383.848 432.545 384.203 433.89 384.718C437.593 386.138 441.279 387.612 444.956 389.106C447.796 390.26 450.524 391.169 452.747 393.299C453.631 394.147 454.702 394.754 455.615 395.611C456.679 396.608 458.118 398.23 459.457 398.794L460.273 399.466C460.824 399.061 461.377 398.658 461.93 398.255C462.479 397.854 463.028 397.455 463.576 397.053C464.951 396.045 466.317 395.023 467.684 394.002C470.784 391.686 473.905 389.392 476.789 386.776C481.911 382.132 487.227 377.737 492.584 373.387C498.206 368.822 503.688 364.045 509.503 359.754C514.773 355.864 520.524 352.58 525.634 348.475C528.206 346.408 530.772 344.329 533.398 342.327C533.541 342.219 535.678 340.836 535.698 340.683C535.736 340.4 535.033 339.663 534.825 339.426C533.843 338.299 532.754 337.296 531.774 336.157C527.211 330.852 521.252 331.037 514.954 330.786C512.098 330.673 509.001 332.061 506.288 333.007C502.971 334.163 499.771 335.859 496.568 337.324C489.965 340.344 483.15 342.924 476.48 345.72C473.857 346.82 471.245 347.356 468.578 348.112C465.873 348.879 463.087 348.148 460.193 348.203C458.692 348.231 457.272 348.323 455.76 348.234C454.862 348.181 453.828 348.001 452.941 348.017C452.223 348.03 451.477 348.343 450.816 348.264C447.921 347.918 444.864 347.433 441.879 347.036C438.915 346.642 435.856 346.447 432.932 345.83C431.459 345.52 430.006 345.081 428.589 344.554C427.359 344.097 425.123 343.578 424.114 342.652C423.211 341.824 423.606 341.813 424.109 340.461C424.308 339.927 424.514 339.117 424.81 338.602C425.608 337.211 426.38 336.774 425.915 335.034C425.097 331.966 422.307 330.008 419.92 328.497C414.541 325.095 409.621 320.731 403.958 317.844C392.287 311.898 381.652 304.173 370.271 297.642C357.761 290.464 345.927 282.04 333.243 275.165C321.436 268.765 309.683 262.328 297.779 256.13C291.966 253.104 285.391 250.336 280.117 246.369C283.039 245.986 285.97 245.493 288.902 245.219C290.262 245.092 291.639 245.21 292.991 244.982C294.504 244.727 295.934 244.082 297.443 243.814C300.039 243.352 302.373 242.413 304.971 242.068C307.757 241.696 310.485 240.833 313.284 240.592C319.139 240.086 324.422 237.809 329.555 234.941C330.825 234.23 331.869 234.637 333.086 234.153C333.757 233.888 334.469 232.826 335.222 232.256C337.297 230.686 339.077 228.832 341.049 227.116C345.193 236.923 353.332 243.593 361.099 250.171C365.033 253.502 369.303 256.327 373.277 259.595C376.358 262.13 379.156 264.398 382.445 266.414C385.604 268.347 388.571 270.959 391.582 273.283C393.622 274.858 396.014 276.046 398.185 277.414C399.958 278.531 403.42 280.197 403.903 282.223C404.299 283.879 403.527 285.849 405.924 285.088C408.07 284.407 409.626 281.895 410.875 280.126C414.108 275.548 417.123 270.815 420.124 266.068C421.736 269.385 424.516 271.774 427.087 274.233C428.648 275.728 430.269 277.114 431.956 278.448C432.773 279.095 433.601 279.729 434.42 280.375C434.743 280.63 435.474 281.022 435.684 281.381C436.172 282.221 435.875 281.84 435.799 282.856C435.68 284.446 435.177 285.698 436.031 287.223C436.833 288.654 438.582 289.265 439.807 290.242C442.723 292.569 445.789 295.042 449.024 296.859C449.759 297.271 450.453 297.629 451.137 298.133C452.278 298.975 452.07 299.28 453.22 298.474C455.019 297.211 456.573 295.115 458.197 293.592C461.599 290.401 465.038 287.251 468.522 284.161C475.16 278.271 481.995 272.674 488.551 266.678C494.782 260.981 501.461 256.077 507.893 250.66C509.657 249.175 511.4 247.659 513.141 246.143C514.692 244.793 517.208 243.306 518.355 241.58C520.02 239.072 513.505 235.645 511.539 235.134C508.15 234.255 503.767 234.758 500.372 235.479C496.809 236.235 493.18 238.765 489.853 240.341C486.102 242.117 482.282 243.652 478.504 245.329C476.818 246.077 475.032 246.673 473.468 247.681C471.808 248.75 470.326 249.968 468.562 250.865C466.528 251.896 464.414 252.86 462.275 253.623C461.306 253.969 460.263 254.316 459.244 254.456C457.802 254.654 457.997 253.953 456.799 253.562C455.781 253.23 455.54 254.108 454.624 254.352C453.762 254.583 453.118 254.35 452.371 253.861C450.707 252.772 449.226 251.27 447.562 250.137C446.018 249.084 444.315 248.101 442.868 246.91C442.222 246.379 441.745 245.652 441.109 245.113C440.09 244.248 439.686 244.591 438.496 243.996C437.523 243.509 436.641 242.602 435.715 242.002C435.141 241.629 433.747 241.158 433.377 240.554C432.403 238.97 434.065 237.87 435.553 238.337C435.775 236.969 436.92 233.721 436.426 232.438C435.988 231.303 434.84 231.515 433.875 230.915C430.246 228.656 427.568 224.552 424.174 221.899C420.973 219.397 418.15 216.41 414.98 213.863C412.264 211.68 409.296 209.549 406.823 207.195C403.899 204.412 400.156 202.247 396.977 199.763C393.693 197.198 390.642 194.343 387.393 191.748C384.268 189.252 381.198 186.644 377.986 184.268C375.099 182.132 372.073 180.181 369.247 178.016C367.698 176.83 366.006 175.788 364.238 175.01C362.48 174.235 360.943 173.327 359.227 172.493C355.817 170.835 351.375 169.69 347.667 169.215C343.589 168.693 339.495 168.225 335.379 168.221C333.186 168.22 331.056 168.66 328.877 168.799C326.874 168.927 324.709 169.461 322.72 169.39C321.82 169.359 321.037 168.957 320.166 169.087C319.438 169.195 318.804 169.658 318.023 169.739C316.284 169.92 314.535 169.739 312.777 169.977C308.737 170.521 304.691 171.297 300.643 171.729C296.329 172.189 292.053 172.276 287.762 173.052C283.569 173.809 279.35 174.595 275.181 175.471C266.321 177.332 257.369 179.15 248.649 181.915C246.611 182.561 244.561 183.175 242.601 184.061C241.65 184.491 240.737 185.012 239.745 185.333C238.325 185.793 238.045 185.968 237.314 184.711C236.054 182.549 235.361 179.69 234.447 177.337C233.543 175.01 232.446 172.663 231.922 170.233C233.446 169.978 235.368 170.473 236.94 170.529C238.862 170.599 240.763 170.555 242.683 170.543C246.553 170.519 249.578 169.313 253.24 168.048C256.326 166.982 260.435 166.37 262.789 163.927C264.052 162.618 264.472 162.388 266.369 162.622C268.283 162.859 270.174 163.267 272.107 163.335C279.39 163.589 286.641 164.929 293.957 165.194C295.937 165.266 300.887 166.255 300.563 162.716C300.496 161.981 299.962 161.344 299.857 160.587C299.746 159.777 299.938 158.954 300.059 158.161C300.345 156.287 300.644 154.413 300.93 152.538C307.601 154.796 314.357 156.625 321.156 158.413C323.976 159.154 328.505 160.859 331.418 159.925C334.235 159.021 332.604 154.837 331.726 152.835C337.322 154.181 343.291 156.383 348.997 156.889C350.733 157.043 352.423 157.448 352.827 155.235C353.149 153.472 351.941 151.316 351.325 149.767C355.704 149.355 360.239 149.394 359.415 143.476C358.659 138.047 354.381 136.966 349.826 135.974C344.204 134.749 338.462 134.34 332.803 133.349C327.879 132.486 322.507 131.524 317.479 131.96C314.817 132.19 312.139 132.242 309.478 132.502C308.222 132.625 307.015 132.83 305.8 133.191C304.679 133.524 303.111 134.555 301.962 134.573C300.227 134.602 298.137 132.129 296.271 131.558C293.961 130.85 291.471 130.721 289.084 130.548C286.378 130.352 283.668 130.243 280.965 130.012C280.348 129.959 278.018 130.12 277.532 129.74C276.823 129.185 277.295 126.34 277.344 125.171C277.39 124.09 277.193 122.066 277.903 121.642C278.571 121.244 280.516 121.79 281.173 121.901C283.896 122.36 286.484 122.308 289.197 122.191C290.45 122.137 291.654 122.489 292.894 122.316C294.226 122.13 295.566 121.658 296.892 121.395C299.764 120.826 302.381 120.118 304.856 118.421C307.029 116.932 309.6 115.924 310.814 113.317C311.704 111.407 312.065 107.723 309.45 107.18C311.231 104.472 312.46 101.43 313.404 98.3005C313.575 97.7331 313.689 96.8787 313.945 96.3839C314.849 94.634 314.01 96.1861 315.3 95.4862C316.574 94.7952 317.493 94.2483 318.489 93.0465C320.077 91.1298 320.745 88.771 320.946 86.2736C321.218 82.8819 321.727 79.0575 321.257 75.683C320.444 69.8377 316.392 65.4458 312.274 61.9106C310.039 59.9912 307.096 59.2764 304.475 58.1116C301.944 56.9868 299.117 55.8077 296.451 55.5439C294.044 55.3056 291.698 54.4772 289.288 54.1431C285.977 53.6832 282.662 53.855 279.335 53.7153C277.803 53.6511 276.275 53.4233 274.751 53.2499C273.89 53.1518 272.434 53.2565 271.646 52.8969C270.355 52.3074 271.052 53.5452 270.591 51.7422C269.715 48.3122 268.999 45.0956 267.671 41.7627C266.433 38.6575 264.931 35.6886 262.945 33.0339C261.082 30.5437 258.666 28.7224 256.472 26.5951C254.846 25.0193 253.001 23.5958 251.147 22.3213C250.086 21.5927 248.905 21.1987 247.869 20.5554C246.582 19.7574 245.447 19.1524 243.999 18.6636C240.893 17.6153 237.811 16.5021 234.511 16.5569C230.955 16.6157 227.389 15.7429 223.927 16.8495C217.497 18.9047 214.347 26.251 214.455 32.9973C212.255 32.4188 210.333 31.3051 208.004 31.2098C205.859 31.1222 203.309 31.3184 201.202 31.7384C197.112 32.5535 192.905 34.9505 190.466 38.5833C188.14 42.0481 187.792 46.6483 189.222 50.5791C189.906 52.4608 190.991 54.1348 192.148 55.7245C192.995 56.8904 194.886 58.1809 194.975 59.7429C179.144 54.6978 163.248 51.1415 146.872 48.8398C138.57 47.6734 130.255 48.2574 121.945 47.5908C118.395 47.306 114.537 47.7044 110.867 47.7193C109.318 47.726 108.112 47.4988 106.989 46.4416C105.852 45.3721 104.943 44.0623 103.617 45.606C103.279 45.9999 103.208 46.953 102.753 47.2495C102.201 47.6085 100.596 47.3619 99.9362 47.4046C97.6283 47.5531 95.3762 47.9659 93.1104 48.4413C88.953 49.3141 84.8224 50.1962 80.7145 51.3039C72.8927 53.4134 65.1745 55.4536 57.4658 57.9576C49.5998 60.5126 41.6508 63.6649 34.3983 67.8008C30.8853 69.8039 27.3765 72.3046 24.1468 74.7825C22.6451 75.9351 21.2991 77.1818 19.9936 78.5715C18.5971 80.0571 16.8895 81.0595 15.5066 82.5561C12.4997 85.8115 9.5039 89.2647 6.77612 92.7916C5.3518 94.6329 4.04308 96.575 2.77642 98.5377C1.88293 99.9146 -0.461189 102.436 0.0801926 104.215C0.364006 105.164 1.37316 105.829 2.2929 105.596C2.60302 105.518 2.85528 105.097 3.11803 105.057C4.01153 104.924 3.20214 104.594 4.23754 105.038C6.30309 105.921 6.96014 107.691 9.58276 107.288C14.0381 106.603 18.2297 104.384 22.2825 102.45C23.4398 107.115 23.6038 111.952 24.6171 116.674C25.6052 121.28 27.253 125.673 29.2423 129.898C30.9872 133.605 33.2278 137.556 36.3167 140.205C38.6734 142.226 44.4901 144.738 46.2213 140.434C46.9566 138.606 45.8629 135.765 45.5533 133.884C45.1376 131.36 44.6793 128.828 44.4291 126.278C44.2262 124.206 44.1237 122.122 43.9345 120.048C43.771 118.264 43.3191 114.433 44.2709 112.858C44.8443 111.908 44.8942 112.84 45.228 113.788C45.6327 114.938 45.969 116.078 46.265 117.262C46.8946 119.778 47.4622 122.312 48.0577 124.837C49.1215 129.348 50.2931 133.761 52.51 137.818C54.4788 141.42 57.2497 145.372 61.4607 145.962C63.4322 146.238 66.0023 145.288 67.507 143.888C69.1958 142.317 68.6912 139.726 68.6775 137.59Z" fill="#A187D4"/>
<path fill-rule="evenodd" clip-rule="evenodd" d="M164.832 321.82C162.518 321.338 160.57 319.391 158.68 317.928C156.27 316.063 153.983 314.03 151.643 312.07C147.233 308.377 143.231 304.326 139.426 299.921C131.918 291.23 126.265 280.044 123.696 268.614C122.396 262.831 120.788 256.055 121.526 250.078C121.783 248.002 122.174 247.621 124.105 247.385C124.977 247.279 127.19 247.014 127.975 247.376C130.01 248.313 131.109 252.302 131.712 254.307C133.495 260.226 134.544 266.356 136.155 272.324C137.734 278.173 140.279 284.108 142.795 289.578C148.395 301.748 156.178 311.93 164.832 321.82ZM118.926 254.627C120.31 271.2 124.674 286.99 134.46 300.336C139.112 306.68 144.582 312.2 150.511 317.213C156.633 322.39 162.886 327.266 169.832 331.127C171.681 332.155 173.532 333.179 175.403 334.159C176.441 334.702 179.06 336.704 180.257 336.387C181.215 336.133 181.466 335.351 181.615 334.334C181.951 332.05 180.544 330.911 179.121 329.444C173.405 323.553 167.672 317.641 162.327 311.374C151.773 298.997 143.845 284.177 139.438 268.185C138.08 263.261 136.869 258.283 135.403 253.394C134.511 250.415 133.245 245.114 130.279 243.629C128.688 242.832 126.835 243.607 125.162 243.13C123.593 242.682 122.554 241.769 121.217 243.301C118.87 245.988 118.766 251.259 118.926 254.627Z" fill="#A187D4"/>
<path fill-rule="evenodd" clip-rule="evenodd" d="M537.05 350.251C538.222 350.688 538.27 351.122 538.807 349.852C539.077 349.211 539.004 348.334 538.941 347.669C538.788 346.075 537.992 344.603 537.339 343.19C531.185 348.541 524.795 353.364 518.197 358.092C511.141 363.149 504.403 368.771 497.729 374.372C491.753 379.388 485.705 384.256 479.791 389.335C476.938 391.784 473.687 393.683 470.975 396.207C468.784 398.248 465.15 399.162 463.282 401.562C466.242 403.427 470.194 404.928 473.474 403.315C477.093 401.535 479.868 399.215 483.089 396.803C484.748 395.56 486.473 394.432 488.159 393.23C489.641 392.172 490.687 390.628 492.187 389.636C495.34 387.551 498.573 385.254 501.565 382.873C504.637 380.427 508.033 378.482 510.998 375.883C514.037 373.218 517.438 371.453 520.611 369.027C527.336 363.887 533.257 358.105 537.05 350.251Z" fill="#A187D4"/>
<path fill-rule="evenodd" clip-rule="evenodd" d="M355.627 77.2832C355.71 77.7564 355.794 78.2296 355.878 78.7034C355.827 78.7156 351.803 70.5203 351.136 69.5307C348.875 66.1756 345.933 63.384 343.096 60.5819C337.088 54.6463 330.056 49.8554 324.167 43.814C322.23 41.8264 318.759 38.8148 319.525 35.4542C320.287 32.114 326.716 32.7928 328.918 33.7592C332.369 35.2746 335.173 38.4441 337.745 41.2058C340.55 44.2185 343.379 47.1974 345.756 50.6068C348.32 54.2833 350.754 58.2651 352.325 62.5318C354.085 67.3115 354.773 72.258 355.627 77.2832ZM354.305 91.9471C357.036 92.8348 353.613 93.4344 354.682 94.9726C355.855 96.6593 357.827 91.4623 358.122 90.481C359.86 84.6833 359.083 77.6401 358.134 71.7538C357.655 68.7843 357.345 65.7661 356.698 62.8288C356.068 59.9646 354.694 57.2428 353.426 54.6374C350.886 49.4243 347.522 44.5676 343.704 40.317C339.876 36.0526 335.608 31.786 330.555 29.1606C326.381 26.9924 319.763 28.4968 317.809 33.2327C315.813 38.0723 318.513 43.3441 321.707 46.7469C325.872 51.1847 330.411 55.5927 335.091 59.4193C337.495 61.3864 339.511 63.7652 341.847 65.8176C344.334 68.0025 346.485 70.2001 348.323 73.0255C350.104 75.7633 351.937 78.4989 353.094 81.6069C354.361 85.0103 354.305 88.3465 354.305 91.9471Z" fill="#A187D4"/>
<path fill-rule="evenodd" clip-rule="evenodd" d="M463.52 300.648C469.795 296.389 476.09 292.649 481.554 287.217C486.949 281.854 491.662 275.806 497.667 271.152C500.662 268.831 503.754 266.651 506.697 264.254C509.49 261.978 512.7 260.029 515.225 257.433C518.59 253.972 524.889 247.542 520.591 242.382C515.255 249.072 507.934 254.346 501.259 259.425C494.222 264.78 487.762 271.028 481.087 276.862C474.656 282.483 468.247 288.155 461.972 293.924C460.325 295.44 458.735 297.032 457.068 298.523C456.864 298.705 455.136 299.859 455.136 300.166C455.135 300.903 456.475 301.363 456.952 301.568C457.706 301.892 459.743 302.696 460.597 302.424C461.045 302.281 461.052 301.897 461.375 301.669C461.561 301.3 461.777 300.952 462.023 300.625C462.523 300.634 463.021 300.641 463.52 300.648Z" fill="#A187D4"/>
<path fill-rule="evenodd" clip-rule="evenodd" d="M94.148 226.383C98.6207 226.261 105.429 226.247 105.178 232.687C105.054 235.875 103.415 238.217 102.067 240.944C100.653 243.81 99.6046 246.77 99.1894 249.983C97.5101 262.986 102.015 275.69 106.09 287.711C97.3388 280.264 91.0186 269.902 87.7001 258.545C86.0913 253.037 85.4653 245.958 85.9851 240.223C86.2453 237.353 87.2491 234.78 88.458 232.223C89.065 230.939 89.6721 229.472 90.6402 228.433C91.6099 227.391 92.9544 227.044 94.148 226.383ZM109.751 295.158C112.64 290.149 108.091 282.773 106.603 277.888C104.825 272.047 103.184 265.966 102.424 259.875C101.628 253.495 102.656 248.534 105.461 242.898C107.969 237.859 109.458 231.149 106.67 225.818C105.546 223.672 103.888 223.409 101.917 222.553C99.4969 221.503 98.8304 219.726 95.8609 220.008C90.5624 220.509 88.1111 225.807 86.1401 230.321C81.5444 240.843 82.7937 254.423 86.713 264.989C88.9688 271.069 91.5416 277.382 95.3715 282.559C97.2495 285.097 99.4569 287.297 101.747 289.415C104.226 291.705 106.446 294.466 109.751 295.158Z" fill="#A187D4"/>
<path fill-rule="evenodd" clip-rule="evenodd" d="M412.318 112.469C419.303 113.949 425.677 117.268 426.796 125.544C427.813 133.066 422.954 140.024 416.986 143.545C410.532 147.354 402.445 147.987 396.014 143.766C389.244 139.322 387.708 130.416 391.829 123.429C396.426 115.632 404.129 113.331 412.318 112.469ZM407.829 108.861C399.511 110.146 391.79 116.387 388.988 124.792C386.099 133.456 388.753 142.983 396.401 147.73C411.856 157.326 432.512 141.335 428.782 122.955C427.834 118.288 425.145 114.674 421.491 111.942C417.457 108.925 412.579 108.843 407.829 108.861Z" fill="#A187D4"/>
<path fill-rule="evenodd" clip-rule="evenodd" d="M112.091 20.8705C122.114 16.093 132.137 11.3154 142.159 6.53792C142.57 11.3276 142.981 16.1168 143.393 20.9065C143.504 22.2026 143.959 23.9657 143.765 25.2446C143.558 26.6094 144.001 26.4636 142.313 26.2697C140.155 26.0209 137.99 25.459 135.854 25.0573C132.014 24.3348 127.93 24.1286 124.172 23.0659C122.254 22.5234 120.417 22.4552 118.47 22.1272C116.332 21.767 114.251 21.0999 112.091 20.8705ZM145.995 30.1296C145.995 24.7343 145.426 19.4115 144.958 14.0411C144.536 9.20928 144.374 4.60353 142.878 0C141.481 2.67579 137.611 3.74522 135.216 5.12217C131.917 7.01944 128.402 8.41635 125.025 10.1446C121.708 11.8418 118.512 13.7906 115.191 15.484C113.507 16.3429 111.797 17.1441 110.116 18.0096C109.064 18.5515 106.569 19.4237 105.914 20.43C103.927 23.4842 110.729 23.7795 112.042 24.0488C115.979 24.8584 119.962 25.3144 123.891 26.1467C127.555 26.9235 131.226 27.6444 134.903 28.3487C138.542 29.0458 142.292 30.1296 145.995 30.1296Z" fill="#A187D4"/>
<path fill-rule="evenodd" clip-rule="evenodd" d="M455.029 163.697C451.083 163.264 447.153 162.641 443.211 162.23C439.479 161.841 436.177 161.426 432.767 159.623C437.424 158.143 442.092 156.741 446.789 155.403C449.118 154.74 451.443 154.038 453.783 153.418C455.593 152.938 457.171 152.662 457.866 150.579C458.676 148.155 456.424 148.522 455.02 149.138C453.084 149.988 450.975 150.516 448.968 151.222C444.489 152.799 439.983 154.249 435.462 155.682C434.056 156.128 425.913 157.776 428.847 160.64C430.103 161.866 432.905 162.539 434.44 163.42C436.409 164.549 438.553 164.999 440.744 165.448C445.31 166.385 450.048 166.744 454.67 167.557C457.03 167.972 459.39 168.387 461.75 168.802C463.133 169.045 463.665 169.021 464.026 167.395C464.289 166.214 463.946 165.032 463.694 163.888C463.054 160.98 462.342 158.088 461.637 155.197C461.369 154.095 460.894 149.247 459.961 148.717C457.845 147.514 459.478 154.225 459.635 155.047C460.229 158.146 460.934 161.224 461.252 164.37C459.173 164.172 457.1 163.966 455.029 163.697Z" fill="#A187D4"/>
<path fill-rule="evenodd" clip-rule="evenodd" d="M399.076 188.375C398.293 190.448 399.594 190.911 401.171 191.629C403.218 192.561 405.231 193.544 407.315 194.383C411.699 196.147 416.114 197.785 420.394 199.825C428.556 203.717 436.828 207.454 444.863 211.621C446.86 212.656 448.858 213.688 450.872 214.685C452.956 215.717 455.345 217.453 457.574 218.043C459.518 218.557 459.721 217.097 458.569 215.753C457.084 214.019 454.788 212.725 452.922 211.52C445.246 206.559 436.867 202.52 428.482 199.108C418.791 195.162 409.074 191.377 399.076 188.375Z" fill="#A187D4"/>
<path fill-rule="evenodd" clip-rule="evenodd" d="M377.767 70.778C378.047 64.4755 377.248 58.1559 377.725 51.8701C385.922 59.5312 381.883 71.3709 377.167 79.6836L377.767 70.778ZM374.218 70.4178C374.166 73.4964 374.001 76.5734 374.285 79.6365C374.583 82.852 373.152 84.5082 371.287 86.8765C372.871 88.5709 376.505 84.6201 377.508 83.4554C379.574 81.0572 381.111 77.8711 382.48 74.9914C385.393 68.8569 387.4 62.289 385.068 55.5539C384.203 53.0576 383.146 49.6637 380.857 48.2103C378.344 46.6144 376.421 48.8652 375.378 51.1803C372.832 56.8289 374.773 64.3547 374.218 70.4178Z" fill="#A187D4"/>
<path fill-rule="evenodd" clip-rule="evenodd" d="M287.381 383.699C283.602 384.015 279.878 384.325 276.098 384.578C276.751 379.116 277.403 373.653 278.056 368.19C280.243 368.724 282.43 369.258 284.617 369.791C285.65 370.043 287.236 370.109 288.151 370.653C288.493 370.737 288.836 370.82 289.178 370.904C289.187 371.613 289.194 372.322 289.201 373.031C289.226 375.129 289.284 377.225 289.366 379.321C289.401 380.199 289.692 381.485 289.492 382.355C289.846 383.235 289.621 383.609 288.815 383.477C288.337 383.551 287.859 383.625 287.381 383.699ZM289.983 387.648C292.946 386.092 292.136 381.34 292.131 378.316C292.128 376.391 291.999 374.48 291.951 372.558C291.918 371.237 292.204 369.602 291.773 368.326C291.007 366.056 287.254 366.117 285.325 366.277C283.894 366.394 282.697 366.318 281.231 366.219C280.508 366.17 279.702 366.315 278.992 366.09C278.838 366.042 277.393 364.979 277.458 364.977C274.866 365.081 274.831 371.632 274.663 373.295C274.247 377.392 273.871 381.497 273.532 385.603C273.443 386.69 273.059 387.918 274.039 388.538C274.922 389.098 277.262 388.545 278.239 388.513C282.175 388.388 286.09 387.741 289.983 387.648Z" fill="#A187D4"/>
<path fill-rule="evenodd" clip-rule="evenodd" d="M105.039 144.22C103.326 145.845 104.149 147.522 104.71 149.552C105.047 150.771 106.9 154.771 106.389 155.911C105.798 157.229 103.021 157.553 101.834 157.969C99.7665 158.694 97.6894 159.422 95.7326 160.444C94.8644 160.898 91.7324 161.94 91.1453 162.787C90.8089 163.272 90.6865 163.653 90.9393 164.278C91.3834 165.376 92.0167 164.795 93.0989 164.56C98.0442 163.482 102.947 162.105 107.534 159.833C108.812 162.962 109.895 166.158 110.977 169.368C111.294 170.309 111.596 172.447 112.8 172.599C114.269 172.784 114.289 170.711 114.191 169.592C114.049 167.959 113.246 166.217 112.762 164.67C112.362 163.394 110.959 160.736 111.132 159.42C111.25 158.515 111.773 158.578 112.706 158.222C113.588 157.887 114.47 157.552 115.351 157.213C116.763 156.668 118.169 156.122 119.544 155.476C120.298 155.121 121.876 154.706 122.422 153.971C122.739 153.544 123.092 152.006 122.693 151.581C121.758 150.584 115.539 153.267 114.26 153.633C113.412 153.876 112.559 154.062 111.736 154.381C111.424 154.502 111.056 154.994 110.719 155.012C109.288 155.089 109.174 153.929 108.731 152.685C107.7 149.794 106.581 146.845 105.039 144.22Z" fill="#A187D4"/>
<path fill-rule="evenodd" clip-rule="evenodd" d="M461.586 201.734C462.349 199.763 454.254 197.382 452.751 196.718C449.084 195.099 445.155 194.12 441.357 192.884C437.623 191.668 433.905 190.359 430.232 188.953C429.096 188.517 420.917 184.319 420.489 184.933C419.072 186.964 436.235 193.345 437.908 193.98C445.674 196.928 453.693 199.191 461.586 201.734Z" fill="#A187D4"/>
<path fill-rule="evenodd" clip-rule="evenodd" d="M113.439 47.5996C115.537 47.6218 118.564 48.249 120.489 47.3514C118.139 47.4339 115.789 47.5171 113.439 47.5996Z" fill="#A187D4"/>
<path fill-rule="evenodd" clip-rule="evenodd" d="M407.829 108.861L412.495 108.843C410.938 108.462 409.382 108.232 407.829 108.861Z" fill="#A187D4"/>
<path fill-rule="evenodd" clip-rule="evenodd" d="M164.864 107.547C163.764 107.541 162.664 107.535 161.571 107.528C162.674 107.535 163.769 107.541 164.864 107.547Z" fill="#A187D4"/>
<path fill-rule="evenodd" clip-rule="evenodd" d="M68.6775 137.59C68.686 138.831 68.6933 140.071 68.7033 141.307C68.6959 140.065 68.687 138.827 68.6775 137.59Z" fill="#A187D4"/>
<path fill-rule="evenodd" clip-rule="evenodd" d="M285.324 366.277C286.493 366.366 287.661 366.454 288.829 366.543C287.66 366.454 286.492 366.365 285.324 366.277Z" fill="#A187D4"/>
<path fill-rule="evenodd" clip-rule="evenodd" d="M278.74 129.822C279.927 129.923 281.114 130.025 282.299 130.126C281.113 130.024 279.927 129.923 278.74 129.822Z" fill="#A187D4"/>
<path fill-rule="evenodd" clip-rule="evenodd" d="M155.95 107.139C155.11 107.137 154.271 107.135 153.438 107.134C154.28 107.136 155.115 107.137 155.95 107.139Z" fill="#A187D4"/>
<path fill-rule="evenodd" clip-rule="evenodd" d="M324.904 132.242C325.948 132.342 326.992 132.441 328.035 132.54C326.991 132.441 325.948 132.342 324.904 132.242Z" fill="#A187D4"/>
<path fill-rule="evenodd" clip-rule="evenodd" d="M278.813 53.712C279.857 53.7187 280.901 53.7253 281.944 53.732C280.903 53.1502 279.859 53.3003 278.813 53.712Z" fill="#A187D4"/>
<path fill-rule="evenodd" clip-rule="evenodd" d="M469.322 244.02C470.19 243.971 470.898 244.415 471.388 243.542C470.586 242.883 470.124 243.642 469.322 244.02Z" fill="#A187D4"/>
<path fill-rule="evenodd" clip-rule="evenodd" d="M308.29 170.537L311 170.216L308.29 170.537Z" fill="#A187D4"/>
<path fill-rule="evenodd" clip-rule="evenodd" d="M289.983 387.648C289.385 387.663 288.787 387.677 288.195 387.691C288.795 387.676 289.389 387.662 289.983 387.648Z" fill="#A187D4"/>
<path fill-rule="evenodd" clip-rule="evenodd" d="M150.925 49.3961C151.857 49.4842 152.791 49.5723 153.723 49.6604C152.79 49.5717 151.857 49.4842 150.925 49.3961Z" fill="#A187D4"/>
<path fill-rule="evenodd" clip-rule="evenodd" d="M446.566 347.75C447.462 347.754 448.357 347.759 449.253 347.762C448.357 347.758 447.461 347.754 446.566 347.75Z" fill="#A187D4"/>
<path fill-rule="evenodd" clip-rule="evenodd" d="M518.592 331.005C519.496 331.006 520.4 331.008 521.304 331.01C520.4 331.008 519.496 331.006 518.592 331.005Z" fill="#A187D4"/>
<path fill-rule="evenodd" clip-rule="evenodd" d="M290.054 130.608C290.972 130.704 291.89 130.798 292.808 130.894C291.89 130.798 290.972 130.704 290.054 130.608Z" fill="#A187D4"/>
<path fill-rule="evenodd" clip-rule="evenodd" d="M315.673 132.179C316.576 132.07 317.479 131.96 318.382 131.85C317.487 132.035 316.493 131.306 315.673 132.179Z" fill="#A187D4"/>
<path fill-rule="evenodd" clip-rule="evenodd" d="M233.853 170.411C233.291 170.344 232.502 170.136 231.922 170.233C231.998 170.582 233.637 170.41 233.853 170.411Z" fill="#A187D4"/>
<path fill-rule="evenodd" clip-rule="evenodd" d="M291.16 245.125C290.554 245.137 289.948 245.15 289.348 245.16C289.956 245.149 290.558 245.137 291.16 245.125Z" fill="#A187D4"/>
<path fill-rule="evenodd" clip-rule="evenodd" d="M345.897 169.035C346.782 169.125 347.667 169.215 348.552 169.305C347.666 169.215 346.782 169.125 345.897 169.035Z" fill="#A187D4"/>
<path fill-rule="evenodd" clip-rule="evenodd" d="M444.989 165.855C444.507 165.869 444.024 165.882 443.548 165.896C444.032 165.882 444.511 165.869 444.989 165.855Z" fill="#A187D4"/>
<path fill-rule="evenodd" clip-rule="evenodd" d="M314.554 169.737C315.311 169.721 316.068 169.705 316.824 169.69C316.068 169.705 315.311 169.721 314.554 169.737Z" fill="#A187D4"/>
<path fill-rule="evenodd" clip-rule="evenodd" d="M455.029 163.697C455.795 163.797 456.56 163.896 457.324 163.995C456.558 163.895 455.794 163.796 455.029 163.697Z" fill="#A187D4"/>
<path fill-rule="evenodd" clip-rule="evenodd" d="M350.057 156.843C349.584 156.863 349.112 156.883 348.645 156.905C349.12 156.886 349.588 156.865 350.057 156.843Z" fill="#A187D4"/>
<path fill-rule="evenodd" clip-rule="evenodd" d="M314.003 240.641C313.523 240.608 313.043 240.575 312.57 240.541C313.051 240.574 313.527 240.608 314.003 240.641Z" fill="#A187D4"/>
<path fill-rule="evenodd" clip-rule="evenodd" d="M277.295 175.023C278.066 174.921 278.838 174.82 279.609 174.719C278.838 174.82 278.066 174.921 277.295 175.023Z" fill="#A187D4"/>
<path fill-rule="evenodd" clip-rule="evenodd" d="M463.52 300.648C463.019 300.641 462.518 300.634 462.023 300.625C462.526 300.632 463.023 300.64 463.52 300.648Z" fill="#A187D4"/>
<path fill-rule="evenodd" clip-rule="evenodd" d="M504.645 235.031C505.443 234.946 506.241 234.861 507.039 234.776C506.242 234.861 505.444 234.946 504.645 235.031Z" fill="#A187D4"/>
<path fill-rule="evenodd" clip-rule="evenodd" d="M521.669 331.12C522.454 331.215 523.238 331.311 524.022 331.407C523.237 331.311 522.454 331.215 521.669 331.12Z" fill="#A187D4"/>
<path fill-rule="evenodd" clip-rule="evenodd" d="M94.1879 107.412C94.2494 108.127 94.3109 108.842 94.3739 109.554C94.3124 108.838 94.2504 108.125 94.1879 107.412Z" fill="#A187D4"/>
<path fill-rule="evenodd" clip-rule="evenodd" d="M441.879 347.036C442.668 347.132 443.457 347.227 444.245 347.323C443.456 347.227 442.668 347.132 441.879 347.036Z" fill="#A187D4"/>
<path fill-rule="evenodd" clip-rule="evenodd" d="M449.619 347.861C450.417 348.449 451.215 348.482 452.014 347.863C451.216 347.862 450.417 347.861 449.619 347.861Z" fill="#A187D4"/>
<path fill-rule="evenodd" clip-rule="evenodd" d="M464.756 348.564C465.53 348.565 466.304 348.565 467.077 348.566C466.303 348.565 465.529 348.565 464.756 348.564Z" fill="#A187D4"/>
<path fill-rule="evenodd" clip-rule="evenodd" d="M374.218 70.4178C374.285 69.6936 374.351 68.9699 374.417 68.2485C374.351 68.9738 374.285 69.6958 374.218 70.4178Z" fill="#A187D4"/>
<path fill-rule="evenodd" clip-rule="evenodd" d="M289.674 54.2462C290.452 54.3476 291.23 54.4484 292.007 54.5493C291.229 54.4484 290.452 54.3476 289.674 54.2462Z" fill="#A187D4"/>
<path fill-rule="evenodd" clip-rule="evenodd" d="M286.918 53.8627C287.708 53.9558 288.499 54.0495 289.289 54.1431C288.499 54.0495 287.708 53.9558 286.918 53.8627Z" fill="#A187D4"/>
<path fill-rule="evenodd" clip-rule="evenodd" d="M409.694 150.364C409.207 150.356 408.72 150.348 408.241 150.34C408.729 150.348 409.211 150.356 409.694 150.364Z" fill="#A187D4"/>
<path fill-rule="evenodd" clip-rule="evenodd" d="M339.267 142.343C336.685 141.894 334.104 141.744 331.523 142.341L339.267 142.343Z" fill="#A187D4"/>
<path fill-rule="evenodd" clip-rule="evenodd" d="M270.422 111.73C269.885 110.25 269.751 109.695 268.44 108.929C268.986 110.367 269.071 111.136 270.422 111.73Z" fill="#A187D4"/>
<path fill-rule="evenodd" clip-rule="evenodd" d="M207.474 258.147C207.422 259.686 207.371 261.224 207.319 262.76C207.371 261.222 207.423 259.684 207.474 258.147Z" fill="#A187D4"/>
<path fill-rule="evenodd" clip-rule="evenodd" d="M113.862 51.1526C115.029 51.1804 116.197 51.2088 117.359 51.2367C116.19 51.2088 115.026 51.1804 113.862 51.1526Z" fill="#A187D4"/>
<path fill-rule="evenodd" clip-rule="evenodd" d="M269.423 285.487C269.382 286.769 269.341 288.052 269.301 289.333C269.342 288.049 269.382 286.768 269.423 285.487Z" fill="#A187D4"/>
<path fill-rule="evenodd" clip-rule="evenodd" d="M412.519 244.403C411.339 244.412 410.16 244.421 408.98 244.429C410.16 244.421 411.339 244.412 412.519 244.403Z" fill="#A187D4"/>
<path fill-rule="evenodd" clip-rule="evenodd" d="M312.254 178.534C312.965 178.541 313.675 178.548 314.379 178.558C313.666 178.551 312.96 178.543 312.254 178.534Z" fill="#A187D4"/>
<path fill-rule="evenodd" clip-rule="evenodd" d="M314.569 137.773C315.154 137.752 315.739 137.73 316.317 137.711C315.73 137.733 315.149 137.753 314.569 137.773Z" fill="#A187D4"/>
<path fill-rule="evenodd" clip-rule="evenodd" d="M398.155 244.015C397.233 243.92 396.311 243.825 395.388 243.729C396.311 243.825 397.233 243.92 398.155 244.015Z" fill="#A187D4"/>
<path fill-rule="evenodd" clip-rule="evenodd" d="M418.251 244.452C417.347 244.437 416.444 244.422 415.541 244.407C416.444 244.422 417.347 244.437 418.251 244.452Z" fill="#A187D4"/>
<path fill-rule="evenodd" clip-rule="evenodd" d="M408.605 244.427C407.67 244.341 406.734 244.255 405.798 244.169C406.734 244.255 407.67 244.341 408.605 244.427Z" fill="#A187D4"/>
<path fill-rule="evenodd" clip-rule="evenodd" d="M405.194 245.991C405.659 245.988 406.124 245.985 406.583 245.982C406.116 245.985 405.655 245.988 405.194 245.991Z" fill="#A187D4"/>
<path fill-rule="evenodd" clip-rule="evenodd" d="M207.883 223.953C207.813 223.23 207.743 222.507 207.674 221.787C207.743 222.511 207.813 223.231 207.883 223.953Z" fill="#A187D4"/>
<path fill-rule="evenodd" clip-rule="evenodd" d="M347.568 150.883C346.981 150.935 346.394 150.988 345.807 151.041C346.462 151.077 347.118 151.111 347.773 151.147C347.769 151.005 347.701 150.917 347.568 150.883Z" fill="#A187D4"/>
<path fill-rule="evenodd" clip-rule="evenodd" d="M196.817 272.463C196.855 271.805 196.893 271.146 196.929 270.492C196.892 271.152 196.854 271.808 196.817 272.463Z" fill="#A187D4"/>
<path fill-rule="evenodd" clip-rule="evenodd" d="M337.036 148.371C337.507 148.381 337.978 148.39 338.443 148.4C337.97 148.39 337.503 148.38 337.036 148.371Z" fill="#A187D4"/>
<path fill-rule="evenodd" clip-rule="evenodd" d="M164.597 231.469C163.812 231.566 163.026 231.663 162.242 231.759C163.027 231.663 163.812 231.566 164.597 231.469Z" fill="#A187D4"/>
<path fill-rule="evenodd" clip-rule="evenodd" d="M327.681 176.925C328.164 176.932 328.647 176.94 329.125 176.949C328.64 176.941 328.16 176.933 327.681 176.925Z" fill="#A187D4"/>
<path fill-rule="evenodd" clip-rule="evenodd" d="M355.627 77.2832C355.12 77.5686 355.383 78.8231 355.878 78.7034C355.794 78.2296 355.71 77.7564 355.627 77.2832Z" fill="#A187D4"/>
<path fill-rule="evenodd" clip-rule="evenodd" d="M94.1479 226.383C94.6141 226.37 95.0798 226.357 95.5392 226.344C95.0719 226.358 94.6099 226.371 94.1479 226.383Z" fill="#A187D4"/>
<path fill-rule="evenodd" clip-rule="evenodd" d="M377.767 70.778C377.816 69.6725 377.865 68.5676 377.914 67.4655C377.865 68.5721 377.815 69.6747 377.767 70.778Z" fill="#A187D4"/>
<path fill-rule="evenodd" clip-rule="evenodd" d="M289.533 383.366C288.815 383.477 288.097 383.588 287.38 383.699C288.099 383.588 288.815 383.477 289.533 383.366Z" fill="#A187D4"/>
<path fill-rule="evenodd" clip-rule="evenodd" d="M294.277 98.7848C296.808 99.334 299.407 99.621 301.878 100.429C302.495 100.631 304.518 101.87 305.257 101.544C306.379 101.047 305.811 99.7717 305.339 99.0913C304.074 97.2716 301.812 96.252 299.738 96.2747C297.667 96.298 294.825 96.2182 294.277 98.7848Z" fill="#A187D4"/>
<path fill-rule="evenodd" clip-rule="evenodd" d="M301.309 103.667C298.522 105.723 296.393 106.736 296.157 102.114C293.137 102.548 294.491 107.676 296.776 108.063C299.263 108.483 300.922 105.864 301.309 103.667Z" fill="#A187D4"/>
<path d="M497.6 44H566.4V130H489V44H497.6ZM557.8 121.4V52.6H497.6V121.4H557.8ZM506.2 61.2H549.2V69.8H506.2V61.2ZM549.2 78.4H506.2V87H549.2V78.4ZM506.2 95.6H536.3V104.2H506.2V95.6Z" fill="#A7F6DD"/>
<path d="M30.9 314H126.1V433H19V314H30.9ZM114.2 421.1V325.9H30.9V421.1H114.2ZM42.8 337.8H102.3V349.7H42.8V337.8ZM102.3 361.6H42.8V373.5H102.3V361.6ZM42.8 385.4H84.45V397.3H42.8V385.4Z" fill="#F8D966"/>
<path d="M376.9 453H440.1V532H369V453H376.9ZM432.2 524.1V460.9H376.9V524.1H432.2ZM384.8 468.8H424.3V476.7H384.8V468.8ZM424.3 484.6H384.8V492.5H424.3V484.6ZM384.8 500.4H412.45V508.3H384.8V500.4Z" fill="#EB6D63"/>
</svg>
